<?xml version="1.0" encoding="utf-8"?>
<!-- Generator: Adobe Illustrator 22.1.0, SVG Export Plug-In . SVG Version: 6.00 Build 0)  -->
<svg version="1.1" id="Layer_1" xmlns="http://www.w3.org/2000/svg" xmlns:xlink="http://www.w3.org/1999/xlink" x="0px" y="0px"
	 viewBox="0 0 100 65" style="enable-background:new 0 0 100 65;" xml:space="preserve">
<style type="text/css">
	.st0{fill:#FFFFFF;}
</style>
<g>
	<line class="st0" x1="5.4" y1="43.2" x2="94" y2="43.2"/>
	<g>
		<path class="st0" d="M10.6,5.3v17.2h3.3V5.3h4.7v28.8c0,0,0.4,1.5,1.3,1.5c1.1-0.1,2-0.3,2-1.1c0,0,0.1-18,0-18
			c0-1.2,0.8-2.8,1.9-2.9c0,0,5.7,0.1,5.7,0c1.1,0,2.2,1.6,2.2,2.8v6.9c0,0,2,1,3,0.3c0,0,0-9.8,0-14.4c0-1.8,1.3-4.1,2.2-4.2
			c0,0,1-0.3,1.9,0c3,1.7,3.9,5.7,4.1,8.1c0.1,1.9-0.3,4.2-0.3,4.2c-0.7,3.6-3.2,7.4-4.4,8.7c0,0,0,4.5,0,6.5c0,1.2,0.7,2.6,2.2,2.6
			c0,0,1.1,0.1,1,0c1.2,0,2.8-0.8,2.8-3.3V13.6H48c0,0,0,1.1,0,1.1c0-0.1,1.2-1.2,2.6-1.2c0,0,0.8,0,1.5,0c2,0,2.6,1.1,2.6,1.1
			s0.2-1.1,2.1-1.1h2c1.2,0,2.5,1.3,2.5,3.9v16.7c0,0,0.5,1.1,1.4,1.1c1.1,0,1.9-0.5,1.9-1.7c0,0,0-15.5,0-17.9
			c0-1.8,1.5-2.6,2.2-2.6c0,0,0.4,0,1.4,0c2.5,0,3.6,1.5,3.6,1.5v-1.1h4c0,0,0,17.4,0,20.5c0,0.6,0.5,1.2,0.8,1.2
			c0.7,0,1.9-0.1,1.8-2.2l0-19.6l4,0l0,1.4c0,0,1.3-1.4,2.8-1.4c0,0,0.6,0,1.4,0c2,0,3,1.8,3,3.6c0,0,0,15,0,17c0,1,0.2,1.7,1.3,1.7
			l3.1,0v2.3h-4.7c-0.1,0-1.4,0-1.5,0c-1.2,0-2.1-0.7-2.1-2.2c0,0,0-18.7,0-18.7c0-1.9-3.1-2.1-3.1-0.3v21.2h-4c0,0,0-2.2,0-2.1
			c0,0.1-1.5,2.2-2.7,2.2c0,0-0.4,0-0.7,0c-1.3,0-2.9-1.3-2.9-2.2c0,0-1.6,2.1-3.6,2.2c0,0-1.3,0-1.3,0c-1.1,0-2-1.1-2-2
			c0,0-1.7,2-3.1,2c0,0-1.6,0-2.5,0c-1.3,0-1.9-1.1-1.9-2.2l0-19.6c0,0-0.2-1.1-0.9-1.1c0,0-0.6,0-0.9,0c-0.6,0-1.1,0.6-1.1,1v21.8
			h-3.8c0,0,0-21.7,0-21.7c0-0.7-0.5-1.1-0.9-1.1c0,0-0.8,0-0.9,0c-0.7,0-1.1,0.6-1.1,1v21.8h-3.9v-1.6c0,0-3,1.9-5.9,1.9
			c-2.1,0-3.6-1.4-3.6-3.2c0,0,0-7.4,0-8.9c-1.2,0.6-3-0.3-3-0.3v10.1c0,0.9-1.3,2.1-2.6,2.1c0,0-4.8,0-4.9,0
			c-0.8,0-1.9-1.5-1.9-1.5s-1.2,1.4-2.3,1.4c0,0-3.2,0-4.5,0c-0.6,0-1.4-0.5-1.4-1.5c0,0,0-11.3,0-11.3c0,0-3.4,0-3.4,0v12.8H5.8
			V5.3H10.6z M25.6,16.2c0,2.1,0,18.7,0,18.7c0,1.8,1.3,1.4,1.3,1.4s1.4,0.3,1.4-1.4c0-1.8,0-18.8,0-18.8c0-1.4-1.3-1.1-1.3-1.1
			S25.6,14.8,25.6,16.2z M38.2,22c0,0,3.1-3.2,3.1-7.5c0-3.2-1.5-4.9-1.6-5c-1-1.6-1.3-1.4-1.5,0.7c0,0,0,8.8,0,10.1
			C38.2,20.8,38.2,22,38.2,22z M68.6,16.4v17.9c0,1.8,3.2,1.5,3.1-0.6c0-1.6,0-17.3,0-17.3C71.8,15,68.6,14.8,68.6,16.4z"/>
	</g>
	<g>
		<path class="st0" d="M5.5,53.6L5.5,53.6c0-3.2,2.4-5.7,5.7-5.7c2.1,0,3.3,0.7,4.3,1.7L14,51.3c-0.8-0.8-1.7-1.2-2.8-1.2
			c-1.9,0-3.2,1.5-3.2,3.4v0c0,1.9,1.3,3.4,3.2,3.4c1.3,0,2-0.5,2.9-1.3l1.5,1.6c-1.1,1.2-2.4,2-4.5,2C7.9,59.2,5.5,56.7,5.5,53.6z"
			/>
		<path class="st0" d="M16.7,53.6L16.7,53.6c0-3.2,2.5-5.7,5.8-5.7c3.4,0,5.8,2.5,5.8,5.6v0c0,3.1-2.5,5.7-5.8,5.7
			C19.2,59.2,16.7,56.7,16.7,53.6z M25.9,53.6L25.9,53.6c0-1.9-1.4-3.5-3.3-3.5c-1.9,0-3.3,1.5-3.3,3.4v0c0,1.9,1.4,3.4,3.3,3.4
			C24.5,57,25.9,55.5,25.9,53.6z"/>
		<path class="st0" d="M30.5,48.1H33v8.8h5.5V59h-7.9V48.1z"/>
		<path class="st0" d="M40.2,48.1h2.4v8.8h5.5V59h-7.9V48.1z"/>
		<path class="st0" d="M50.1,48.1h2.4v11h-2.4V48.1z"/>
		<path class="st0" d="M54.5,57.4l1.4-1.7c1,0.8,2,1.3,3.3,1.3c1,0,1.6-0.4,1.6-1v0c0-0.6-0.4-0.9-2.2-1.4c-2.2-0.6-3.6-1.2-3.6-3.4
			v0c0-2,1.6-3.3,3.8-3.3c1.6,0,3,0.5,4.1,1.4l-1.3,1.8c-1-0.7-1.9-1.1-2.9-1.1c-0.9,0-1.4,0.4-1.4,1v0c0,0.7,0.5,1,2.4,1.4
			c2.2,0.6,3.5,1.4,3.5,3.3v0c0,2.2-1.7,3.4-4,3.4C57.5,59.2,55.8,58.6,54.5,57.4z"/>
		<path class="st0" d="M65.4,48.1h2.4v11h-2.4V48.1z"/>
		<path class="st0" d="M70,53.6L70,53.6c0-3.2,2.5-5.7,5.8-5.7c3.4,0,5.8,2.5,5.8,5.6v0c0,3.1-2.5,5.7-5.8,5.7S70,56.7,70,53.6z
			 M79.2,53.6L79.2,53.6c0-1.9-1.4-3.5-3.3-3.5c-1.9,0-3.3,1.5-3.3,3.4v0c0,1.9,1.4,3.4,3.3,3.4C77.8,57,79.2,55.5,79.2,53.6z"/>
		<path class="st0" d="M83.9,48.1h2.2l5.1,6.8v-6.8h2.4v11h-2.1l-5.3-7v7h-2.4V48.1z"/>
	</g>
</g>
</svg>
