<?xml version="1.0" encoding="utf-8"?>
<!-- Generator: Adobe Illustrator 22.1.0, SVG Export Plug-In . SVG Version: 6.00 Build 0)  -->
<svg version="1.1" id="Layer_1" xmlns="http://www.w3.org/2000/svg" xmlns:xlink="http://www.w3.org/1999/xlink" x="0px" y="0px"
	 viewBox="0 0 100 65" style="enable-background:new 0 0 100 65;" xml:space="preserve">
<style type="text/css">
	.st0{fill:#FFFFFF;}
</style>
<g>
	<g>
		<path class="st0" d="M17.2,53.6L17.2,53.6c0-2.3,1.8-4.2,4.2-4.2c1.5,0,2.4,0.5,3.2,1.2l-1.1,1.2c-0.6-0.6-1.2-0.9-2.1-0.9
			C20,51,19,52.1,19,53.5l0,0c0,1.4,1,2.5,2.3,2.5c1,0,1.5-0.4,2.1-1l1.1,1.2c-0.8,0.9-1.8,1.5-3.3,1.5C19,57.7,17.2,55.9,17.2,53.6
			z"/>
		<path class="st0" d="M25.4,53.6L25.4,53.6c0-2.3,1.8-4.2,4.3-4.2c2.5,0,4.3,1.8,4.3,4.1l0,0c0,2.3-1.8,4.2-4.3,4.2
			S25.4,55.9,25.4,53.6z M32.2,53.6L32.2,53.6c0-1.4-1-2.6-2.4-2.6c-1.4,0-2.4,1.1-2.4,2.5l0,0c0,1.4,1,2.5,2.4,2.5
			C31.2,56.1,32.2,55,32.2,53.6z"/>
		<path class="st0" d="M35.6,49.5h1.8V56h4v1.5h-5.8L35.6,49.5L35.6,49.5z"/>
		<path class="st0" d="M42.7,49.5h1.8V56h4v1.5h-5.8V49.5z"/>
		<path class="st0" d="M50,49.5h1.8v8.1H50V49.5z"/>
		<path class="st0" d="M53.2,56.4l1-1.2c0.7,0.6,1.5,1,2.4,1c0.7,0,1.2-0.3,1.2-0.7l0,0c0-0.4-0.3-0.7-1.6-1
			c-1.6-0.4-2.6-0.9-2.6-2.5l0,0c0-1.5,1.2-2.4,2.8-2.4c1.2,0,2.2,0.4,3,1l-1,1.3c-0.7-0.5-1.4-0.8-2.1-0.8c-0.7,0-1,0.3-1,0.7l0,0
			c0,0.5,0.4,0.7,1.8,1c1.6,0.4,2.6,1,2.6,2.4l0,0c0,1.6-1.2,2.5-2.9,2.5C55.4,57.7,54.1,57.3,53.2,56.4z"/>
		<path class="st0" d="M61.2,49.5h1.8v8.1h-1.8V49.5z"/>
		<path class="st0" d="M64.6,53.6L64.6,53.6c0-2.3,1.8-4.2,4.3-4.2c2.5,0,4.3,1.8,4.3,4.1l0,0c0,2.3-1.8,4.2-4.3,4.2
			S64.6,55.9,64.6,53.6z M71.3,53.6L71.3,53.6c0-1.4-1-2.6-2.4-2.6c-1.4,0-2.4,1.1-2.4,2.5l0,0c0,1.4,1,2.5,2.4,2.5
			C70.3,56.1,71.3,55,71.3,53.6z"/>
		<path class="st0" d="M74.8,49.5h1.6l3.7,5v-5h1.8v8.1h-1.5l-3.9-5.1v5.1h-1.8L74.8,49.5L74.8,49.5z"/>
	</g>
	<g>
		<path class="st0" d="M10.6,11.3v17.2h3.3V11.3h4.7v28.8c0,0,0.4,1.5,1.3,1.5c1.1-0.1,2-0.3,2-1.1c0,0,0.1-18,0-18
			c0-1.2,0.8-2.8,1.9-2.9c0,0,5.7,0.1,5.7,0c1.1,0,2.2,1.6,2.2,2.8v6.9c0,0,2,1,3,0.3c0,0,0-9.8,0-14.4c0-1.8,1.3-4.1,2.2-4.2
			c0,0,1-0.3,1.9,0c3,1.7,3.9,5.7,4.1,8.1c0.1,1.9-0.3,4.2-0.3,4.2c-0.7,3.6-3.2,7.4-4.4,8.7c0,0,0,4.5,0,6.5c0,1.2,0.7,2.6,2.2,2.6
			c0,0,1.1,0.1,1,0c1.2,0,2.8-0.8,2.8-3.3V19.6H48v1.1c0-0.1,1.2-1.2,2.6-1.2c0,0,0.8,0,1.5,0c2,0,2.6,1.1,2.6,1.1s0.2-1.1,2.1-1.1
			h2c1.2,0,2.5,1.3,2.5,3.9v16.7c0,0,0.5,1.1,1.4,1.1c1.1,0,1.9-0.5,1.9-1.7c0,0,0-15.5,0-17.9c0-1.8,1.5-2.6,2.2-2.6
			c0,0,0.4,0,1.4,0c2.5,0,3.6,1.5,3.6,1.5v-1.1h4c0,0,0,17.4,0,20.5c0,0.6,0.5,1.2,0.8,1.2c0.7,0,1.9-0.1,1.8-2.2V19.3h4v1.4
			c0,0,1.3-1.4,2.8-1.4c0,0,0.6,0,1.4,0c2,0,3,1.8,3,3.6c0,0,0,15,0,17c0,1,0.2,1.7,1.3,1.7H94v2.3h-4.7c-0.1,0-1.4,0-1.5,0
			c-1.2,0-2.1-0.7-2.1-2.2V23c0-1.9-3.1-2.1-3.1-0.3v21.2h-4c0,0,0-2.2,0-2.1c0,0.1-1.5,2.2-2.7,2.2c0,0-0.4,0-0.7,0
			c-1.3,0-2.9-1.3-2.9-2.2c0,0-1.6,2.1-3.6,2.2h-1.3c-1.1,0-2-1.1-2-2c0,0-1.7,2-3.1,2c0,0-1.6,0-2.5,0c-1.3,0-1.9-1.1-1.9-2.2V22.2
			c0,0-0.2-1.1-0.9-1.1c0,0-0.6,0-0.9,0c-0.6,0-1.1,0.6-1.1,1v21.8h-3.8V22.2c0-0.7-0.5-1.1-0.9-1.1c0,0-0.8,0-0.9,0
			c-0.7,0-1.1,0.6-1.1,1v21.8h-3.9v-1.6c0,0-3,1.9-5.9,1.9c-2.1,0-3.6-1.4-3.6-3.2c0,0,0-7.4,0-8.9c-1.2,0.6-3-0.3-3-0.3v10.1
			c0,0.9-1.3,2.1-2.6,2.1c0,0-4.8,0-4.9,0c-0.8,0-1.9-1.5-1.9-1.5s-1.2,1.4-2.3,1.4c0,0-3.2,0-4.5,0c-0.6,0-1.4-0.5-1.4-1.5V31.1
			h-3.4v12.8H5.8V11.3H10.6z M25.6,22.2c0,2.1,0,18.7,0,18.7c0,1.8,1.3,1.4,1.3,1.4s1.4,0.3,1.4-1.4c0-1.8,0-18.8,0-18.8
			c0-1.4-1.3-1.1-1.3-1.1S25.6,20.8,25.6,22.2z M38.2,28c0,0,3.1-3.2,3.1-7.5c0-3.2-1.5-4.9-1.6-5c-1-1.6-1.3-1.4-1.5,0.7
			c0,0,0,8.8,0,10.1C38.2,26.8,38.2,28,38.2,28z M68.6,22.4v17.9c0,1.8,3.2,1.5,3.1-0.6c0-1.6,0-17.3,0-17.3
			C71.8,21,68.6,20.8,68.6,22.4z"/>
	</g>
</g>
</svg>
