<?xml version="1.0" encoding="utf-8"?>
<!-- Generator: Adobe Illustrator 22.1.0, SVG Export Plug-In . SVG Version: 6.00 Build 0)  -->
<svg version="1.1" id="Layer_1" xmlns="http://www.w3.org/2000/svg" xmlns:xlink="http://www.w3.org/1999/xlink" x="0px" y="0px"
	 viewBox="0 0 100 100" style="enable-background:new 0 0 100 100;" xml:space="preserve">
<style type="text/css">
	.st0{fill:#5EBF8F;}
</style>
<g>
	<g>
		<path class="st0" d="M18.6,79.7c-1.2,0-2.2,0-3.3,0c-1.7,0-3.5,0-5.2-0.1c-4.2-0.2-7.5-3.8-7.4-8.3c0.1-7.5,0-15.1,0-22.6
			c0-9.4,0-18.7,0-28.1c0-3.4,1.4-6,4.5-7.5c1.1-0.5,2.5-0.8,3.8-0.8c26.3,0,52.5,0,78.8,0c4.8,0,8.2,3.5,8.2,8.4
			c0,16.3,0,32.6,0,48.9c0,1.4,0,2.8-0.3,4.2c-1,3.8-4.1,6-8,6c-16.7,0-33.4,0-50.1,0c-0.3,0-0.6,0-1,0c0-0.3-0.1-0.5-0.1-0.8
			c0-3.6,0-7.3,0-10.9c0-0.4,0.2-0.8,0.4-1.1c3.9-4.4,4.6-10.2,1.9-15.4c-2.6-5-8.2-8.1-13.8-7.4c-5.4,0.7-9.3,3.7-11.4,8.7
			c-2.1,5-1,9.7,2.3,13.9c0.3,0.4,0.6,1,0.6,1.6c0.1,3.4,0,6.9,0,10.3C18.6,78.9,18.6,79.2,18.6,79.7z M14.7,32.1c0,1.4,0,2.6,0,3.9
			c23.8,0,47.5,0,71.3,0c0-1.3,0-2.6,0-3.9C62.3,32.1,38.5,32.1,14.7,32.1z M50.4,47.8c11.9,0,23.8,0,35.6,0c0-1.3,0-2.6,0-3.8
			c-11.9,0-23.7,0-35.6,0C50.4,45.3,50.4,46.5,50.4,47.8z M62.3,59.7c8,0,15.8,0,23.7,0c0-1.3,0-2.6,0-3.8c-7.9,0-15.8,0-23.7,0
			C62.3,57.2,62.3,58.4,62.3,59.7z"/>
		<path class="st0" d="M38.5,57.8c0,5.4-4.6,10-10,9.9c-5.4,0-9.9-4.6-9.9-10c0.1-5.5,4.5-9.9,10-9.8C34,47.9,38.5,52.4,38.5,57.8z"
			/>
		<path class="st0" d="M34.5,70.8c0,6.2,0,12.6,0,19c-1.9-2-3.8-3.9-5.8-5.9c-2,2.1-3.9,4.1-5.8,6c-0.1,0-0.2-0.1-0.2-0.1
			c0-6.3,0-12.7,0-18.9c1.9,0.3,3.9,0.8,5.9,0.8C30.5,71.6,32.4,71.1,34.5,70.8z"/>
	</g>
</g>
</svg>
