<?xml version="1.0" encoding="utf-8"?>
<!-- Generator: Adobe Illustrator 22.1.0, SVG Export Plug-In . SVG Version: 6.00 Build 0)  -->
<svg version="1.1" id="Layer_1" xmlns="http://www.w3.org/2000/svg" xmlns:xlink="http://www.w3.org/1999/xlink" x="0px" y="0px"
	 viewBox="0 0 100 100" style="enable-background:new 0 0 100 100;" xml:space="preserve">
<style type="text/css">
	.st0{fill:#1A3E6F;}
</style>
<g>
	<path class="st0" d="M75.5,84.8c-0.9-0.1-2.4-0.4-3.9-0.6c-3.3-0.6-4.6,0-6.3,3c-0.8,1.4-1.5,2.8-2.4,4.1c-1.4,2.1-2.8,2.4-5,1.1
		c-1.3-0.8-2.6-1.7-3.8-2.6c-2.9-1.9-4.2-2-7.1,0c-1.3,0.9-2.5,1.8-3.8,2.6c-2.2,1.3-3.7,0.9-5.1-1.1c-0.9-1.4-1.7-2.9-2.5-4.3
		c-1.6-2.7-2.9-3.2-6-2.8c-1.6,0.3-3.3,0.6-4.9,0.7c-2.4,0.1-3.5-0.8-3.8-3.1c-0.3-1.8-0.4-3.5-0.5-5.3c-0.1-2.4-1.3-3.9-3.6-4.6
		c-1.6-0.5-3.3-0.9-4.9-1.5c-2.6-1-3.3-2.4-2.4-5c0.5-1.6,1.2-3.1,1.8-4.6c0.9-2.3,0.5-4.2-1.3-5.8c-1.2-1-2.4-2.1-3.5-3.2
		c-2.1-2.1-2.1-3.9,0-6c1.1-1.1,2.2-2.1,3.4-3.1c2-1.7,2.4-3.7,1.4-6.1c-0.6-1.4-1.2-2.8-1.6-4.2c-1-2.9-0.3-4.4,2.6-5.4
		c1.5-0.5,3.1-1,4.6-1.4c2.3-0.7,3.4-2.2,3.5-4.5c0.1-1.8,0.2-3.6,0.5-5.3c0.3-2.3,1.5-3.3,3.8-3.2c1.6,0.1,3.2,0.4,4.8,0.6
		c3.3,0.5,4.5,0,6.2-2.9c0.7-1.2,1.4-2.5,2.1-3.7c1.7-2.6,3.2-2.9,5.8-1.3c1.3,0.8,2.5,1.7,3.7,2.5c2.1,1.5,4.2,1.6,6.4,0
		c1.2-0.9,2.4-1.8,3.7-2.6c2.6-1.6,4.2-1.3,5.8,1.3c0.8,1.2,1.4,2.5,2.2,3.8c1.7,2.8,2.9,3.4,6.1,2.9c1.5-0.2,3-0.5,4.6-0.6
		c2.6-0.2,3.8,0.7,4.1,3.3c0.2,1.7,0.3,3.5,0.4,5.2c0.1,2.3,1.2,3.8,3.4,4.5c1.6,0.5,3.1,0.9,4.6,1.4c3,1,3.7,2.5,2.7,5.5
		c-0.6,1.6-1.2,3.2-1.8,4.8c-0.8,2-0.3,3.7,1.2,5.1c1.1,1,2.2,2,3.3,3c2.7,2.6,2.7,4.3,0,7c-1,1-2.1,1.9-3.1,2.9
		c-1.7,1.5-2.2,3.3-1.3,5.4c0.6,1.5,1.3,3.1,1.8,4.6c1,2.9,0.3,4.4-2.6,5.5c-1.6,0.6-3.2,1-4.9,1.5c-2.1,0.6-3.2,2.1-3.3,4.3
		c-0.1,1.8-0.2,3.6-0.5,5.3C79.8,84,78.7,84.9,75.5,84.8z M50.4,22.8c-14.2,0-25.8,11.5-25.8,25.7c0,14.2,11.5,25.8,25.5,25.9
		c14.5,0,26-11.5,26-26C76.2,34.3,64.6,22.8,50.4,22.8z"/>
	<path class="st0" d="M46.9,50.9c0.9-1,1.7-1.9,2.6-2.7c3.4-3.3,6.7-6.7,10.1-10c1.4-1.3,3-1.6,4.6-0.8c1.5,0.7,2.4,2.2,2.1,3.9
		c-0.1,0.8-0.5,1.8-1.1,2.3c-6,6-12.1,12-18.2,17.9c-0.1,0.1-0.1,0.1-0.4,0.2c-2.9-2.9-5.8-5.8-8.7-8.7c-0.7-0.7-1.5-1.5-2.2-2.2
		c-1.5-1.6-1.5-4,0-5.5c1.5-1.5,3.9-1.5,5.5,0C43.1,47,44.9,48.9,46.9,50.9z"/>
</g>
</svg>
