<?xml version="1.0" encoding="utf-8"?>
<!-- Generator: Adobe Illustrator 22.1.0, SVG Export Plug-In . SVG Version: 6.00 Build 0)  -->
<svg version="1.1" id="Layer_1" xmlns="http://www.w3.org/2000/svg" xmlns:xlink="http://www.w3.org/1999/xlink" x="0px" y="0px"
	 viewBox="0 0 100 100" style="enable-background:new 0 0 100 100;" xml:space="preserve">
<style type="text/css">
	.st0{fill:#5EBF8F;}
	.st1{fill:none;}
</style>
<g>
	<g>
		<path class="st0" d="M23.6,49.3c0-2.2,0-4.2,0-6.4c2.2,0,4.3,0,6.5,0c0,2.1,0,4.2,0,6.4C27.9,49.3,25.9,49.3,23.6,49.3z"/>
		<path class="st0" d="M34.6,42.9c2.2,0,4.3,0,6.4,0c0,2.2,0,4.2,0,6.4c-2.2,0-4.2,0-6.4,0C34.6,47.2,34.6,45.1,34.6,42.9z"/>
		<path class="st0" d="M52,42.9c0,2.1,0,4.1,0,6.3c-2.1,0-4.2,0-6.5,0c0-2.1,0-4.1,0-6.3C47.7,42.9,49.8,42.9,52,42.9z"/>
		<path class="st0" d="M23.6,64.8c2.2,0,4.2,0,6.5,0c0,2.1,0,4.2,0,6.4c-2.1,0-4.2,0-6.5,0C23.6,69.1,23.6,67.1,23.6,64.8z"/>
		<path class="st0" d="M52.1,71.3c-2.2,0-4.3,0-6.5,0c0-2.1,0-4.2,0-6.4c2.1,0,4.2,0,6.5,0C52.1,67,52.1,69,52.1,71.3z"/>
		<path class="st0" d="M30.1,53.9c0,2.2,0,4.2,0,6.3c-2.2,0-4.2,0-6.4,0c0-2.1,0-4.1,0-6.3C25.8,53.9,27.9,53.9,30.1,53.9z"/>
		<path class="st0" d="M64.3,76.6c1-1,2.2-2.1,3.4-3.3c1.6,1.6,3.2,3.2,4.9,4.9c2.8-2.8,5.5-5.6,8.3-8.4c1.3,1.5,2.3,2.7,3.2,3.7
			c-3.7,3.7-7.6,7.6-11.5,11.5C70.1,82.4,67.2,79.6,64.3,76.6z"/>
	</g>
	<path class="st0" d="M34.6,64.8c2.2,0,4.2,0,6.5,0c0,2.1,0,4.2,0,6.4c-2.1,0-4.2,0-6.5,0C34.6,69.1,34.6,67.1,34.6,64.8z"/>
	<path class="st0" d="M41.1,53.9c0,2.2,0,4.2,0,6.3c-2.2,0-4.2,0-6.4,0c0-2.1,0-4.1,0-6.3C36.8,53.9,38.8,53.9,41.1,53.9z"/>
	<path class="st0" d="M52,53.9c0,2.2,0,4.2,0,6.3c-2.2,0-4.2,0-6.4,0c0-2.1,0-4.1,0-6.3C47.7,53.9,49.8,53.9,52,53.9z"/>
	<path class="st0" d="M62.8,42.9c0,2.1,0,4.1,0,6.3c-2.1,0-4.2,0-6.5,0c0-2.1,0-4.1,0-6.3C58.5,42.9,60.6,42.9,62.8,42.9z"/>
	<path class="st0" d="M62.8,53.9c0,2.2,0,4.2,0,6.3c-2.2,0-4.2,0-6.4,0c0-2.1,0-4.1,0-6.3C58.5,53.9,60.6,53.9,62.8,53.9z"/>
	<g>
		<path class="st1" d="M74.1,62.8c-7.9-0.1-14.3,6.1-14.5,14.1c-0.2,7.9,6.2,14.5,14,14.7c8,0.1,14.7-6.2,14.8-14.1
			C88.5,69.4,82.2,62.9,74.1,62.8z"/>
		<path class="st1" d="M61.1,21.1c0.1,0,0.3,0,0.4,0c0.8,0,1.1-0.3,1.1-1.1c0-1.4,0-2.8,0-4.2c0,0,0,0,0,0c0-0.6,0-1.3,0-1.9
			c0-4,0.4-3.8-3.9-3.8c-1.5,0-1.9,0.3-1.9,1.8c-0.1,1.7,0,3.4,0,5C56.9,21.8,56,21,61.1,21.1z"/>
		<path class="st1" d="M60.9,60.5c3.2-2.7,6.1-3.9,10.1-4.6c0.8-0.1,1.4-0.8,1.4-1.6c0,0,0,0,0,0c0-6,0-12.1,0-18.1
			c0-2,0-2.1-2.1-2.1c-18,0-35.9,0-53.9,0c-0.2,0-0.3,0-0.5,0c-0.8,0.1-1.5,0.7-1.5,1.6c0,0.1,0,0.1,0,0.2c0,14.3,0,28.5,0,42.8
			c0,1.9,0,1.9,2,1.9c11.6,0,23.2,0,34.8,0c0.1,0,0.2,0,0.3,0c0.9,0,1.6-0.8,1.5-1.7C52.5,71.6,55.1,65.6,60.9,60.5z"/>
		<path class="st0" d="M83.3,58.3c-2.4-1.2-2.2-2.5-2.2-3.4c0.1-12.1,0-24.1,0-36.2c0-0.5,0-1,0-1.5c-0.1-2.2-1.1-3.4-3.4-3.5
			c-1.9-0.1-3.8,0-5.7,0c-0.6,0-1.1,0-1.7,0c-0.8,0-1.1-0.3-1.1-1.1c0-0.8,0-1.7-0.2-2.5c-0.6-3.2-2.4-5.3-5.5-6.2
			c-0.2-0.1-0.6-0.2-0.8-0.2c-0.3-0.1-1.7-0.2-1.9-0.2l-2.9,0c-0.3,0-1.3,0.1-1.7,0.2c-0.1,0-0.5,0.1-0.6,0.2
			c-3.6,1.4-5.5,3.9-5.6,7.8c0,2,0.1,2.1-2.1,2.1c-3.4,0-6.7,0-10.1,0c-0.8,0-1.4-0.1-1.4-1.1c0.2-3.9-1.4-6.9-4.5-8.3
			c-0.1-0.1-0.8-0.2-1.2-0.3c-3.3-0.3-6.1-0.2-7.6-0.1c-0.1,0-0.2,0-0.3,0c-0.7,0.1-1,0.2-1.5,0.5c-2.5,1.4-4,3.5-4.1,6.4
			c0,0.6-0.1,1.1-0.1,1.7c0,0.9-0.4,1.2-1.3,1.2c-2.1,0-4.2,0-6.3,0c-3.4,0-4.4,1-4.4,4.4c0,22.3,0,44.7,0,67c0,0.6,0,1.3,0.1,1.9
			c0.3,1.5,1.3,2.3,2.8,2.4c0.6,0,1.3,0,1.9,0c14.8,0,29.6,0,44.5,0c1.5,0,2.4,0.4,3.4,1.5c1.5,1.7,3.2,3.2,5.1,4.3
			c2.2,1.3,4.7,2.3,7.3,2.7c2.1,0.3,4.2,0.3,6.3,0c1-0.1,2-0.3,3-0.6c0.5-0.1,1-0.3,1.4-0.5c0.5-0.2,0.9-0.3,1.4-0.5
			c0,0,0.1,0,0.1-0.1c1.8-0.8,3.4-1.8,4.9-3.1c1.5-1.2,2.8-2.7,3.8-4.3c1.1-1.7,1.9-3.5,2.5-5.3c0.5-1.6,0.8-3.2,1-4.9
			C95.6,70.5,91.4,62.4,83.3,58.3z M56.8,11.9c0.1-1.5,0.4-1.8,1.9-1.8c4.4,0,3.9-0.2,3.9,3.8c0,0.6,0,1.3,0,1.9c0,0,0,0,0,0
			c0,1.4,0,2.8,0,4.2c0,0.8-0.3,1.2-1.1,1.1c-0.1,0-0.3,0-0.4,0c-5-0.1-4.2,0.7-4.3-4.1C56.7,15.3,56.7,13.6,56.8,11.9z M24,12
			c0.1-1.5,0.4-1.8,1.9-1.8c4.4,0,3.9-0.2,3.9,3.8c0,0.6,0,1.3,0,1.9c0,0,0,0,0,0c0,1.4,0,2.8,0,4.2c0,0.8-0.3,1.2-1.1,1.1
			c-0.1,0-0.3,0-0.4,0C23.2,21,24,21.9,24,17C23.9,15.3,23.9,13.7,24,12z M52.9,78.8c0.1,0.9-0.6,1.7-1.5,1.7c-0.1,0-0.2,0-0.3,0
			c-11.6,0-23.2,0-34.8,0c-2,0-2,0-2-1.9c0-14.3,0-28.5,0-42.8c0-0.1,0-0.1,0-0.2c0-0.8,0.7-1.5,1.5-1.6c0.2,0,0.3,0,0.5,0
			c18,0,35.9,0,53.9,0c2.1,0,2.1,0,2.1,2.1c0,6,0,12.1,0,18.1c0,0,0,0,0,0c0,0.8-0.6,1.5-1.4,1.6c-4,0.7-6.9,1.9-10.1,4.6
			C55.1,65.6,52.5,71.6,52.9,78.8z M73.6,91.5c-7.8-0.1-14.2-6.8-14-14.7c0.2-8,6.6-14.2,14.5-14.1c8,0.1,14.4,6.6,14.3,14.6
			C88.2,85.3,81.6,91.6,73.6,91.5z"/>
	</g>
</g>
</svg>
