<?xml version="1.0" encoding="utf-8"?>
<!-- Generator: Adobe Illustrator 22.1.0, SVG Export Plug-In . SVG Version: 6.00 Build 0)  -->
<svg version="1.1" id="Layer_1" xmlns="http://www.w3.org/2000/svg" xmlns:xlink="http://www.w3.org/1999/xlink" x="0px" y="0px"
	 viewBox="0 0 100 100" style="enable-background:new 0 0 100 100;" xml:space="preserve">
<style type="text/css">
	.st0{fill:#1A3E6F;}
</style>
<g>
	<path class="st0" d="M49.4,2c0.5,0.3,1.1,0.5,1.6,0.9c0.9,0.7,1.5,1.7,1.5,3c0,5.8,0,11.7,0,17.5c0,0.3,0,0.6,0.2,0.9
		c0,0.1,0.5,0.2,0.6,0.1c0.2-0.1,0.3-0.4,0.3-0.6c0.2-2.2,0.4-4.5,0.5-6.7c0.3-3.7,0.5-7.4,0.8-11.1c0-0.1,0-0.2,0.1-0.5
		c0.4,0.1,0.7,0.2,1.1,0.3c4.3,1.6,7.3,4.6,9.3,8.6c1.1,2.3,1.9,4.7,2.8,7.1c0.2,0.5,0.4,0.9,1,1.1c1.3,0.4,2,1.7,1.8,3
		c-0.2,1.3-1.2,2.2-2.7,2.3c-0.2,0-0.4,0-0.6,0c-12.1,0-24.2,0-36.3,0c-1.7,0-2.7-0.7-3-2.1c-0.4-1.3,0.3-2.9,1.7-3.3
		c0.8-0.2,1-0.7,1.1-1.4c0.6-3.9,1.8-7.6,4.2-10.8c1.7-2.3,3.9-3.9,6.6-4.9c0.4-0.1,0.7-0.2,1.2-0.3c0.1,1.7,0.2,3.3,0.3,4.9
		c0.3,4.5,0.6,9,0.9,13.5c0,0.3,0.3,0.8,0.5,0.8c0.6,0.1,0.6-0.4,0.6-0.8c0-5.8,0-11.6,0-17.4c0-2,0.9-3.3,2.6-4
		c0.1,0,0.2-0.1,0.3-0.2C48.6,2,49,2,49.4,2z"/>
	<path class="st0" d="M16.4,75.4c0.1-3.7,0.9-7.1,2.9-10.2c2.6-3.8,6.2-6.2,10.5-7.7c3.2-1.1,6.5-1.9,9.8-2.9
		c1.4-0.4,2.7-0.8,3.9-1.9c-9.7-5-13.1-13.3-12.6-23.8c0.6,0,0.9,0,1.3,0c11.7,0,23.3,0,35,0c1.3,0,1.3,0,1.3,1.2
		c0.3,7.2-1.7,13.6-7,18.7c-1.2,1.2-2.8,2.2-4.3,3.3c0.4,0.3,0.8,0.9,1.3,1.1c1.2,0.6,2.5,1.1,3.8,1.4c4.2,1.1,8.3,2.1,12.1,4.1
		c4,2.1,7.1,4.9,8.9,9.2c1,2.4,1.3,4.8,1.4,7.4c-9,0-17.9,0-26.9,0c0.1-0.2,0.2-0.3,0.3-0.4c1.7-1.7,3.3-3.5,5.1-5.1
		c0.7-0.6,1.8-1,2.7-1.3c1.4-0.5,2.3-1.4,2.8-2.8c0.3-1,0.8-2,1.2-3c0.5-1.3,0.2-2.4-0.7-3.4c-0.7-0.8-1.5-1.5-2.2-2.2
		c-0.9-0.9-2.1-1.1-3.3-0.7c-1.3,0.5-2.6,0.9-3.8,1.6c-0.7,0.4-1.5,1.1-1.7,1.8c-0.8,2.5-2.3,4.3-4.2,6c-1.3,1.2-2.6,2.6-3.9,3.8
		c-0.7-0.7-1.3-1.2-1.9-1.9c-0.2-0.2-0.2-0.6-0.2-1c0.1-5.3-3.3-9.4-8.5-10.1c-2-0.3-4,0.2-5.7,1.2c-2.1,1.2-2.2,4-0.1,5.4
		c1.2,0.8,2.5,1.5,3.6,2.4c-0.2-0.1-0.4-0.1-0.6-0.2c-1-0.6-2-1.2-3-1.7c-1.1-0.7-2.2-0.7-3.3,0c-1.1,0.7-1.5,1.7-1.4,3
		c0.3,3.9,2.1,6.7,5.6,8.4c0.1,0.1,0.3,0.1,0.4,0.2c0,0,0,0,0.2,0.1C28.9,75.4,22.8,75.4,16.4,75.4z"/>
	<path class="st0" d="M64.7,95.7c-1.4,0.8-2.8,1-4.3,0.8c-3.6-0.7-5.9-4-5.3-7.7c0.1-0.4,0-1.1-0.3-1.4c-2.1-2.3-4.3-4.6-6.6-7
		c-0.3,0.4-0.6,0.7-0.9,1.1c1.1,1.6,0.4,2.9-0.9,4.2c-3.6,3.5-7.1,7.1-10.7,10.7c-1.7,1.7-2.8,1.7-4.5,0c-0.5-0.5-1-0.9-1.4-1.4
		c-1.3-1.3-1.3-2.7,0-3.9c2.3-2.4,4.7-4.7,7-7.1c1.4-1.4,2.8-2.8,4.2-4.2c1.4-1.4,2.2-1.6,4.1-0.7c0.3-0.3,0.6-0.6,1-0.9
		c-1.8-1.8-3.5-3.6-5.2-5.3c-0.3-0.3-0.9-0.3-1.3-0.2c-3.4,0.6-6.7-1.6-7.4-5c-0.1-0.4-0.1-0.7-0.1-1.3c1.5,0.8,2.7,1.6,4,2.3
		c2.3,1.3,2.4,1.3,3.8-1c0.4-0.6,0.7-1.2,1.1-1.8c0.5-1,0.4-1.7-0.6-2.2c-1.3-0.8-2.7-1.6-4.1-2.4c-0.3-0.2-0.5-0.3-0.8-0.5
		c2.3-1.6,5.9-1,7.9,1.3c1.4,1.6,1.8,3.4,1.6,5.5c-0.1,0.5,0,1.2,0.3,1.6c1.5,1.7,3.1,3.3,4.8,5.1c0.3-0.3,0.6-0.5,0.8-0.7
		c2.2-2.2,4.3-4.4,6.6-6.6c1.5-1.4,2.7-2.9,3.2-4.9c0.2-0.8,0.7-1.3,1.5-1.5c0.2-0.1,0.4-0.2,0.6-0.3c2.3-0.9,2.3-0.9,3.9,1
		c0.2,0.2,0.3,0.7,0.2,1c-0.3,0.9-0.7,1.9-1.1,2.8c-0.1,0.3-0.5,0.6-0.8,0.7c-2.5,0.7-4.3,2.3-6,4.1c-2.1,2.3-4.4,4.4-6.7,6.7
		c0.2,0.3,0.4,0.5,0.6,0.7c1.8,1.9,3.7,3.8,5.5,5.7c0.7,0.7,1.4,1,2.4,0.8c3.4-0.5,6.7,2,7.1,5.4c0,0.2,0,0.5,0,0.9
		c-1.6-0.9-3.1-1.8-4.6-2.7c-1.5-0.9-2-0.7-2.8,0.8c-0.5,0.8-0.9,1.5-1.3,2.3c-0.6,1.1-0.5,1.7,0.6,2.4C61.4,93.7,63,94.7,64.7,95.7
		z"/>
</g>
</svg>
