<?xml version="1.0" encoding="utf-8"?>
<!-- Generator: Adobe Illustrator 22.1.0, SVG Export Plug-In . SVG Version: 6.00 Build 0)  -->
<svg version="1.1" id="Layer_1" xmlns="http://www.w3.org/2000/svg" xmlns:xlink="http://www.w3.org/1999/xlink" x="0px" y="0px"
	 viewBox="0 0 125 75" style="enable-background:new 0 0 125 75;" xml:space="preserve">
<style type="text/css">
	.st0{fill:#FFFFFF;}
</style>
<g id="_0">
	<g id="_42253856">
		<path id="_170829896" d="M62.8,35.7c-0.2,0-0.4,0.2-0.4,0.2l-4,3.8c-1.5,1.4-3.4,0.8-3.6,0.8l-16.9-4.6c-3.2-1-3.9-2-4.4-3.3
			c0,0-0.3-0.8-1-1l-20.7-6.1c-0.8-0.3-1.3-0.5-1.7-1.1l-1.1-2c-0.3-0.5-0.7-0.5-0.8-0.5c-1.6-0.2-2-1.1-2.2-1.5l-0.9-1.6
			c-0.3-0.5-0.7-0.5-0.7-0.6c-0.9-0.1-1.3-0.3-1.7-0.9L2,15.7c-0.5-0.8-0.3-1.4-0.1-1.7c0.5-0.7,1.2-0.8,1.5-0.8h49.4
			c1.4,0,2.5,0.4,3.4,1.3c0.6,0.6,1,1.4,1.2,2.3c0,0,0.1,0.2,0.5,0.2h9.8c0.4,0,0.5-0.2,0.5-0.2c0.2-0.9,0.6-1.7,1.2-2.3
			c0.8-0.8,2-1.3,3.4-1.3h49.4c0.3,0,1.1,0.1,1.5,0.8c0.2,0.3,0.4,0.9-0.1,1.8l-0.9,1.5c-0.4,0.6-0.8,0.8-1.7,0.9c0,0-0.4,0-0.7,0.6
			l-0.9,1.6c-0.2,0.4-0.6,1.2-2.2,1.5c0,0-0.5,0-0.8,0.5l-1.1,2c-0.3,0.6-0.8,0.9-1.7,1.1l-20.7,6.1c-0.7,0.2-1,1-1,1
			c-0.5,1.3-1.1,2.3-4.4,3.3l-16.9,4.6c-0.2,0.1-2.1,0.7-3.6-0.8c0,0-3.9-3.8-4-3.8C63.2,35.9,63,35.7,62.8,35.7L62.8,35.7
			L62.8,35.7z"/>
		<path id="_170829840" class="st0" d="M69.1,17c0.2-0.8,0.5-1.4,1-1.9c0.7-0.7,1.6-1,2.7-1c0,0,11,0,22.7,0
			c-0.8,0.6-1.2,1.3-1.2,1.4c-0.3,0.5-0.6,1.1-1,1.7H69C69.1,17.1,69.1,17,69.1,17L69.1,17L69.1,17z M122.9,15.3
			c0,0-0.9,1.5-0.9,1.5c-0.2,0.3-0.3,0.4-0.9,0.5H94.1c0.3-0.5,0.6-1,0.8-1.4c0,0,1-1.7,2.7-1.7h24.6c0.3,0,0.6,0,0.8,0.3
			c0,0,0.1,0.1,0.1,0.3C123,14.9,123,15,122.9,15.3L122.9,15.3L122.9,15.3z M119.6,18.2l-0.9,1.7c-0.1,0.2-0.3,0.6-0.9,0.8
			c-0.5,0.1-1.6,0-1.9,0l-22.9-1.5c0.3-0.5,0.6-0.9,0.8-1.3h26.1C119.7,18,119.6,18.1,119.6,18.2L119.6,18.2L119.6,18.2z
			 M115.7,21.8c0,0-0.9,1.6-1.1,1.9c0,0.1-0.3,0.3-1.1,0.2l-21.9-2.9c0.3-0.4,0.6-0.8,0.9-1.2l23.3,1.5c0,0,0.2,0,0.3,0
			C115.8,21.6,115.8,21.7,115.7,21.8L115.7,21.8L115.7,21.8z M108.1,26.1c-0.8,0.2-2.4,0-3-0.2c0,0-10.3-2.1-15.1-3.1
			c0.3-0.4,0.6-0.8,0.9-1.2l22,3L108.1,26.1L108.1,26.1L108.1,26.1z M100.7,28.3c-1.1,0.3-2.4-0.2-2.4-0.2l0,0l0,0L88.1,25
			c0.5-0.5,1-1,1.4-1.5l15.5,3.2c0,0,0.3,0.1,0.8,0.2L100.7,28.3L100.7,28.3L100.7,28.3z M92.8,30.6c-0.7,0.2-1.8-0.2-2.1-0.4
			c0,0-2.7-1.3-5.5-2.6c0.8-0.7,1.6-1.4,2.3-2.1L98,28.8c0,0,0.2,0.1,0.5,0.2L92.8,30.6L92.8,30.6z M91.2,32.2
			c-0.3,0.8-0.6,1.6-2.8,2.4c-0.9,0.3-2-0.5-2-0.5s-2.4-1.7-5.1-3.6c1.1-0.7,2.2-1.4,3.2-2.3l5.8,2.7c0,0,0.6,0.3,1.4,0.5
			C91.4,31.7,91.2,32.1,91.2,32.2L91.2,32.2L91.2,32.2z M83.1,36.1l-0.8,0.2c-0.7,0.2-1.5-0.5-1.8-0.8c0,0-1.3-1.4-3-3.1
			c1.1-0.5,2.1-1,3.1-1.6l5.4,3.8c0,0,0.3,0.3,0.8,0.5C85.6,35.4,83.1,36.1,83.1,36.1L83.1,36.1z M76,38c-0.6,0.1-1.2-0.8-1.4-1.2
			L73,34.1c1.3-0.4,2.6-0.8,3.9-1.4L80,36c0,0,0.4,0.4,0.9,0.7L76,38L76,38L76,38z M70.6,39.5c-0.4,0.1-0.7,0-1-0.1
			c-0.6-0.4-0.8-1.2-0.8-1.2l-0.8-3c1.4-0.2,2.9-0.5,4.2-0.9l1.7,2.9c0.1,0.1,0.4,0.7,0.9,1.1L70.6,39.5L70.6,39.5L70.6,39.5z
			 M67.2,38.4c0,0-2.3-2.2-3.1-2.9c1.1,0,2.2-0.1,3.2-0.2l0.8,3c0,0.1,0.2,0.8,0.7,1.3C68.2,39.4,68,39.2,67.2,38.4L67.2,38.4z
			 M63.2,34.8v-9.3h1.5l2.5,9C65.8,34.7,64.5,34.8,63.2,34.8z M58.5,34.5l2.5-9h1.5v9.2C61.1,34.8,59.8,34.7,58.5,34.5L58.5,34.5
			L58.5,34.5z M57.8,39c-0.3,0.3-0.7,0.5-1.1,0.6c0.5-0.5,0.6-1.2,0.7-1.3l0.8-3c1.1,0.1,2.1,0.2,3.2,0.2C60.6,36.3,57.8,39,57.8,39
			L57.8,39z M56.7,38.1c0,0-0.2,0.9-0.8,1.2c-0.3,0.2-0.6,0.2-1,0.1l-4.2-1.2c0.5-0.4,0.9-1,0.9-1.1c0,0,0.7-1.2,1.7-2.9
			c1.4,0.4,2.8,0.6,4.2,0.8L56.7,38.1L56.7,38.1L56.7,38.1z M49.6,38l-4.9-1.3c0.5-0.3,0.9-0.6,0.9-0.7c0,0,1.4-1.5,3.2-3.3
			c1.2,0.5,2.6,1,3.9,1.4L51,36.9C50.8,37.2,50.2,38.1,49.6,38L49.6,38L49.6,38z M43.3,36.3l-4.5-1.2c0.5-0.2,0.8-0.4,0.8-0.5
			c0,0,2.5-1.8,5.3-3.8c1,0.6,2.1,1.1,3.1,1.6l-3,3.1C44.8,35.8,44,36.5,43.3,36.3L43.3,36.3L43.3,36.3z M37.2,34.6
			c-2.1-0.8-2.4-1.6-2.7-2.4c0-0.1-0.2-0.5-0.5-0.9c0.7-0.2,1.3-0.5,1.4-0.5c0,0,2.9-1.4,5.8-2.7c1.1,0.8,2.1,1.6,3.2,2.3l-5.1,3.6
			C39.1,34.1,38.1,34.8,37.2,34.6z M32.8,30.6c-0.2-0.1-2.6-0.8-5.7-1.7c0.3-0.1,0.5-0.1,0.5-0.2c0,0,8.5-2.6,10.4-3.2
			c0.7,0.7,1.5,1.4,2.3,2.1l-5.4,2.6C34.6,30.4,33.5,30.8,32.8,30.6L32.8,30.6L32.8,30.6z M24.9,28.3c-1.7-0.5-3.5-1-5.1-1.5
			c0.5-0.1,0.8-0.1,0.8-0.2c0,0,10.9-2.3,15.5-3.2c0.5,0.5,0.9,1,1.4,1.5l-10.1,3.1C27.4,28.1,26,28.6,24.9,28.3L24.9,28.3
			L24.9,28.3z M17.5,26.1c-2.3-0.7-4.1-1.2-4.9-1.4l22-3c0.3,0.4,0.6,0.8,0.9,1.2l-15,3.1C19.9,26.1,18.3,26.3,17.5,26.1L17.5,26.1
			L17.5,26.1z M12.2,24c-0.8,0.1-1.1-0.2-1.1-0.2l-1.1-1.9c-0.1-0.2-0.2-0.3-0.3-0.4c0.2,0,23.6-1.6,23.6-1.6
			c0.3,0.4,0.6,0.8,0.9,1.2L12.2,24L12.2,24L12.2,24z M7.9,20.7c-0.6-0.2-0.8-0.6-0.9-0.8c-0.4-0.6-0.9-1.6-1.1-2h26.1
			c0.3,0.4,0.5,0.8,0.8,1.3L9.9,20.7C9.5,20.8,8.5,20.8,7.9,20.7L7.9,20.7L7.9,20.7z M4.6,17.2c-0.6,0-0.8-0.1-1-0.5
			c0,0-0.8-1.4-0.9-1.5c-0.1-0.3-0.2-0.5-0.2-0.6c0-0.3,0.2-0.6,0.8-0.6H28c1.7,0,2.7,1.7,2.7,1.7c0.2,0.4,0.5,0.9,0.8,1.4L4.6,17.2
			L4.6,17.2L4.6,17.2z M52.8,14.1c1.2,0,2.1,0.3,2.7,1c0.5,0.5,0.8,1.1,1,1.9c0,0,0,0.1,0.1,0.2H32.3c-0.4-0.6-1-1.7-1-1.7
			c0,0-0.5-0.8-1.2-1.4C41.8,14.1,52.8,14.1,52.8,14.1L52.8,14.1L52.8,14.1z M88,18.9v-0.9h4.8c-0.3,0.4-0.5,0.8-0.8,1.2L88,18.9
			L88,18.9z M88,20.6v-1l3.5,0.2c-0.3,0.4-0.5,0.7-0.8,1.1L88,20.6L88,20.6z M88,22.4v-1.1l2.2,0.3c-0.3,0.4-0.6,0.7-0.9,1.1
			C88.7,22.6,88.3,22.5,88,22.4L88,22.4z M88,23.2l0.7,0.2c-0.2,0.3-0.5,0.5-0.7,0.8C88,24.1,88,23.2,88,23.2z M80.7,25.5h5.9
			c-0.6,0.6-2,1.8-2.1,1.8C83,26.7,81.6,26,80.7,25.5L80.7,25.5z M74.5,25.5H79l4.9,2.3c-1,0.8-2.1,1.5-3.1,2.1
			C78.4,28.3,75.9,26.5,74.5,25.5L74.5,25.5L74.5,25.5z M70.9,25.5h2.4l6.7,4.8c-1,0.6-2,1.1-3,1.5C74.8,29.6,72.1,26.8,70.9,25.5
			L70.9,25.5z M67.9,25.5h2l6.4,6.7c-1.2,0.5-2.4,0.9-3.7,1.3L67.9,25.5L67.9,25.5L67.9,25.5z M67.1,25.5l4.8,8.2
			c-1.3,0.3-2.7,0.6-4.1,0.8l-2.5-8.9H67.1L67.1,25.5z M58.5,25.5h1.7l-2.5,8.9c-1.4-0.2-2.7-0.5-4.1-0.8
			C55.5,30.6,57.9,26.5,58.5,25.5L58.5,25.5z M55.7,25.5h2L53,33.5c-1.3-0.3-2.5-0.8-3.7-1.3C51.8,29.5,54.9,26.3,55.7,25.5
			L55.7,25.5L55.7,25.5z M52.3,25.5h2.4l-6.1,6.3c-1-0.5-2-1-3-1.5C48.5,28.3,51.5,26.1,52.3,25.5L52.3,25.5z M41.1,27.3
			c0,0-1.5-1.2-2.1-1.8H45L41.1,27.3L41.1,27.3z M46.6,25.5h4.4L44.9,30c-1.1-0.6-2.1-1.4-3.1-2.1C44.1,26.7,46.2,25.7,46.6,25.5
			L46.6,25.5L46.6,25.5z M37.6,23.2v0.9c-0.2-0.3-0.5-0.5-0.7-0.8C37.2,23.3,37.4,23.2,37.6,23.2z M37.6,21.3v1.1l-1.2,0.3
			c-0.3-0.4-0.6-0.8-0.9-1.1L37.6,21.3L37.6,21.3z M37.6,19.6v1L34.9,21c-0.3-0.4-0.6-0.8-0.8-1.1L37.6,19.6L37.6,19.6L37.6,19.6z
			 M37.6,18.9l-4,0.3c-0.3-0.4-0.6-0.8-0.8-1.2h4.8L37.6,18.9L37.6,18.9L37.6,18.9z"/>
		<path id="_170831360" class="st0" d="M38.3,24.8L38.3,24.8v-6.9h49v6.9l0,0H38.3L38.3,24.8L38.3,24.8z"/>
		<path id="_171137640" d="M41.6,19h-0.2l-2.1,4.7h0.6v0c0.2-0.6,0.4-1.1,0.6-1.7c0,0,0-0.1,0-0.1c0,0,1.6,0,1.6,0
			c0.2,0.5,0.5,1.1,0.7,1.8v0h0.8L41.6,19L41.6,19L41.6,19z M40.6,21.6c0-0.1,0.6-1.4,0.7-1.5c0.1,0.2,0.6,1.4,0.7,1.5
			C41.9,21.6,40.8,21.6,40.6,21.6L40.6,21.6L40.6,21.6z"/>
		<path id="_171199256" d="M43.8,23.4L43.8,23.4c0.3,0.3,0.8,0.4,1.1,0.4c1,0,1.7-0.6,1.7-1.5c0-0.8-0.6-1-1.1-1.2
			c-0.5-0.2-0.9-0.4-0.9-0.9c0-0.4,0.3-0.7,0.8-0.7c0.4,0,0.6,0.2,0.8,0.6v0h0.1l0.2-0.6l0,0c-0.3-0.2-0.7-0.3-1-0.3
			c-0.9,0-1.5,0.5-1.5,1.3c0,0.8,0.6,1.1,1.1,1.2c0.5,0.2,0.9,0.4,0.9,0.9c0,0.5-0.4,0.9-0.9,0.9c-0.5,0-0.8-0.2-1.1-0.7l0,0h-0.1
			L43.8,23.4L43.8,23.4L43.8,23.4z"/>
		<path id="_171234112" d="M50.3,19.1h-3.5v0.5h0c0.4,0,0.8-0.1,1.4-0.1c0,0.1,0,4.2,0,4.2H49c0,0,0-4.1,0-4.2c0.5,0,0.9,0,1.3,0.1
			h0V19.1L50.3,19.1L50.3,19.1z"/>
		<path id="_171242176" d="M52.7,19c-1.5,0-2.5,1-2.5,2.4s1,2.4,2.5,2.4c1.5,0,2.6-1,2.6-2.5C55.2,19.7,53.9,19,52.7,19L52.7,19z
			 M53.9,23c-0.3,0.3-0.8,0.5-1.2,0.5c-1.1,0-1.8-0.8-1.8-2c0-1.4,0.7-2.2,1.8-2.2c0.5,0,1,0.2,1.4,0.6c0.3,0.5,0.4,0.9,0.4,1.4
			c0,0,0,0.1,0,0.1C54.5,21.9,54.3,22.5,53.9,23L53.9,23L53.9,23z"/>
		<path id="_171242152" d="M59.8,19.1h-0.4c0,0,0,3.3,0,3.4l0,0c0,0-3.1-3.4-3.1-3.4h-0.3v4.6h0.5c0,0,0-3.5,0-3.5l0,0
			c0,0,2.8,3.2,2.8,3.2l0.3,0.4h0h0.2L59.8,19.1L59.8,19.1L59.8,19.1L59.8,19.1z"/>
		<path id="_171249360" d="M67.2,19.1H67l-1.1,2c0,0-0.7,1.3-0.8,1.4c-0.7-1.1-1.3-2.3-1.8-3.4v0h-0.2v0c-0.1,0.7-0.5,3.5-0.6,4.5v0
			H63v0c0-0.6,0.1-1.6,0.2-2.6c0,0,0-0.5,0.1-0.6c0.1,0.2,0.9,1.8,1.3,2.5l0.4,0.8h0.1v0c0.4-0.9,0.9-1.9,1.7-3.2
			c0.1,0.8,0.2,2.4,0.3,3.3v0h0.7v0C67.6,22.5,67.4,21.1,67.2,19.1L67.2,19.1L67.2,19.1L67.2,19.1L67.2,19.1z"/>
		<path id="_171205240" d="M70.3,19h-0.2L68,23.7h0.6v0c0.2-0.6,0.4-1.1,0.6-1.7c0,0,0-0.1,0-0.1c0,0,1.6,0,1.6,0
			c0.2,0.5,0.5,1.1,0.7,1.8v0h0.8L70.3,19L70.3,19L70.3,19z M69.4,21.6c0-0.1,0.6-1.4,0.7-1.5c0.1,0.2,0.6,1.4,0.7,1.5
			C70.6,21.6,69.5,21.6,69.4,21.6z"/>
		<path id="_171209080" d="M74.4,21.4c0.8-0.2,1.3-0.6,1.3-1.3c0-0.7-0.5-1.1-1.5-1.1h-1.4v4.6h0.7c0,0,0-2.1,0-2.2c0,0,0.2,0,0.2,0
			c0,0,0.5,0.6,0.5,0.6l0.8,1l0.4,0.6h0h0.8C76.2,23.7,74.5,21.5,74.4,21.4L74.4,21.4L74.4,21.4z M73.4,21.2c0-0.1,0-1.7,0-1.7
			c0.3,0,0.7,0,0.9,0c0.5,0.1,0.7,0.3,0.7,0.8c0,0.5-0.3,0.8-0.8,0.9C73.9,21.2,73.6,21.2,73.4,21.2z"/>
		<path id="_171209056" d="M79.5,19.1H76v0.5h0c0.4,0,0.8-0.1,1.4-0.1c0,0.1,0,4.2,0,4.2h0.7c0,0,0-4.1,0-4.2c0.5,0,0.9,0,1.3,0.1h0
			L79.5,19.1L79.5,19.1L79.5,19.1L79.5,19.1z"/>
		<polygon id="_171221600" points="80.1,23.7 80.7,23.7 80.7,19.1 80.1,19.1 		"/>
		<path id="_171224520" d="M85.2,19.1c0,0,0,3.3,0,3.4l0,0c0,0-3.1-3.4-3.1-3.4h-0.3v4.6h0.5c0,0,0-3.5,0-3.5l0,0
			c0,0,2.9,3.2,2.9,3.2l0.3,0.4h0.3v-4.6H85.2L85.2,19.1z"/>
		<path id="_171224496" d="M25.2,60.2c-0.3,0-0.5,0-0.7,0c-0.3,0-0.5,0-0.7,0c-0.4-1.1-0.9-2.3-1.4-3.5h-3.3
			c-0.5,1.2-0.9,2.3-1.3,3.5c-0.2,0-0.3,0-0.5,0c-0.2,0-0.3,0-0.5,0l4.1-9.2h0.3L25.2,60.2L25.2,60.2z M108.2,60.2h-0.4
			c-0.2-0.2-0.4-0.5-0.7-0.8l-5.7-6.3h-0.1v7.1c-0.2,0-0.3,0-0.4,0c-0.1,0-0.3,0-0.4,0v-8.9h0.5l6.2,6.7h0.2v-6.7c0.1,0,0.2,0,0.4,0
			c0.1,0,0.2,0,0.4,0L108.2,60.2L108.2,60.2z M97.6,51.3c0.2,0,0.4,0,0.6,0c0.2,0,0.4,0,0.6,0v8.9c-0.2,0-0.4,0-0.6,0
			c-0.2,0-0.4,0-0.6,0V51.3z M93.4,60.2c-0.2,0-0.4,0-0.6,0c-0.2,0-0.4,0-0.6,0v-8.3c-1.3,0-2.1,0.1-2.9,0.2c0-0.1,0-0.3,0-0.4
			c0-0.2,0-0.3,0-0.4h6.8c0,0.2,0,0.3,0,0.4s0,0.3,0,0.4c-0.6-0.1-1.6-0.2-2.7-0.2L93.4,60.2L93.4,60.2L93.4,60.2z M82.8,51.3h2.8
			c2,0,2.9,0.7,2.9,2c0,1.5-1.4,2.3-2.7,2.5l2.7,3.4l0.6,0.8l0.3,0.3c-0.3,0-0.5,0-0.8,0c-0.3,0-0.5,0-0.8,0
			c-0.3-0.4-0.6-0.8-0.8-1.1l-1.5-2l-1.1-1.2H84v4.4c-0.2,0-0.4,0-0.6,0s-0.4,0-0.6,0L82.8,51.3L82.8,51.3z M84,55.4
			c0.2,0,1,0.1,1.7-0.1c1-0.2,1.7-0.9,1.7-1.9c0-0.9-0.5-1.5-1.4-1.7c-0.5-0.1-1.4,0-1.9,0L84,55.4L84,55.4L84,55.4z M81.9,60.2
			c-0.3,0-0.5,0-0.7,0c-0.3,0-0.5,0-0.7,0c-0.4-1.1-0.9-2.3-1.4-3.5h-3.3c-0.5,1.2-0.9,2.3-1.3,3.5c-0.2,0-0.3,0-0.5,0
			c-0.2,0-0.3,0-0.5,0l4.1-9.2H78L81.9,60.2L81.9,60.2z M77.5,52.8l-1.4,3.3H79L77.5,52.8L77.5,52.8L77.5,52.8z M71.9,51.3
			c0.3,3.2,0.7,6.5,1.1,8.9c-0.2,0-0.4,0-0.6,0c-0.2,0-0.4,0-0.6,0c-0.2-2.6-0.5-5.4-0.7-6.8c-1.5,2.7-2.6,4.8-3.4,6.6h-0.2
			l-0.7-1.5c-0.8-1.7-1.8-3.4-2.7-5.1c-0.3,2.6-0.6,5.1-0.6,6.8c-0.2,0-0.3,0-0.5,0c-0.2,0-0.3,0-0.5,0c0.3-2.1,1.1-7.6,1.2-8.9h0.3
			c1.1,2.1,2.3,4.5,3.7,6.9c1.2-2.3,2.4-4.5,3.8-6.9H71.9L71.9,51.3L71.9,51.3z M57.1,60.2h-0.4c-0.2-0.2-0.4-0.5-0.7-0.8l-5.7-6.3
			h-0.1v7.1c-0.1,0-0.3,0-0.4,0s-0.3,0-0.4,0v-8.9H50l6.2,6.7h0.2v-6.7c0.1,0,0.2,0,0.4,0c0.1,0,0.2,0,0.4,0L57.1,60.2L57.1,60.2
			L57.1,60.2z M38.3,55.7c0-2.9,2.1-4.7,4.8-4.7c2.5,0,5,1.3,5,4.5c0,2.9-2.1,4.8-5,4.8C40.3,60.4,38.3,58.6,38.3,55.7L38.3,55.7
			L38.3,55.7z M46,52.8c-0.6-0.8-1.7-1.3-2.7-1.3c-2.3,0-3.7,1.7-3.7,4.4s1.6,4.1,3.6,4.1c2.8,0,3.8-2.9,3.7-4.3
			C46.8,54.6,46.7,53.6,46,52.8L46,52.8L46,52.8z M35.7,60.2c-0.2,0-0.4,0-0.6,0c-0.2,0-0.4,0-0.6,0v-8.3c-1.3,0-2.1,0.1-2.9,0.2
			c0-0.1,0-0.3,0-0.4c0-0.2,0-0.3,0-0.4h6.8c0,0.2,0,0.3,0,0.4s0,0.3,0,0.4c-0.6-0.1-1.6-0.2-2.7-0.2L35.7,60.2L35.7,60.2z
			 M26.1,58.4c0.5,0.8,1.1,1.4,2.1,1.4c1.1,0,1.8-0.9,1.8-1.9c0-2.4-4.1-1.4-4.1-4.3c0-1.7,1.4-2.5,2.9-2.5c0.6,0,1.4,0.2,1.9,0.6
			c-0.2,0.3-0.3,0.7-0.3,1.1h-0.1c-0.3-0.7-0.9-1.1-1.6-1.1c-0.9,0-1.7,0.6-1.7,1.5c0,2.4,4.1,1.4,4.1,4.2c0,1.9-1.5,3-3.2,3
			c-0.6,0-1.7-0.3-2.1-0.8C25.9,59.3,26,58.9,26.1,58.4L26.1,58.4L26.1,58.4z M20.8,52.8l-1.4,3.3h2.9L20.8,52.8L20.8,52.8
			L20.8,52.8z"/>
	</g>
</g>
</svg>
