<?xml version="1.0" encoding="utf-8"?>
<!-- Generator: Adobe Illustrator 22.1.0, SVG Export Plug-In . SVG Version: 6.00 Build 0)  -->
<svg version="1.1" id="Layer_1" xmlns="http://www.w3.org/2000/svg" xmlns:xlink="http://www.w3.org/1999/xlink" x="0px" y="0px"
	 viewBox="0 0 125 75" style="enable-background:new 0 0 125 75;" xml:space="preserve">
<style type="text/css">
	.st0{fill:url(#SVGID_1_);}
	.st1{fill:#333333;}
	.st2{fill:url(#SVGID_2_);}
	.st3{fill:url(#SVGID_3_);}
	.st4{fill:url(#SVGID_4_);}
	.st5{fill:url(#SVGID_5_);}
	.st6{fill:url(#SVGID_6_);}
	.st7{fill:url(#SVGID_7_);}
	.st8{fill:url(#SVGID_8_);}
	.st9{fill:url(#SVGID_9_);}
	.st10{fill:url(#SVGID_10_);}
	.st11{fill:url(#SVGID_11_);}
	.st12{fill:url(#SVGID_12_);}
	.st13{fill:#C2D7E8;}
	.st14{fill:url(#SVGID_13_);}
	.st15{fill:#12404F;}
	.st16{fill:url(#SVGID_14_);}
	.st17{fill:url(#SVGID_15_);}
	.st18{fill:url(#SVGID_16_);}
	.st19{fill:url(#SVGID_17_);}
</style>
<g>
	
		<linearGradient id="SVGID_1_" gradientUnits="userSpaceOnUse" x1="20.7395" y1="77.697" x2="98.1032" y2="2.9382" gradientTransform="matrix(1 0 0 -1 0 75)">
		<stop  offset="0" style="stop-color:#DFF4FF"/>
		<stop  offset="9.840000e-02" style="stop-color:#D6EAF5"/>
		<stop  offset="0.2678" style="stop-color:#BFD0D9"/>
		<stop  offset="0.4879" style="stop-color:#98A5AC"/>
		<stop  offset="0.7469" style="stop-color:#646B6E"/>
		<stop  offset="1" style="stop-color:#2B2B2B"/>
	</linearGradient>
	<path class="st0" d="M62.5,1.2c-20.1,0-36.5,16.3-36.5,36.5c0,20.1,16.3,36.5,36.5,36.5C82.7,74.2,99,57.8,99,37.7
		C99,17.6,82.7,1.2,62.5,1.2z M62.5,72.3c-19.1,0-34.6-15.5-34.6-34.6c0-19.1,15.5-34.6,34.6-34.6c19.1,0,34.6,15.5,34.6,34.6
		C97.2,56.8,81.7,72.3,62.5,72.3z"/>
	<path class="st1" d="M97.4,37.7c0,19.3-15.6,34.9-34.9,34.9c-19.3,0-34.9-15.6-34.9-34.9c0-19.3,15.6-34.9,34.9-34.9
		C81.8,2.8,97.4,18.4,97.4,37.7z"/>
	
		<radialGradient id="SVGID_2_" cx="25.6225" cy="71.3543" r="51.8019" gradientTransform="matrix(1 0 0 -1 0 75)" gradientUnits="userSpaceOnUse">
		<stop  offset="0" style="stop-color:#FFFFFF"/>
		<stop  offset="0.3064" style="stop-color:#A8A8A8"/>
		<stop  offset="0.6461" style="stop-color:#4F4F4F"/>
		<stop  offset="0.8853" style="stop-color:#161616"/>
		<stop  offset="1" style="stop-color:#000000"/>
	</radialGradient>
	<path class="st2" d="M97.2,37.7c0,19.1-15.5,34.6-34.6,34.6c-19.1,0-34.6-15.5-34.6-34.6c0-19.1,15.5-34.6,34.6-34.6
		C81.7,3.1,97.2,18.6,97.2,37.7z"/>
	
		<linearGradient id="SVGID_3_" gradientUnits="userSpaceOnUse" x1="841.8152" y1="-1030.8855" x2="891.0878" y2="-1078.4991" gradientTransform="matrix(-1 0 0 1 930.9756 1094.3057)">
		<stop  offset="0" style="stop-color:#DFF4FF"/>
		<stop  offset="8.550000e-02" style="stop-color:#D6EAF5"/>
		<stop  offset="0.2327" style="stop-color:#BED0D9"/>
		<stop  offset="0.4239" style="stop-color:#96A4AC"/>
		<stop  offset="0.6516" style="stop-color:#5F686D"/>
		<stop  offset="0.9075" style="stop-color:#1A1D1E"/>
		<stop  offset="1" style="stop-color:#000000"/>
	</linearGradient>
	<path class="st3" d="M85.8,37.7c0,12.8-10.4,23.2-23.2,23.2c-12.8,0-23.2-10.4-23.2-23.2c0-12.8,10.4-23.2,23.2-23.2
		C75.4,14.5,85.8,24.9,85.8,37.7z"/>
	<polygon points="63.5,13.8 65.9,7.5 65.9,13.8 67.7,13.8 67.7,4.7 65,4.7 62.5,11.2 62.5,11.2 60,4.7 57.2,4.7 57.2,13.8 
		59.1,13.8 59.1,7.5 61.5,13.8 	"/>
	<polygon points="88.6,18 85.5,22.5 90.4,20.1 91.7,21.7 84,25.6 82.4,23.7 85.4,19.2 85.4,19.1 80.4,21.3 78.8,19.4 84.1,12.5 
		85.4,14.1 82.1,18.5 87.2,16.2 	"/>
	<path class="st1" d="M46.3,16.2c-0.7-0.7-1.9-0.9-2.9-0.3c0.2-0.5,0.1-1.1,0-1.4c-0.5-0.8-0.6-0.9-1-1.3c-1.2-1-2.5-0.2-3.4,1
		l-4.5,5.3l7,5.9l4.7-5.6C47.3,18.6,47.5,17.3,46.3,16.2z M37.2,18.8l2.7-3.2c0.3-0.4,1-0.4,1.5,0c0.5,0.4,0.5,1,0.2,1.4l-2.7,3.2
		L37.2,18.8z M44.6,19.3l-2.8,3.3l-1.8-1.5l2.8-3.4c0.3-0.4,1-0.5,1.5-0.1C45,18.2,45,18.9,44.6,19.3z"/>
	
		<radialGradient id="SVGID_4_" cx="16.3191" cy="76.6297" r="124.4723" gradientTransform="matrix(1 0 0 -1 0 75)" gradientUnits="userSpaceOnUse">
		<stop  offset="0" style="stop-color:#FFFFFF"/>
		<stop  offset="0.3102" style="stop-color:#FDFDFD"/>
		<stop  offset="0.4505" style="stop-color:#F6F6F6"/>
		<stop  offset="0.5567" style="stop-color:#E9E9E9"/>
		<stop  offset="0.6456" style="stop-color:#D7D7D7"/>
		<stop  offset="0.7238" style="stop-color:#BFBFBF"/>
		<stop  offset="0.7944" style="stop-color:#A2A2A2"/>
		<stop  offset="0.8593" style="stop-color:#808080"/>
		<stop  offset="0.9199" style="stop-color:#575757"/>
		<stop  offset="0.9746" style="stop-color:#2B2B2B"/>
		<stop  offset="1" style="stop-color:#141414"/>
	</radialGradient>
	<polygon class="st4" points="63.5,13.5 65.9,7.1 65.9,13.5 67.7,13.5 67.7,4.3 65,4.3 62.5,10.9 62.5,10.9 60,4.3 57.2,4.3 
		57.2,13.5 59.1,13.5 59.1,7.1 61.5,13.5 	"/>
	
		<radialGradient id="SVGID_5_" cx="16.3136" cy="76.6297" r="124.4829" gradientTransform="matrix(1 0 0 -1 0 75)" gradientUnits="userSpaceOnUse">
		<stop  offset="0" style="stop-color:#FFFFFF"/>
		<stop  offset="0.3102" style="stop-color:#FDFDFD"/>
		<stop  offset="0.4505" style="stop-color:#F6F6F6"/>
		<stop  offset="0.5567" style="stop-color:#E9E9E9"/>
		<stop  offset="0.6456" style="stop-color:#D7D7D7"/>
		<stop  offset="0.7238" style="stop-color:#BFBFBF"/>
		<stop  offset="0.7944" style="stop-color:#A2A2A2"/>
		<stop  offset="0.8593" style="stop-color:#808080"/>
		<stop  offset="0.9199" style="stop-color:#575757"/>
		<stop  offset="0.9746" style="stop-color:#2B2B2B"/>
		<stop  offset="1" style="stop-color:#141414"/>
	</radialGradient>
	<polygon class="st5" points="88.6,17.3 85.5,21.9 90.4,19.5 91.8,21.1 84,25 82.4,23.1 85.4,18.6 85.4,18.5 80.4,20.7 78.9,18.8 
		84.1,11.9 85.4,13.5 82.1,17.9 87.2,15.6 	"/>
	
		<radialGradient id="SVGID_6_" cx="16.3068" cy="76.6662" r="124.5783" gradientTransform="matrix(1 0 0 -1 0 75)" gradientUnits="userSpaceOnUse">
		<stop  offset="0" style="stop-color:#FFFFFF"/>
		<stop  offset="0.3102" style="stop-color:#FDFDFD"/>
		<stop  offset="0.4505" style="stop-color:#F6F6F6"/>
		<stop  offset="0.5567" style="stop-color:#E9E9E9"/>
		<stop  offset="0.6456" style="stop-color:#D7D7D7"/>
		<stop  offset="0.7238" style="stop-color:#BFBFBF"/>
		<stop  offset="0.7944" style="stop-color:#A2A2A2"/>
		<stop  offset="0.8593" style="stop-color:#808080"/>
		<stop  offset="0.9199" style="stop-color:#575757"/>
		<stop  offset="0.9746" style="stop-color:#2B2B2B"/>
		<stop  offset="1" style="stop-color:#141414"/>
	</radialGradient>
	<path class="st6" d="M46,16c-0.7-0.7-1.9-0.9-2.9-0.3c0.2-0.5,0.1-1.1,0-1.4c-0.5-0.8-0.6-0.9-1-1.3c-1.2-1-2.5-0.2-3.4,1l-4.5,5.3
		l7,5.9l4.7-5.6C47,18.4,47.1,17.1,46,16z M36.9,18.6l2.7-3.2c0.3-0.4,1-0.4,1.5,0c0.5,0.4,0.5,1,0.2,1.4L38.6,20L36.9,18.6z
		 M44.3,19.1l-2.8,3.3L39.8,21l2.8-3.4c0.3-0.4,1-0.5,1.5-0.1C44.6,18,44.7,18.7,44.3,19.1z"/>
	
		<radialGradient id="SVGID_7_" cx="38.6121" cy="59.3731" r="33.574" gradientTransform="matrix(1 0 0 -1 0 75)" gradientUnits="userSpaceOnUse">
		<stop  offset="0" style="stop-color:#E6E6E6"/>
		<stop  offset="0.1045" style="stop-color:#D6D6D6"/>
		<stop  offset="0.3074" style="stop-color:#ADADAD"/>
		<stop  offset="0.5884" style="stop-color:#6C6C6C"/>
		<stop  offset="0.9335" style="stop-color:#121212"/>
		<stop  offset="1" style="stop-color:#000000"/>
	</radialGradient>
	<path class="st7" d="M40.1,37.7c0-12.4,10.1-22.5,22.4-22.5C74.9,15.2,85,25.3,85,37.7c0,12.4-10,22.4-22.4,22.4
		C50.1,60.1,40.1,50.1,40.1,37.7z"/>
	
		<radialGradient id="SVGID_8_" cx="47.795" cy="54.8575" r="48.8262" gradientTransform="matrix(1 0 0 -1 0 75)" gradientUnits="userSpaceOnUse">
		<stop  offset="0" style="stop-color:#FFFFFF"/>
		<stop  offset="0.3435" style="stop-color:#FDFDFD"/>
		<stop  offset="0.4814" style="stop-color:#F6F6F6"/>
		<stop  offset="0.5824" style="stop-color:#EAEAEA"/>
		<stop  offset="0.6654" style="stop-color:#D8D8D8"/>
		<stop  offset="0.7373" style="stop-color:#C2C2C2"/>
		<stop  offset="0.8016" style="stop-color:#A6A6A6"/>
		<stop  offset="0.8602" style="stop-color:#848484"/>
		<stop  offset="0.9126" style="stop-color:#5F5F5F"/>
		<stop  offset="0.9494" style="stop-color:#404040"/>
		<stop  offset="0.9566" style="stop-color:#404040"/>
		<stop  offset="1" style="stop-color:#404040"/>
		<stop  offset="1" style="stop-color:#000000"/>
	</radialGradient>
	<path class="st8" d="M40.7,37.7c0-12,9.8-21.8,21.8-21.8s21.8,9.8,21.8,21.8c0,12-9.8,21.8-21.8,21.8S40.7,49.7,40.7,37.7z"/>
	
		<radialGradient id="SVGID_9_" cx="33.459" cy="73.3658" r="86.4717" gradientTransform="matrix(1 0 0 -1 0 75)" gradientUnits="userSpaceOnUse">
		<stop  offset="0.1685" style="stop-color:#FFFFFF"/>
		<stop  offset="0.1957" style="stop-color:#E0EFF7"/>
		<stop  offset="0.2406" style="stop-color:#B2D9EC"/>
		<stop  offset="0.2872" style="stop-color:#8BC5E2"/>
		<stop  offset="0.335" style="stop-color:#6BB5DA"/>
		<stop  offset="0.3844" style="stop-color:#52A9D4"/>
		<stop  offset="0.4359" style="stop-color:#41A0CF"/>
		<stop  offset="0.4911" style="stop-color:#369BCD"/>
		<stop  offset="0.5562" style="stop-color:#3399CC"/>
		<stop  offset="0.606" style="stop-color:#3396C8"/>
		<stop  offset="0.6553" style="stop-color:#328EBC"/>
		<stop  offset="0.7045" style="stop-color:#3180A8"/>
		<stop  offset="0.7536" style="stop-color:#2F6D8C"/>
		<stop  offset="0.8027" style="stop-color:#2D5468"/>
		<stop  offset="0.8512" style="stop-color:#2A373D"/>
		<stop  offset="0.8708" style="stop-color:#292929"/>
	</radialGradient>
	<path class="st9" d="M40.7,37.7h21.8V15.9C50.5,15.9,40.7,25.6,40.7,37.7z"/>
	
		<radialGradient id="SVGID_10_" cx="33.459" cy="73.3664" r="86.47" gradientTransform="matrix(1 0 0 -1 0 75)" gradientUnits="userSpaceOnUse">
		<stop  offset="0.1685" style="stop-color:#FFFFFF"/>
		<stop  offset="0.1957" style="stop-color:#E0EFF7"/>
		<stop  offset="0.2406" style="stop-color:#B2D9EC"/>
		<stop  offset="0.2872" style="stop-color:#8BC5E2"/>
		<stop  offset="0.335" style="stop-color:#6BB5DA"/>
		<stop  offset="0.3844" style="stop-color:#52A9D4"/>
		<stop  offset="0.4359" style="stop-color:#41A0CF"/>
		<stop  offset="0.4911" style="stop-color:#369BCD"/>
		<stop  offset="0.5562" style="stop-color:#3399CC"/>
		<stop  offset="0.606" style="stop-color:#3396C8"/>
		<stop  offset="0.6553" style="stop-color:#328EBC"/>
		<stop  offset="0.7045" style="stop-color:#3180A8"/>
		<stop  offset="0.7536" style="stop-color:#2F6D8C"/>
		<stop  offset="0.8027" style="stop-color:#2D5468"/>
		<stop  offset="0.8512" style="stop-color:#2A373D"/>
		<stop  offset="0.8708" style="stop-color:#292929"/>
	</radialGradient>
	<path class="st10" d="M62.5,37.7v21.8c12.1,0,21.8-9.8,21.8-21.8L62.5,37.7L62.5,37.7z"/>
	
		<radialGradient id="SVGID_11_" cx="39.0706" cy="58.9502" r="32.9305" gradientTransform="matrix(1 0 0 -1 0 75)" gradientUnits="userSpaceOnUse">
		<stop  offset="0" style="stop-color:#E6E6E6"/>
		<stop  offset="0.1045" style="stop-color:#D6D6D6"/>
		<stop  offset="0.3074" style="stop-color:#ADADAD"/>
		<stop  offset="0.5884" style="stop-color:#6C6C6C"/>
		<stop  offset="0.9335" style="stop-color:#121212"/>
		<stop  offset="1" style="stop-color:#000000"/>
	</radialGradient>
	<polygon class="st11" points="84.6,37.3 62.9,37.3 62.9,15.7 62.2,15.7 62.2,37.3 40.5,37.3 40.5,38.1 62.2,38.1 62.2,59.7 
		62.9,59.7 62.9,38.1 84.6,38.1 	"/>
	
		<linearGradient id="SVGID_12_" gradientUnits="userSpaceOnUse" x1="58.2206" y1="67.1724" x2="90.3343" y2="36.14" gradientTransform="matrix(1 0 0 -1 0 75)">
		<stop  offset="0" style="stop-color:#F0F4FF"/>
		<stop  offset="0.1086" style="stop-color:#EBEFF9"/>
		<stop  offset="0.2475" style="stop-color:#DCE0EA"/>
		<stop  offset="0.4028" style="stop-color:#C4C7CF"/>
		<stop  offset="0.5701" style="stop-color:#A2A4AB"/>
		<stop  offset="0.7469" style="stop-color:#76777C"/>
		<stop  offset="0.9291" style="stop-color:#414243"/>
		<stop  offset="1" style="stop-color:#2B2B2B"/>
	</linearGradient>
	<path class="st12" d="M62.9,16.3c11.5,0.2,20.8,9.5,21,21h0.4c-0.2-11.7-9.7-21.2-21.4-21.4L62.9,16.3L62.9,16.3z"/>
	<path class="st13" d="M41.1,37.3c0.2-11.5,9.5-20.8,21-21v-0.4c-11.7,0.2-21.2,9.7-21.4,21.4L41.1,37.3L41.1,37.3z"/>
	
		<linearGradient id="SVGID_13_" gradientUnits="userSpaceOnUse" x1="32.1548" y1="40.9722" x2="64.269" y2="9.9393" gradientTransform="matrix(1 0 0 -1 0 75)">
		<stop  offset="0" style="stop-color:#F0F4FF"/>
		<stop  offset="0.1086" style="stop-color:#EBEFF9"/>
		<stop  offset="0.2475" style="stop-color:#DCE0EA"/>
		<stop  offset="0.4028" style="stop-color:#C4C7CF"/>
		<stop  offset="0.5701" style="stop-color:#A2A4AB"/>
		<stop  offset="0.7469" style="stop-color:#76777C"/>
		<stop  offset="0.9291" style="stop-color:#414243"/>
		<stop  offset="1" style="stop-color:#2B2B2B"/>
	</linearGradient>
	<path class="st14" d="M62.2,59.1c-11.5-0.2-20.8-9.5-21-21h-0.4c0.2,11.7,9.7,21.2,21.4,21.4L62.2,59.1L62.2,59.1z"/>
	<path class="st15" d="M83.9,38.1c-0.2,11.5-9.5,20.8-21,21v0.4c11.7-0.2,21.2-9.7,21.4-21.4H83.9z"/>
	
		<linearGradient id="SVGID_14_" gradientUnits="userSpaceOnUse" x1="47.6909" y1="52.038" x2="64.3433" y2="35.9463" gradientTransform="matrix(1 0 0 -1 0 75)">
		<stop  offset="0" style="stop-color:#C2D7E8"/>
		<stop  offset="0.1337" style="stop-color:#BACFE1"/>
		<stop  offset="0.3425" style="stop-color:#A4BACD"/>
		<stop  offset="0.6001" style="stop-color:#8098AC"/>
		<stop  offset="0.894" style="stop-color:#4E697F"/>
		<stop  offset="1" style="stop-color:#3A566D"/>
	</linearGradient>
	<polygon class="st16" points="61.7,15.9 61.7,36.9 40.7,36.9 40.7,37.3 61.7,37.3 62.2,37.3 62.2,36.9 62.2,15.9 	"/>
	
		<linearGradient id="SVGID_15_" gradientUnits="userSpaceOnUse" x1="39.351" y1="48.095" x2="71.142" y2="17.3744" gradientTransform="matrix(1 0 0 -1 0 75)">
		<stop  offset="0" style="stop-color:#F0F4FF"/>
		<stop  offset="9.730001e-02" style="stop-color:#E8EBF6"/>
		<stop  offset="0.2568" style="stop-color:#D1D4DD"/>
		<stop  offset="0.4587" style="stop-color:#ABAEB5"/>
		<stop  offset="0.6951" style="stop-color:#78797D"/>
		<stop  offset="0.9578" style="stop-color:#363637"/>
		<stop  offset="1" style="stop-color:#2B2B2B"/>
	</linearGradient>
	<polygon class="st17" points="61.7,59.3 61.7,38.5 40.9,38.5 40.9,38.1 61.7,38.1 62.1,38.1 62.1,38.5 62.1,59.3 	"/>
	
		<linearGradient id="SVGID_16_" gradientUnits="userSpaceOnUse" x1="62.7829" y1="36.6994" x2="73.9343" y2="25.9234" gradientTransform="matrix(1 0 0 -1 0 75)">
		<stop  offset="0" style="stop-color:#D9DEF0"/>
		<stop  offset="0.1229" style="stop-color:#D4DAEC"/>
		<stop  offset="0.2629" style="stop-color:#C7CFE2"/>
		<stop  offset="0.4114" style="stop-color:#B0BCD1"/>
		<stop  offset="0.5657" style="stop-color:#90A1B8"/>
		<stop  offset="0.7246" style="stop-color:#677F99"/>
		<stop  offset="0.8849" style="stop-color:#355674"/>
		<stop  offset="0.9719" style="stop-color:#173D5D"/>
	</linearGradient>
	<polygon class="st18" points="63.4,59.3 63.4,38.5 84.1,38.5 84.1,38.1 63.4,38.1 63,38.1 63,38.5 63,59.3 	"/>
	
		<linearGradient id="SVGID_17_" gradientUnits="userSpaceOnUse" x1="51.3754" y1="59.7543" x2="83.1319" y2="29.067" gradientTransform="matrix(1 0 0 -1 0 75)">
		<stop  offset="0" style="stop-color:#F0F4FF"/>
		<stop  offset="0.1086" style="stop-color:#EBEFF9"/>
		<stop  offset="0.2475" style="stop-color:#DCE0EA"/>
		<stop  offset="0.4028" style="stop-color:#C4C7CF"/>
		<stop  offset="0.5701" style="stop-color:#A2A4AB"/>
		<stop  offset="0.7469" style="stop-color:#76777C"/>
		<stop  offset="0.9291" style="stop-color:#414243"/>
		<stop  offset="1" style="stop-color:#2B2B2B"/>
	</linearGradient>
	<polygon class="st19" points="63.4,16.1 63.4,36.8 84.1,36.8 84.1,37.2 63.4,37.2 63,37.2 63,36.8 63,16.1 	"/>
</g>
</svg>
