<?xml version="1.0" encoding="utf-8"?>
<!-- Generator: Adobe Illustrator 22.1.0, SVG Export Plug-In . SVG Version: 6.00 Build 0)  -->
<svg version="1.1" id="Layer_1" xmlns="http://www.w3.org/2000/svg" xmlns:xlink="http://www.w3.org/1999/xlink" x="0px" y="0px"
	 viewBox="0 0 125 75" style="enable-background:new 0 0 125 75;" xml:space="preserve">
<g>
	<path d="M59.6,15.4c0,0-10.7,14.2-11.7,15.6c-3.9-0.3-10.8-3-10.8-7.4c0-5.8,10-11,22.5-11c13.2,0,22.5,5.3,22.5,11
		c0,4.5-6.9,7-10.8,7.4C70.3,29.6,59.6,15.4,59.6,15.4 M66.8,39.1c1-0.1,7.7-1,12.6-3.4c5.2-2.5,7.7-6.9,7.7-10.5
		c0-8-11.2-14.3-27.5-14.3c-16.2,0-27.5,6.2-27.5,14.3c0,3.8,2.5,8,7.7,10.5c4.9,2.4,11.7,3.2,12.6,3.4l7-20.5L66.8,39.1L66.8,39.1
		L66.8,39.1z"/>
	<path d="M22.8,52.1v9.8c0,0-3.5-9.3-3.7-9.6s-0.3-0.4-0.7-0.4h-3.4V64h2.2v-9.8c0,0,3.5,9.1,3.5,9.4c0.1,0.3,0.3,0.4,0.6,0.4h3.4
		V51.9L22.8,52.1L22.8,52.1z"/>
	<path d="M34.8,52.1v12.1h2.7c0,0,0-4.9,0-5.2h4.8v-2.2h-4.8v-2.5h4.9v-2.2L34.8,52.1L34.8,52.1z"/>
	<polygon points="96.3,52.1 96.3,54.5 99.3,54.5 99.3,64.2 101.9,64.2 101.9,54.5 104.9,54.5 104.9,52.1 	"/>
	<polygon points="51.6,64.2 54.4,64.2 54.4,52.1 51.6,52.1 	"/>
	<polygon points="84.2,64.2 87,64.2 87,52.1 84.2,52.1 	"/>
	<polygon points="114,64.2 116.8,64.2 116.8,52.1 114,52.1 	"/>
	<polygon points="2.3,64.2 5.3,64.2 5.3,52.1 2.3,52.1 	"/>
	<path d="M74.4,52.1h-2.2v9.8c0,0-3.5-9.3-3.7-9.6s-0.3-0.4-0.7-0.4h-3.4V64h2.2v-9.8c0,0,3.5,9.1,3.5,9.4c0.1,0.3,0.3,0.4,0.6,0.4
		h3.7V52.1L74.4,52.1z"/>
	<path d="M121.5,62.8c0.1,0,0.3,0,0.3-0.3c0-0.1-0.1-0.3-0.3-0.3h-0.3v0.4h0.3V62.8z M121.6,62.9l0.6,0.6h-0.4l-0.6-0.6l0,0v0.6
		h-0.3V62h0.3h0.3c0.3,0,0.6,0.1,0.6,0.4C122,62.6,121.9,62.9,121.6,62.9L121.6,62.9L121.6,62.9z M122.7,62.8c0-0.7-0.6-1.3-1.3-1.3
		s-1.3,0.6-1.3,1.3s0.6,1.3,1.3,1.3S122.7,63.5,122.7,62.8 M123,62.8c0,0.8-0.7,1.5-1.7,1.5c-0.8,0-1.7-0.7-1.7-1.5s0.7-1.5,1.7-1.5
		C122.3,61.1,123,61.8,123,62.8"/>
</g>
</svg>
