<?xml version="1.0" encoding="utf-8"?>
<!-- Generator: Adobe Illustrator 22.1.0, SVG Export Plug-In . SVG Version: 6.00 Build 0)  -->
<svg version="1.1" id="Layer_1" xmlns="http://www.w3.org/2000/svg" xmlns:xlink="http://www.w3.org/1999/xlink" x="0px" y="0px"
	 viewBox="0 0 512 512" style="enable-background:new 0 0 512 512;" xml:space="preserve">
<style type="text/css">
	.st0{fill:#856404;}
</style>
<path class="st0" d="M256,48C141.1,48,48,141.1,48,256s93.1,208,208,208s208-93.1,208-208S370.9,48,256,48z M273.2,157.6l-3.1,115.1
	c-0.2,8.2-5.9,14.8-14.1,14.8s-13.9-6.6-14.1-14.8l-3.1-115.1c-0.2-9.6,7.5-17.6,17.2-17.6C265.6,140,273.4,147.9,273.2,157.6
	L273.2,157.6z M256,354c-10.7,0-19.1-8.1-19.1-18.4s8.4-18.4,19.1-18.4s19.1,8.1,19.1,18.4S266.7,354,256,354z"/>
</svg>
