<?xml version="1.0" encoding="utf-8"?>
<!-- Generator: Adobe Illustrator 22.1.0, SVG Export Plug-In . SVG Version: 6.00 Build 0)  -->
<svg version="1.1" id="Layer_1" xmlns="http://www.w3.org/2000/svg" xmlns:xlink="http://www.w3.org/1999/xlink" x="0px" y="0px"
	 viewBox="0 0 125 75" style="enable-background:new 0 0 125 75;" xml:space="preserve">
<style type="text/css">
	.st0{fill:#020202;}
</style>
<path class="st0" d="M102.7,15.4c-5.1,0-9.7,1.8-13.4,4.8c-3.7-3-8.3-4.8-13.4-4.8c-5.1,0-9.7,1.8-13.4,4.8c-3.7-3-8.3-4.8-13.4-4.8
	c-5.1,0-9.7,1.8-13.4,4.8c-3.7-3-8.3-4.8-13.4-4.8C10.5,15.4,1,24.9,1,36.7S10.5,58,22.3,58c5.1,0,9.7-1.8,13.4-4.8
	c3.7,3,8.3,4.8,13.4,4.8c5.1,0,9.7-1.8,13.4-4.8c3.7,3,8.3,4.8,13.4,4.8c5.1,0,9.7-1.8,13.4-4.8c3.7,3,8.3,4.8,13.4,4.8
	c11.8,0,21.3-9.5,21.3-21.3S114.5,15.4,102.7,15.4z M89.3,46.4c-2-2.7-3.2-6.1-3.2-9.8s1.2-7,3.2-9.8c2,2.7,3.2,6.1,3.2,9.8
	S91.3,43.7,89.3,46.4z M62.5,46.4c-2-2.7-3.2-6.1-3.2-9.8c0-3.7,1.2-7,3.2-9.8c2,2.7,3.2,6.1,3.2,9.8C65.7,40.3,64.5,43.7,62.5,46.4
	z M35.7,46.4c-2-2.7-3.2-6.1-3.2-9.8s1.2-7,3.2-9.8c2,2.7,3.2,6.1,3.2,9.8S37.7,43.7,35.7,46.4z M5.7,36.7c0-9.2,7.4-16.6,16.6-16.6
	c3.8,0,7.3,1.3,10.1,3.4c-2.9,3.6-4.6,8.2-4.6,13.2c0,5,1.7,9.5,4.6,13.2c-2.8,2.2-6.3,3.4-10.1,3.4C13.1,53.3,5.7,45.8,5.7,36.7z
	 M39,49.8c2.9-3.6,4.6-8.2,4.6-13.2c0-5-1.7-9.5-4.6-13.2c2.8-2.2,6.3-3.4,10.1-3.4c3.8,0,7.3,1.3,10.1,3.4
	c-2.9,3.6-4.6,8.2-4.6,13.2c0,5,1.7,9.5,4.6,13.2c-2.8,2.2-6.3,3.4-10.1,3.4C45.3,53.3,41.8,52,39,49.8z M65.8,49.8
	c2.9-3.6,4.6-8.2,4.6-13.2c0-5-1.7-9.5-4.6-13.2c2.8-2.1,6.3-3.4,10.1-3.4c3.8,0,7.3,1.3,10.1,3.4c-2.9,3.6-4.6,8.2-4.6,13.2
	c0,5,1.7,9.5,4.6,13.2c-2.8,2.2-6.3,3.4-10.1,3.4C72.1,53.3,68.6,52,65.8,49.8z M102.7,53.3c-3.8,0-7.3-1.3-10.1-3.4
	c2.9-3.6,4.6-8.2,4.6-13.2c0-5-1.7-9.5-4.6-13.2c2.8-2.1,6.3-3.4,10.1-3.4c9.2,0,16.6,7.4,16.6,16.6S111.9,53.3,102.7,53.3z"/>
</svg>
