<?xml version="1.0" encoding="utf-8"?>
<!-- Generator: Adobe Illustrator 22.1.0, SVG Export Plug-In . SVG Version: 6.00 Build 0)  -->
<svg version="1.1" id="Layer_1" xmlns="http://www.w3.org/2000/svg" xmlns:xlink="http://www.w3.org/1999/xlink" x="0px" y="0px"
	 viewBox="0 0 125 75" style="enable-background:new 0 0 125 75;" xml:space="preserve">
<style type="text/css">
	.st0{fill:#231F20;}
	.st1{clip-path:url(#SVGID_2_);fill:#231F20;}
	.st2{clip-path:url(#SVGID_4_);fill:#231F20;}
	.st3{fill:#FFFFFF;}
</style>
<g>
	<path class="st0" d="M81.4,65.9c0,0.6,0,1.4,0,2.2c-3.3,0-6.6,0-9.9,0c0.1-4.1,0.1-8,0-12.1c0.8,0,1.5,0,2.3,0
		c-0.1,3.3-0.1,6.6,0,9.9C76.3,66,78.8,66,81.4,65.9"/>
	<path class="st0" d="M44.5,56c2.3,2.7,4.6,5.3,7,8c0-2.7,0-5.3,0-8c0.6,0,1.4,0,2,0c0,3.9,0,8,0,12.1c-0.6,0-1.1,0-1.8,0
		c-2.3-2.8-4.8-5.7-7.4-8.5c0,2.8,0,5.7,0,8.5c-0.6,0-1.4,0-2,0c0-4.1,0-8,0-12.1C43.2,56,43.9,56,44.5,56"/>
	<path class="st0" d="M38.7,58.2c-2.7,0-5.2,0-7.9,0c0,0.9,0,1.8,0,2.7c1.8,0,3.6,0,5.5,0c0,0.6,0,1.4,0,2c-1.8,0-3.6,0-5.5,0
		c0,1,0,2,0,3c2.7,0,5.3,0,8,0c0,0.8,0,1.4,0,2.2c-3.4,0-6.9,0-10.3,0c0-4.1,0-8,0-12.1c3.4,0,6.9,0,10.2,0
		C38.7,56.8,38.7,57.4,38.7,58.2"/>
	<path class="st0" d="M103.7,68.1c0-1.7,0-3.4,0-5.2c-1.8-2.3-3.6-4.6-5.6-6.9c0.9,0,1.9,0,2.8,0c1.3,1.5,2.5,3,3.8,4.7
		c1.4-1.5,2.7-3,3.8-4.7c0.9,0,1.9,0,2.8,0c-1.9,2.3-3.8,4.6-5.6,6.9c0,1.8,0,3.4,0,5.2C105.2,68.1,104.5,68.1,103.7,68.1"/>
	<path class="st0" d="M94.8,58.2c-2.7,0-5.2,0-7.9,0c0,0.9,0,1.8,0,2.7c1.8,0,3.6,0,5.5,0c0,0.6,0,1.4,0,2c-1.8,0-3.6,0-5.5,0
		c0,1,0,2,0,3c2.7,0,5.3,0,8,0c0,0.8,0,1.4,0,2.2c-3.4,0-6.9,0-10.3,0c0-4.1,0-8,0-12.1c3.4,0,6.9,0,10.2,0
		C94.7,56.8,94.7,57.4,94.8,58.2"/>
	<g>
		<path class="st0" d="M23.2,57.3c0.4,0.5,0.6,1.2,0.6,1.9c0,0.8-0.2,1.4-0.6,1.8c-0.2,0.3-0.5,0.5-0.9,0.7c0.6,0.2,1.1,0.6,1.4,1.1
			c0.3,0.5,0.5,1.1,0.5,1.8c0,0.7-0.2,1.4-0.6,2c-0.2,0.4-0.5,0.7-0.9,1c-0.4,0.3-0.9,0.5-1.4,0.6c-0.5,0.1-1.1,0.2-1.7,0.2H14V56h6
			C21.5,56,22.5,56.4,23.2,57.3z M16.4,58.1v2.7h3c0.5,0,1-0.1,1.3-0.3c0.3-0.2,0.5-0.6,0.5-1.1c0-0.6-0.2-1-0.7-1.1
			c-0.4-0.1-0.9-0.2-1.5-0.2H16.4z M16.4,62.9v3.3h3c0.5,0,1-0.1,1.3-0.2c0.5-0.3,0.8-0.8,0.8-1.5c0-0.6-0.3-1.1-0.8-1.3
			c-0.3-0.1-0.7-0.2-1.2-0.2H16.4z"/>
	</g>
	<g>
		<g>
			<defs>
				<rect id="SVGID_1_" x="2.4" y="7.9" width="120.6" height="60.2"/>
			</defs>
			<clipPath id="SVGID_2_">
				<use xlink:href="#SVGID_1_"  style="overflow:visible;"/>
			</clipPath>
			<path class="st1" d="M61.6,68.1c0-3.3,0-6.6,0-9.9c-1.4,0-2.9,0-4.3,0c0-0.6,0-1.4,0-2.2c3.7,0,7.2,0,10.9,0c0,0.6,0,1.4,0,2.2
				c-1.4,0-2.9,0-4.3,0c0,3.3,0,6.6,0,9.9C63.1,68.1,62.3,68.1,61.6,68.1"/>
		</g>
		<g>
			<defs>
				<rect id="SVGID_3_" x="2.4" y="7.9" width="120.6" height="60.2"/>
			</defs>
			<clipPath id="SVGID_4_">
				<use xlink:href="#SVGID_3_"  style="overflow:visible;"/>
			</clipPath>
			<path class="st2" d="M2.4,11.4c0,0,0.9-1,1.1-1.4c0.3-0.3,0.5-0.5,0.6-0.6c0.1-0.1,0.4-0.3,0.5-0.3s1.9,0.3,2.4,0.3
				s2.5,0.1,3.4,0.1c0.9,0,3,0,3.4,0s3.9-0.3,4.7-0.3c0.8,0,5.2-0.1,6.2-0.1c1,0,6,0.1,7.2,0.3c1.3,0.1,4.6,0.3,5.7,0.3
				s6.3-0.3,7.5-0.3c1,0,4.3,0.3,5.1,0.4c0.8,0.1,1.7,0.4,1.7,0.4s1.4-0.5,2.2-0.8c0.8-0.3,2.7-0.8,4.1-1s3-0.4,4.6-0.4
				c1.5,0,3.7,0.1,5.2,0.5c1.5,0.4,3.2,0.9,3.8,1.1s2,0.9,2,0.9s1-0.3,1.9-0.5c0.9-0.1,2.2-0.4,2.9-0.5c0.8,0,1.4-0.1,2.3-0.1
				c0.9,0,3.2,0.3,3.8,0.3c0.6,0.1,2,0.3,3.6,0.3c1,0,4.3-0.1,5.2-0.3c0.9,0,6.6-0.3,7.7-0.4c1.1,0,6.3,0.3,7.4,0.4
				c1,0,3.2,0.1,3.8,0.1c0.6,0,2.9-0.1,4.1-0.3c1.1-0.1,3.6-0.4,3.9-0.4c0.5,0,0.6,0,0.8,0s0.8,0.8,1.1,1c0.3,0.4,0.6,0.8,0.6,0.9
				c0.1,0.1,0.1,0.1,0.1,0.3s-0.3,0.4-0.4,0.5c-0.1,0.1-0.1,0.1-0.3,0.1s-1.1,0.5-1.4,0.6c-0.4,0.1-1.1,0.5-1.1,0.5s0.3,0.6,0.4,0.9
				c0.1,0.3,0.3,0.8,0.3,0.9s0,0.5,0,0.5s-0.5,0.4-0.8,0.4c-0.3,0.1-0.9,0.4-1.3,0.5c-0.4,0.1-0.9,0.3-0.9,0.3s0,0.5,0,0.8
				s0,0.6-0.1,0.9c0,0.3-0.3,0.6-0.4,0.8c-0.1,0.1-0.4,0.3-0.6,0.4c-0.1,0.1-0.8,0.3-1.1,0.4c-0.4,0-0.8,0.1-0.9,0.1s-0.4,0-0.4,0
				s0,0.5,0,0.8c0,0.3-0.1,0.6-0.1,0.9c0,0.1-0.3,0.5-0.4,0.6c-0.1,0.1-0.3,0.3-0.6,0.4c-0.3,0.1-0.8,0.1-1.1,0.3
				c-0.4,0-1.1,0.1-1.4,0.1s-0.5,0-0.5,0s-0.1,0.6-0.3,0.9c-0.1,0.3-0.3,0.6-0.5,0.9c-0.1,0.3-0.5,0.5-0.6,0.6
				c-0.1,0.1-0.4,0.3-0.5,0.4c-0.1,0-0.6,0-0.9,0s-1,0-1.4,0c-0.4,0-0.8-0.1-1-0.1c-0.3,0-0.4-0.1-0.4-0.1s-0.1,0.5-0.1,0.6
				s-0.1,0.5-0.3,0.8c-0.1,0.3-0.3,0.4-0.4,0.5c-0.1,0.1-0.3,0.3-0.5,0.3c-0.4,0.1-0.6,0.1-0.9,0.1s-1.4,0-1.8,0c-0.4,0-1,0-1.3,0
				s-0.6,0-0.6,0s-0.1,0.4-0.1,0.6c-0.1,0.3-0.3,0.6-0.3,0.8c-0.1,0.1-0.3,0.4-0.4,0.5c-0.1,0.1-0.3,0.3-0.5,0.3c-0.3,0-0.6,0-1,0
				s-1.1,0-1.4-0.1c-0.4,0-1-0.1-1.3-0.3c-0.3,0-0.4-0.1-0.4-0.1S93,29.7,92.9,30c-0.1,0.1-0.4,0.5-0.5,0.6S92,31,91.6,31
				c-0.4,0-0.6,0-1,0c-0.3,0-0.9-0.1-1.1-0.3c-0.3-0.1-0.9-0.3-1.1-0.3c-0.1,0-0.4-0.1-0.4-0.1s-0.1,0.4-0.3,0.5s-0.4,0.4-0.5,0.5
				c-0.1,0.1-0.5,0.4-0.6,0.4s-0.4,0-0.6,0s-0.6-0.1-0.9-0.3c-0.3-0.1-0.5-0.3-0.5-0.3s-0.4,0.9-0.4,1.1c-0.1,0.3-0.5,1.1-0.6,1.4
				s-0.9,1.4-1,1.7c-0.3,0.4-1.3,1.7-1.5,1.9c-0.3,0.3-0.6,0.6-0.9,0.9s-1.1,1-1.7,1.5c-0.5,0.4-1.4,1-2.2,1.5
				c-0.8,0.4-2,1.1-2.5,1.4c-0.5,0.3-1.3,0.5-1.3,0.5s-0.3,0.5-0.4,0.8c-0.1,0.3-0.4,0.8-0.5,0.9c0,0.1-0.1,0.1-0.3,0.1
				s-0.8-0.3-1-0.4c-0.3-0.1-0.8-0.3-0.8-0.3S69.2,44.8,69,45c-0.1,0.1-0.5,0.6-0.5,0.8c0,0-0.1,0-0.3,0s-0.8-0.4-0.9-0.5
				c-0.1-0.1-0.8-0.4-0.8-0.4s-0.4,0.4-0.5,0.6c-0.1,0.1-0.6,0.8-0.6,0.8s-0.1,0-0.3,0S65,46,64.7,45.8c-0.3-0.1-0.6-0.5-0.8-0.5
				c-0.1-0.1-0.3-0.1-0.3-0.1s-0.4,0.4-0.6,0.5c-0.1,0.1-0.5,0.5-0.6,0.5l-0.1,0.1h-0.1c-0.1,0-0.5-0.5-0.8-0.6
				c-0.1-0.1-0.6-0.6-0.6-0.6s-0.5,0.4-0.8,0.5c-0.1,0.1-0.6,0.5-0.8,0.5S59,46.1,59,46c-0.1-0.1-0.6-0.6-0.6-0.8
				c-0.1-0.1-0.4-0.5-0.4-0.5s-0.6,0.4-0.9,0.5c-0.3,0.1-0.6,0.4-0.8,0.4s-0.3,0-0.3,0c0-0.1-0.4-0.5-0.5-0.8
				c-0.1-0.3-0.5-0.6-0.5-0.6s-0.6,0.3-0.8,0.3c-0.3,0.1-0.8,0.4-0.9,0.4s-0.3,0-0.4-0.1c0-0.1-0.5-0.9-0.5-1.1
				c-0.1-0.3-0.3-0.5-0.3-0.5s-0.6-0.3-1.1-0.5c-0.5-0.3-1.5-0.8-2-1c-0.4-0.3-1.1-0.6-1.7-1c-0.4-0.3-1.4-1-1.8-1.4
				c-0.4-0.4-1.8-1.7-2-2c-0.4-0.4-0.8-1-1.3-1.5c-0.4-0.6-0.8-1.1-1-1.7s-0.5-1-0.8-1.8c-0.3-0.6-0.5-1.3-0.6-1.5
				c-0.1-0.3-0.1-0.4-0.1-0.4s-0.8,0.3-1.3,0.4c-0.5,0.1-1.1,0.3-1.8,0.3c-0.5,0-0.6-0.1-0.8-0.3c-0.1-0.1-0.3-0.3-0.5-0.6
				c-0.1-0.3-0.4-0.6-0.4-0.6s-0.9,0.3-1.1,0.3c-0.4,0.1-1.1,0.3-1.7,0.3c-0.5,0-1,0.1-1.3,0.1c-0.3,0-0.5-0.1-0.8-0.4
				c-0.3-0.3-0.4-0.4-0.5-0.5c-0.1-0.1-0.4-0.6-0.4-0.8c0-0.1-0.1-0.3-0.1-0.3s-1,0-1.3,0c-0.3,0-1.7,0-1.9,0c-0.3,0-1,0-1.3-0.1
				c-0.3,0-0.5-0.1-0.8-0.5c-0.3-0.4-0.4-0.5-0.5-0.9c-0.1-0.3-0.3-0.6-0.3-0.6s-0.9,0-1.3,0c-0.5,0-1.4-0.1-1.9-0.3
				s-1.3-0.3-1.5-0.3c-0.3-0.1-0.4-0.3-0.5-0.5c-0.1-0.3-0.4-0.5-0.5-0.8c-0.1-0.3-0.5-0.8-0.5-0.9c0-0.1-0.1-0.1-0.1-0.1
				S16.1,23,15.7,23s-1-0.1-1.3-0.3c-0.3,0-1-0.1-1.1-0.3c-0.1-0.1-0.3-0.1-0.4-0.4c-0.1-0.3-0.3-0.8-0.4-1.3
				c-0.1-0.5-0.3-0.9-0.3-0.9s-0.8-0.1-1.3-0.4c-0.6-0.1-0.8-0.3-1.1-0.4c-0.4-0.1-0.8-0.3-1-0.4c-0.3-0.1-0.3-0.4-0.3-0.6
				c0-0.1-0.1-0.8-0.1-1c0-0.1,0-0.6,0-0.6s-1.4-0.6-1.8-0.8c-0.4-0.1-1.3-0.6-1.4-0.6c-0.1-0.1-0.1-0.3-0.1-0.4s0.1-0.8,0.3-1
				c0-0.3,0.1-0.8,0.1-0.8v-0.1c0,0-1.4-0.6-1.8-0.9c-0.4-0.1-1.3-0.6-1.4-0.8s-0.1-0.3-0.3-0.5C2.4,11.6,2.4,11.4,2.4,11.4"/>
		</g>
	</g>
	<path class="st3" d="M48,20.1c0.1-1.5,2.2-3.3,1.9-5c-0.3-1.3-1.8-2.4-3.4-2.7c-0.9-0.1-3.9-0.4-4.6-0.4c-0.8,0-2.9-0.1-3.7-0.1
		c-0.6,0-2.4,0-3,0c-0.5,0-1.1,0-2-0.1c-0.9-0.1-1.5-0.4-2.3-0.6c-0.9-0.3-1.5-0.5-2.2-0.6s-1.5-0.3-2.2-0.4c-0.6,0-1.8-0.1-2.7-0.1
		c-0.9,0-3,0-3.7,0c-0.6,0-2.8,0.1-3.4,0.1c-0.5,0-1.1,0-1.4,0c-0.3,0-0.3,0.1-0.4,0.1s-0.8,0-1.1,0c-0.4,0-0.6,0-0.8,0
		s-0.4,0-0.4,0s0,0.1,0.1,0.1s0.5,0,0.5,0.1c0.1,0,1,0.1,1.3,0.1s0.9,0,1.1,0c0.4,0,0.9,0,1.3,0c0.4,0,2,0,2.5,0c0.6,0,1.7,0,2.3,0
		c0.5,0,1.8,0.1,2.8,0.1c1,0.1,1.8,0.3,2.8,0.5c1,0.3,2.2,0.6,2.7,0.8c0.5,0.1,1.3,0.4,1.8,0.5c0.4,0.1,0.8,0.1,0.9,0.3
		c0.1,0.1,0.1,0.1,0,0.3c0,0.1-0.1,0.1-0.1,0.3s-0.1,0.3-0.1,0.3h0.1l0.1-0.1c0-0.1-0.3-0.3-0.4-0.3c-0.3,0-1.3-0.1-1.5-0.1
		c-0.3,0-1.3-0.1-1.8-0.1c-0.5,0-2.7,0-3.3,0c-0.5,0-2.5,0-3,0s-2.3,0-2.8,0s-1.7,0-2,0c-0.5,0-1.9,0-2.5,0c-0.5,0-2.4,0-2.7,0
		c-0.4,0-1.4,0-1.9,0s-2.2,0-2.7,0c-0.5,0-1,0-1.3-0.1c-0.1,0-1.1-0.5-1.5-0.8c-0.4-0.3-1.1-0.6-1.4-0.6c-0.3-0.1-0.4-0.3-0.5-0.3
		c0,0-0.4,0.3-0.4,0.4c-0.1,0.1-0.3,0-0.3,0s0.9-1,1.1-1.3C4.1,10,4.3,9.8,4.4,9.8s0.5,0,0.8,0S7,9.9,7.4,9.9c0.3,0,1.7,0.1,2,0.1
		s2,0,2.7,0c0.5,0,2.3,0,2.9,0c0.5,0,2-0.1,2.4-0.1c0.5,0,1.9-0.1,2.5-0.1s2,0,2.5,0c0.4,0,2.2,0,2.8,0s2.3,0.1,2.9,0.1
		s3,0.1,3.7,0.1s3.8,0.1,4.6,0.1c0.8,0,1.8,0,2.3,0c0.5,0,3.3-0.1,4.1-0.1s2.9,0,3.8,0s2.9,0.3,3.7,0.4c0.8,0.1,1.4,0.3,1.7,0.3
		c0.3,0,0.5,0,0.6,0.1s0.3,0.4,0.4,0.5c0.3,0.1,0.5,0.1,0.6,0.4c0.1,0.1,0.1,0.4,0.1,0.5s0.3,0.5,0.4,0.8c0,0.3,0,0.8-0.1,1
		c-0.4-0.1-0.6,0.3-1,0.5c-0.4,0.4-0.8,0.6-1.3,1c-0.4,0.4-1.1,0.9-1.5,1.4c-0.4,0.5-0.6,0.9-0.6,1.4c-0.1,0.5,0,0.8,0,0.9
		c0,0.1-0.1,0.3-0.3,0.4c-0.1,0.1-0.6,0.8-0.9,1c-0.1,0.3-0.5,0.8-0.6,0.9s-0.1,0.3-0.1,0.3l-0.1-0.3c0,0,0.3-0.3,0.3-0.4
		C48,21.1,48,20.7,48,20.1"/>
	<path class="st3" d="M6.3,14.1v-0.4c0,0,0.9,0,1.1,0c0.3,0.1,1.9,0.1,2.4,0.1c0.5,0,2.3,0,2.7,0s2.8,0,3.3,0c0.5,0,2.9,0,3.4,0
		s3.3,0,3.8,0c0.4,0,2.8,0,3.3,0c0.5,0,2.9,0,3.4,0s1.9,0,2.2,0s0.5,0,0.6,0c0,0,0.3-0.1,0.4,0c0.1,0,0.1,0.1,0.3,0.3
		c0,0.1,0.1,0.1,0.3,0.1c0,0,0.1,0.1,0.3,0.3c0.1,0.1,0.1,0.1,0.3,0.3c-0.1,0.1,0,0.1-0.1,0.1c0,0-0.3,0.3-0.3,0.4
		c-0.1,0.1-0.1,0.3-0.1,0.3h-0.3c0,0,0.1-0.1,0.1-0.3s-0.3-0.4-0.6-0.4s-1.3,0-1.7,0.1c-0.4,0-3.2,0.3-3.7,0.4c-0.5,0-4.3,0.3-5,0.4
		c-0.6,0-3.7,0.3-4.2,0.3c-0.6,0-2.8,0.1-3.6,0.3c-0.6,0-2.3,0.1-2.9,0.1s-1.8,0-2,0c-0.3,0-0.5-0.1-0.6-0.3C9,16,8,15.6,7.7,15.5
		c-0.3-0.1-0.8-0.3-0.9-0.4c-0.1-0.1,0-0.3,0-0.4c0-0.1,0-0.4-0.1-0.5C6.5,14.2,6.3,14.1,6.3,14.1"/>
	<path class="st3" d="M9.4,17.8v-0.3c0,0,0.4,0,0.6,0s1,0,1.7,0c0.5,0,2.8-0.1,3.4-0.1c0.8,0,3.9-0.3,4.4-0.3c0.6,0,4.8-0.4,5.3-0.4
		c0.6,0,4.1-0.4,4.6-0.4c0.5,0,2.3-0.3,3-0.3c0.6,0,0.8-0.1,0.9-0.1c0.1,0,0.1-0.1,0.3,0c0,0,0.3,0.3,0.4,0.4s0.5,0.4,0.5,0.5
		s-0.1,0.3-0.1,0.4s0,0.4,0,0.4h-0.5v-0.1c0,0,0-0.3-0.3-0.3c-0.1-0.1-0.5-0.1-0.8,0c-0.3,0-1.5,0.3-2.2,0.4
		c-0.5,0.1-3.6,0.6-4.3,0.8c-0.8,0.1-3.7,0.5-4.3,0.6s-3.4,0.5-4.3,0.5c-0.9,0.1-2,0.3-2.7,0.3s-1.3,0.1-1.8,0
		c-0.5,0-1.5-0.4-1.9-0.5c-0.5-0.1-1.1-0.3-1.3-0.4s-0.1-0.3-0.3-0.4c0-0.1-0.3-0.4-0.4-0.5C9.6,17.9,9.4,17.8,9.4,17.8"/>
	<path class="st3" d="M13.2,20.8c0,0,0.1,0,0.4,0c0.1,0,0.4-0.1,0.6-0.1s0.9,0,1.3,0s1.4-0.1,1.8-0.1c0.4,0,2.2-0.3,2.8-0.3
		c0.6-0.1,3.8-0.5,4.3-0.6c0.5-0.1,3.2-0.5,3.9-0.6c0.8-0.1,3.2-0.5,3.8-0.6c0.6-0.1,1.4-0.3,1.7-0.3s0.5-0.1,0.6-0.1
		s0.3,0.1,0.5,0.3c0.3,0.1,0.5,0.1,0.6,0.3c0.1,0,0.4,0.1,0.4,0.3c0,0,0,0.3-0.1,0.4s-0.1,0.3-0.1,0.4s0,0.3,0,0.3l-0.5-0.1
		c0,0,0-0.1,0-0.3s-0.3-0.3-0.4-0.3s-0.3,0-0.5,0.1c-0.1,0-2.5,0.8-2.9,0.9L28.6,21c-0.4,0.1-2.5,0.6-3.2,0.8
		c-0.6,0.1-2.9,0.6-3.4,0.6c-0.5,0.1-2.7,0.4-3.3,0.4c-0.5,0-0.6,0-1.1,0c-0.4,0-1.3-0.1-1.8-0.3c-0.5-0.1-1.1-0.1-1.3-0.3
		c-0.3,0-0.4-0.1-0.5-0.3c-0.1-0.3-0.1-0.4-0.3-0.5c-0.1-0.1-0.4-0.4-0.5-0.4c-0.1,0-0.3,0-0.4-0.1C13.1,21,13.2,20.8,13.2,20.8"/>
	<path class="st3" d="M17.8,24c0,0,1.5-0.1,1.9-0.3c0.4,0,2.8-0.4,3.3-0.5c0.6-0.1,3-0.6,3.6-0.8c0.5-0.1,3.2-0.8,3.7-1
		c0.5-0.1,2.4-0.6,2.8-0.8c0.5-0.1,1.9-0.6,2.2-0.6c0.1-0.1,0.4-0.1,0.5-0.1c0.1,0,0.6,0.1,0.8,0.3c0.1,0,0.6,0.1,0.6,0.3
		c0.1,0.1,0.1,0.1,0.1,0.3s0,0.8,0,0.8c0,0.1,0.1,0.3,0.1,0.3l-0.4,0.1c-0.1,0-0.3,0.1-0.3,0.1s0-0.1,0-0.3c0,0-0.3-0.1-0.4-0.3
		c-0.1,0-0.1,0-0.4,0c-0.1,0-0.6,0.3-0.9,0.4c-0.3,0.1-1.7,0.6-2,0.8c-0.4,0.1-2,0.8-2.7,1c-0.5,0.1-2.9,1-3.4,1.1
		c-0.5,0.1-2,0.6-2.4,0.6c-0.4,0.1-0.5,0.1-0.9,0.1c-0.3,0-1.5-0.1-2-0.1c-0.5-0.1-1.9-0.3-2-0.4c-0.1,0-0.3-0.1-0.4-0.3
		s-0.3-0.3-0.4-0.4c-0.1-0.1-0.4-0.3-0.5-0.3c-0.1,0-0.3-0.1-0.4-0.1C18,24.1,17.9,24.1,17.8,24L17.8,24"/>
	<path class="st3" d="M24.2,26.7c0,0,0.5-0.1,0.6-0.1c0.1-0.1,1-0.3,1.3-0.4c0.3-0.1,1.1-0.4,1.5-0.5c0.4-0.1,2.2-0.8,2.5-0.9
		c0.4-0.1,2.5-0.9,2.9-1.1c0.4-0.1,2.8-1.1,3.2-1.3s0.6-0.3,0.8-0.4s0.5-0.3,0.6-0.3s0.5-0.1,0.8-0.1c0.1,0,0.3,0,0.4,0.1
		S39,21.8,39,22s0,0.5,0.1,0.5c0.1,0.1,0.4,0.3,0.6,0.3s0.5,0.1,0.6,0.1s0.1,0,0.1,0s-0.5,0.3-0.6,0.4l-0.6,0.3c0,0,0-0.1-0.1-0.1
		c0,0-0.3,0-0.5,0c-0.1,0-0.4,0.1-0.5,0.1c-0.1,0.1-1.8,1-2.2,1.1c-0.4,0.1-2.8,1.5-3.2,1.7c-0.4,0.1-1.9,1-2.3,1
		c-0.3,0.4-0.4,0.5-0.6,0.5c-0.3,0-0.8,0-1.3,0s-1.5,0-1.8,0c-0.3,0-0.8,0-1-0.1c-0.3-0.1-0.3-0.3-0.4-0.4c-0.1-0.1-0.4-0.4-0.5-0.4
		c-0.1,0-0.4,0-0.4,0C24.2,26.9,24.2,26.7,24.2,26.7"/>
	<path class="st3" d="M30.1,28.7c0,0,1.9-1,2.3-1.1c0.3-0.1,3.3-1.7,3.6-1.8c0.4-0.3,2.5-1.4,3-1.7c0.5-0.3,1.1-0.6,1.3-0.6
		c0.1-0.1,0.1-0.1,0.3-0.3c0.1,0,0.3,0,0.3,0s0.1,0.3,0.3,0.4c0.1,0.1,0.4,0.4,0.6,0.4s0.4,0,0.5,0c0.1,0,0.5-0.1,0.5-0.1
		s-0.8,0.6-0.9,0.8c-0.1,0.1-1.7,1.4-2,1.7c-0.3,0.3-1.4,1.1-1.7,1.4c-0.3,0.3-1.1,0.8-1.3,0.9s-0.6,0.3-0.9,0.4
		c-0.3,0.1-1.7,0.4-2,0.5c-0.5,0.1-1.5,0.3-1.7,0.3c-0.3,0-0.5,0-0.6-0.1c-0.1-0.1-0.3-0.5-0.5-0.5C30.8,29,30.7,29,30.6,29
		C30.1,28.8,30.1,28.7,30.1,28.7"/>
	<path class="st3" d="M35.8,30c0,0,1-0.8,1.3-1c0.3-0.1,1.1-0.9,1.4-1.1c0.3-0.3,1.4-1.1,1.8-1.4c0.4-0.3,1.4-1.1,1.7-1.4
		s0.8-0.8,0.8-0.8s0,0.3,0.1,0.3c0.1,0.1,0.3,0.3,0.5,0.4C43.5,25,43.8,25,44,25c0.3,0,0.4,0,0.5,0c0.1,0,0.3,0,0.3,0.1s0,0.3,0,0.4
		s0,0.1,0,0.1l-1.5,1.8c-0.3,0.4-1.1,1.3-1.5,1.7c-0.3,0.3-1,1-1.1,1.1c-0.1,0.1-0.4,0-0.5-0.1c-0.3-0.1-0.4,0-0.6,0
		c-0.3,0-0.6,0.1-1,0.3c-0.3,0-0.9,0.3-1.1,0.3c-0.1,0-0.4,0-0.5-0.1c-0.1-0.1-0.4-0.4-0.5-0.5c-0.1,0-0.3-0.1-0.4,0
		C36.2,29.8,35.9,30,35.8,30"/>
	<path class="st3" d="M41,30.2c0,0,1-1.1,1.3-1.3c0.3-0.3,1.5-1.7,1.8-1.9c0.3-0.3,0.8-0.9,0.9-1c0.1-0.1,0.3-0.3,0.3-0.3
		s0.4,0,0.6,0s0.6-0.1,0.6-0.1c0.1,0,0.1,0.1,0.1,0.1c0,0.1,0,0.8,0,1c0,0.3,0,0.8,0,1c0,0.1-0.6,1.3-0.8,1.7
		c-0.1,0.3-0.5,1-0.5,1.1c0,0.1-0.1,0.1-0.1,0.3c0,0-0.1-0.1-0.3-0.3c-0.1-0.3-0.4-0.3-0.6-0.1c-0.3,0-1.3,0.4-1.5,0.4
		c-0.3,0-0.5,0.1-0.8,0.1c-0.1,0-0.3-0.1-0.4-0.3c-0.1-0.1-0.3-0.3-0.4-0.3C41.1,30.2,41,30.2,41,30.2"/>
	<path class="st3" d="M46.1,29.5c0,0,0.3-0.6,0.3-0.8s0.1-0.3,0.1-0.3s0.1,0.4,0.1,0.5s0.3,0.3,0.3,0.5c0,0.1,0.3,0.8,0.4,0.9
		c0,0.1,0.1,0.3,0.1,0.4c0,0.1,0,0.1,0,0.3s0.1,0.1,0,0.1s-0.3,0.1-0.4,0.1c0,0-0.3,0-0.3-0.1c0-0.1-0.3-0.1-0.4-0.3
		s-0.1-0.3-0.1-0.4c0-0.1,0.1-0.6,0-0.8C46.2,29.7,46.1,29.5,46.1,29.5"/>
	<path class="st3" d="M40.9,31.6c0,0,0.4,0.4,0.5,0.4c0.3,0,0.3,0,0.4-0.1c0.1,0,0.3,0,0.4,0s0.1,0.1,0.1,0.3s0.1,0.4,0.1,0.6
		c0.1,0.3,0.5,1.1,0.8,1.5c0.3,0.4,1,1.5,1.3,1.9c0.4,0.4,1.4,1.5,1.7,1.8c0.3,0.3,1.7,1.4,2.2,1.8c0.5,0.4,1.7,1.1,2.4,1.5
		c0.8,0.4,1.7,0.8,1.9,0.9c0.3,0.1,0.4,0.1,0.4,0.1c0,0.1,0.1,0.1,0.1,0.1l-0.1,0.4l-0.3,0.4L52.4,43c0,0,0.1-0.1,0.1-0.3
		c0-0.1-0.1-0.3-0.3-0.3c-0.1-0.1-0.9-0.4-1.1-0.5c-0.3-0.1-1.7-0.9-2.2-1.1c-0.5-0.3-1.7-1.1-2.3-1.5c-0.5-0.5-1.8-1.7-2.2-2
		c-0.4-0.5-1.3-1.5-1.5-1.9c-0.3-0.4-1-1.8-1.1-2c-0.1-0.4-0.3-0.6-0.4-0.8c-0.1-0.1-0.1-0.1-0.3-0.1H41c0,0,0-0.1-0.1-0.4
		C40.9,31.7,40.9,31.6,40.9,31.6"/>
	<path class="st3" d="M42.3,31.9c0,0,0.3,0,0.5-0.1c0.3-0.1,0.9-0.3,1.1-0.4c0.3-0.1,0.5-0.3,0.6-0.3s0.3-0.1,0.3,0
		c0.1,0,0.1,0,0.3,0.1c0.1,0.1,0.3,0.4,0.3,0.5c0.1,0.1,0.3,0.3,0.5,0.3s0.5,0,0.6-0.1c0.3-0.1,0.5-0.4,0.6-0.4s0.3-0.1,0.3-0.1
		l0.1,0.1l0.1,0.1c0,0,0.5,0.9,0.9,1.1c0.3,0.4,0.8,0.8,1,1.1c0.3,0.3,1.1,1,1.5,1.3c0.4,0.3,1.3,0.9,1.8,1.1c0.4,0.3,1,0.5,1.4,0.6
		c0.4,0.1,0.9,0.4,1,0.4c0.1,0,0.1,0.1,0.3,0.1c0.1,0.1,0.1,0.1,0.1,0.3c0,0.1-0.5,0.8-0.6,1.1c-0.3,0.4-0.5,0.9-0.8,1.1
		c-0.1,0.3-0.5,0.9-0.6,1.1c-0.1,0.3-0.4,0.6-0.4,0.8h-0.1c0,0,0.1-0.1,0.1-0.4c0-0.1-0.1-0.4-0.3-0.5c-0.1-0.1-0.4-0.3-0.5-0.3
		c-0.1-0.1-0.9-0.4-1.3-0.6c-0.4-0.3-1.1-0.6-1.7-1c-0.5-0.4-1.1-0.8-1.7-1.1c-0.4-0.4-1-0.9-1.4-1.3c-0.4-0.4-1-1-1.4-1.5
		c-0.4-0.5-0.9-1.3-1.1-1.7c-0.3-0.5-0.5-1.1-0.6-1.1c-0.1-0.1-0.3-0.3-0.4-0.4c-0.3,0-0.3-0.1-0.4-0.1C42.5,32,42.4,32,42.3,31.9
		L42.3,31.9"/>
	<path class="st3" d="M33.6,13c0,0,1.7,0,2,0c0.5,0,1.8,0,2,0c0.1,0,0.4,0,0.4,0.1h0.1c0,0,0.1,0.1,0,0.3c0,0-0.1,0.3-0.1,0.4
		c0,0.1,0,0.3-0.1,0.3h-0.4v-0.1c-0.1,0-0.3-0.1-0.4-0.1s-1,0.1-1.3,0.1c-0.3,0-1,0.1-1.1,0.1c-0.1,0-0.3,0-0.4,0s-0.5-0.3-0.6-0.3
		c-0.1-0.1-0.1-0.1-0.3-0.1h-0.1l0.1-0.3C33.5,13.1,33.6,13,33.6,13"/>
	<path class="st3" d="M34,15.2c0,0,0.1-0.3,0.3-0.3c0,0,0.4-0.1,0.6-0.3c0.1,0,0.9-0.3,1.3-0.3c0.4-0.1,1-0.1,1.3-0.3
		c0.3-0.1,0.5-0.1,0.6-0.1s0.3,0,0.4,0.1c0.1,0.1,0.3,0.3,0.4,0.3c0.1,0.1,0.1,0.3,0.1,0.3c0,0.1-0.1,0.1-0.1,0.1c0,0.1,0,0.1,0,0.1
		c0,0.1,0,0.3,0,0.3l-0.3,0.1h-0.1c0,0,0.1-0.1,0-0.3c0,0-0.3-0.1-0.4-0.1s-0.8,0.1-0.9,0.3c-0.1,0-0.9,0.3-1.1,0.4
		c-0.3,0.1-0.5,0.1-0.6,0.1c-0.3,0-0.4-0.1-0.5-0.1c-0.1-0.1-0.3-0.1-0.3-0.1C34.1,15.4,34,15.2,34,15.2"/>
	<path class="st3" d="M34.8,17c0,0,0-0.1,0.1-0.3c0.1,0,0.3-0.1,0.4-0.1s0.4-0.1,0.8-0.3c0.4-0.1,1-0.3,1.3-0.4
		c0.3-0.1,0.9-0.3,1-0.4c0.1,0,0.4-0.1,0.5-0.1c0.1,0,0.4,0.1,0.6,0.1c0.1,0,0.4,0.1,0.4,0.3c0,0.1,0,0.3-0.1,0.4
		c0,0.1-0.1,0.1-0.1,0.3s0,0.3,0,0.3s-0.1,0.1-0.3,0.1h-0.1c0,0,0-0.1,0-0.3c-0.1-0.1-0.3-0.1-0.4-0.1s-0.8,0.3-0.9,0.4
		c-0.3,0.1-0.8,0.4-1,0.5c-0.3,0.1-0.4,0.1-0.5,0.1c-0.3,0-0.4,0-0.5-0.1c-0.1-0.1-0.4-0.1-0.5-0.3C34.9,17,34.8,17,34.8,17"/>
	<path class="st3" d="M36,18.5l0.8-0.4c0.3-0.1,1.1-0.5,1.5-0.6c0.3-0.1,0.8-0.4,0.9-0.4c0.1,0,0.3-0.1,0.4-0.1s0.4,0,0.5,0.1
		c0.1,0,0.4,0,0.4,0.1s0.1,0.3,0,0.4c0,0-0.1,0.3-0.1,0.4s0,0.3,0,0.3h-0.1c-0.1,0-0.3,0.1-0.3,0.1s0-0.1-0.1-0.3S39.6,18,39.5,18
		s-0.6,0.4-0.9,0.5c-0.3,0.1-0.8,0.5-0.8,0.5c-0.1,0-0.1,0.1-0.4,0.1s-0.4,0-0.5-0.1c-0.1,0-0.4-0.3-0.5-0.3
		C36.3,18.8,36,18.7,36,18.5L36,18.5"/>
	<path class="st3" d="M37.4,20.3c0,0,0.8-0.5,1-0.6s1.1-0.6,1.4-0.8c0.3-0.1,0.6-0.4,0.8-0.4s0.5,0,0.8,0c0.3,0,0.4,0,0.4,0.1
		s0,0.1,0,0.3s0,0.4,0,0.4l-1.5,1c-0.3,0.1-0.8,0.6-0.9,0.8c0,0-0.3-0.1-0.5-0.3c-0.3-0.1-0.4-0.1-0.5-0.1c-0.1,0-0.3-0.1-0.4-0.1
		c-0.1-0.1-0.1-0.1-0.3-0.1C37.7,20.3,37.4,20.5,37.4,20.3L37.4,20.3L37.4,20.3z"/>
	<path class="st3" d="M39.2,21.6c0,0,0.4-0.4,0.6-0.5c0.3-0.3,1-0.9,1.3-1c0.3-0.1,0.8-0.6,0.8-0.6c0.1,0,0.1-0.1,0.3-0.1
		c0.1,0,0.4-0.1,0.4-0.1s0.3,0,0.3,0.1s0.1,0.4,0.1,0.5s0,0.3,0,0.3l0.1,0.1c0,0-0.1,0.1-0.3,0.3c-0.1,0.1-0.6,0.5-0.8,0.8
		c-0.3,0.1-0.6,0.6-0.8,0.8s-0.4,0.4-0.4,0.4s0-0.3-0.1-0.4s-0.5-0.1-0.6-0.1s-0.4-0.1-0.5-0.3c-0.1,0-0.3,0-0.3,0
		S39.2,21.7,39.2,21.6"/>
	<path class="st3" d="M41.1,22.7l1-1c0.3-0.3,0.9-0.8,1-1c0.1-0.1,0.3-0.3,0.5-0.4c0.1-0.1,0.4-0.1,0.5-0.1c0.1,0,0.1,0.1,0.3,0.3
		c0,0.1,0.1,0.4,0.4,0.4c0.3,0.1,0.4,0.1,0.5,0.1c0.1,0,0.1,0,0.1,0s-0.3,0.3-0.4,0.4s-0.5,0.5-0.8,0.8c-0.3,0.3-0.8,0.8-1,0.9
		c-0.1,0.1-0.4,0.4-0.4,0.4s0-0.1-0.1-0.3S42.4,23,42.3,23c-0.1,0-0.3,0-0.4-0.1s-0.3-0.1-0.3-0.3c0,0-0.3,0-0.3,0.1
		C41.2,22.7,41.1,22.7,41.1,22.7"/>
	<path class="st3" d="M43.2,23.6c0,0,0.5-0.5,0.9-0.8c0.3-0.3,0.8-0.8,1-1s0.6-0.6,0.6-0.6s0.1,0.1,0.3,0.1c0.3,0,0.4,0,0.5,0
		c0.1,0,0.4,0,0.5-0.1c0.1-0.1,0.1-0.1,0.1-0.1s-0.1,0.1-0.3,0.4c-0.1,0.1-0.5,0.8-0.8,1.1c-0.3,0.4-0.8,1.1-0.9,1.3
		c-0.1,0.1-0.3,0.5-0.4,0.5c0,0.1-0.1,0.1-0.1,0.1s0-0.1-0.1-0.4c0-0.1-0.1-0.1-0.3-0.1s-0.1,0-0.4-0.1c-0.1-0.1-0.3-0.3-0.4-0.3
		s-0.1,0-0.3,0C43.3,23.8,43.2,23.6,43.2,23.6"/>
	<path class="st3" d="M47.2,21.6c0,0,0.1,0.1,0.1,0.3c0.1,0.1,0.1,0.1,0.1,0.3c0,0.1-0.4,0.6-0.4,0.9c-0.1,0.1-0.3,0.9-0.4,1.1
		c0,0.3-0.1,0.5-0.3,0.6c-0.1,0.1-0.1,0.3-0.1,0.4v0.3l-0.1,0.1h-0.1v-0.3c0-0.1-0.1-0.3-0.1-0.4c-0.1-0.1-0.1-0.3,0-0.5
		s0.1-0.5,0.3-0.6c0.1-0.1,0.1-0.4,0.3-0.8c0.1-0.4,0.3-0.5,0.4-0.8s0.3-0.4,0.3-0.5C47.2,21.7,47.2,21.6,47.2,21.6"/>
	<path class="st3" d="M38.6,13.1c0,0,0.6,0,1.1,0c0.5,0,1.1,0,1.4,0c0.4,0,0.9,0.1,1,0.1c0.3,0,0.5,0,1,0c0.5,0,1.4,0,2,0.1
		c0.6,0.1,1.1,0.3,1.7,0.4c0.5,0.1,1.4,0.5,1.7,0.9c0.3,0.4,0.5,0.6,0.5,1s-0.3,0.9-0.4,1.1c-0.1,0.3-0.5,0.9-0.5,0.9
		c0,0.1-0.6,0.6-0.8,0.8c-0.3,0.3-0.9,1-1.1,1.3s-0.5,0.6-0.5,0.6c-0.1,0.1-0.3,0.3-0.3,0.3h-0.1c0,0,0.1-0.1,0.1-0.3
		c0-0.1-0.1-0.4-0.3-0.4c-0.1-0.1-0.1-0.1-0.3,0c-0.1,0-0.1,0-0.3,0.1h-0.1c0,0,0.3-0.4,0.4-0.5s0.5-0.5,0.6-0.6
		c0.1-0.1,0.3-0.3,0.3-0.3s0.3,0.1,0.4,0c0.1,0,0.4-0.4,0.4-0.5c0-0.1-0.1-0.4-0.3-0.5c-0.1-0.1-0.4-0.1-0.4-0.1
		c-0.1,0-0.3,0-0.4,0.1c-0.1,0-0.1,0-0.1,0s0-0.1,0-0.3s0-0.3-0.1-0.4s-0.3-0.3-0.4-0.3s-0.3,0-0.4,0s0-0.1-0.1-0.3
		c0-0.1-0.1-0.4-0.4-0.4C43.9,16,43.7,16,43.7,16c-0.1,0-0.1,0-0.1-0.1c0-0.1,0-0.5-0.1-0.5c-0.1-0.1-0.3-0.3-0.4-0.3
		s-0.3,0-0.3-0.1c0,0,0.1-0.3,0.1-0.4s0-0.4-0.1-0.5c0-0.1-0.1-0.1-0.3-0.3c-0.1-0.1-0.1-0.3-0.3-0.3c0,0-0.1,0-0.3,0
		c-0.1,0-0.4,0-0.5,0.1c-0.1,0-0.3,0.1-0.4,0c-0.1,0-0.3-0.1-0.4-0.1s-0.5,0-0.6,0c-0.3,0-0.5,0-0.6,0s-0.3-0.1-0.5-0.1
		c-0.1,0-0.1-0.1-0.3-0.1c-0.1,0-0.1-0.1-0.1-0.1L38.6,13.1C38.6,13.1,38.6,13.1,38.6,13.1"/>
	<path class="st3" d="M39,14.6c0,0,0.5-0.3,0.8-0.3c0.4-0.1,1-0.3,1.3-0.4c0.3,0,0.5-0.1,0.6-0.1s0.3,0,0.4,0h0.1c0,0,0.1,0.1,0,0.1
		c0,0,0,0-0.1,0.1s-0.1,0.3-0.3,0.3c-0.1,0-0.4,0.1-0.6,0.1c-0.3,0.1-0.8,0.3-0.9,0.3c-0.1,0-0.3,0.1-0.5,0c-0.3,0-0.4-0.1-0.5-0.1
		c-0.1,0-0.1,0-0.1,0H39L39,14.6C39,14.7,39,14.6,39,14.6"/>
	<path class="st3" d="M39.8,15.9c0,0,0.5-0.3,0.9-0.4S41.9,15,42,15s0.4-0.1,0.4,0c0.1,0,0.1,0.1,0.1,0.1c0,0.1-0.1,0.3-0.3,0.4
		c-0.1,0-0.6,0.4-0.9,0.4c-0.3,0.1-0.6,0.4-0.8,0.4s-0.3,0-0.4-0.1c-0.1,0-0.1-0.1-0.3-0.1c-0.1,0-0.3,0-0.3,0S39.8,16,39.8,15.9
		L39.8,15.9"/>
	<path class="st3" d="M40.7,17.2c0,0,0.5-0.3,0.6-0.4s0.8-0.4,1-0.5c0.3-0.1,0.5-0.3,0.6-0.3s0.3,0.1,0.3,0.1c0,0.1,0,0.3,0,0.4
		c0,0.1-0.1,0.3-0.3,0.4c-0.3,0.3-0.4,0.3-0.5,0.4c-0.1,0.1-0.4,0.3-0.4,0.3c-0.1,0-0.3-0.1-0.4-0.1s-0.4-0.1-0.4-0.1
		s-0.1-0.1-0.3-0.1c-0.1,0-0.3,0-0.3,0H40.7L40.7,17.2z"/>
	<path class="st3" d="M42.1,18.3c0,0,0.3-0.3,0.5-0.5c0.1-0.1,0.6-0.4,0.8-0.5s0.4-0.3,0.4-0.3h0.1c0,0,0.1,0,0.3,0.1
		c0,0.1,0,0.1,0,0.3c0,0,0.1,0,0.1,0.1v0.1c0,0-0.4,0.4-0.6,0.5c-0.1,0.1-0.4,0.4-0.5,0.4c0,0-0.3-0.1-0.4-0.1S42.3,18.3,42.1,18.3
		C42.1,18.3,42.1,18.3,42.1,18.3"/>
	<path class="st3" d="M43.3,19.1c0,0,0.4-0.4,0.5-0.5c0.1-0.1,0.4-0.4,0.5-0.5c0.1-0.1,0.4-0.4,0.4-0.4s0.1,0,0.1,0.1
		s0.1,0.1,0.1,0.1h0.3c0,0,0.1,0,0.1,0.1s0,0.1,0,0.1h0.1v0.1c0,0-0.5,0.5-0.6,0.6c-0.3,0.1-0.5,0.5-0.5,0.6l-0.1,0.1
		c0,0-0.1-0.1-0.3-0.4c-0.1-0.1-0.3-0.3-0.4-0.3C43.4,19.1,43.3,19.1,43.3,19.1"/>
	<path class="st3" d="M46.1,20.3c0,0,0.3-0.4,0.5-0.6l0.6-0.6c0.1-0.1,0.1-0.3,0.1-0.3s-0.1,0.4-0.3,0.5c0,0.1-0.1,0.5-0.1,0.6
		s0,0.3-0.1,0.5c0,0.1,0,0.4,0,0.4S46.7,21,46.6,21c-0.1,0-0.1,0.1-0.1,0.1s0-0.3-0.1-0.4s-0.1-0.1-0.3-0.3
		C46.2,20.5,46.1,20.5,46.1,20.3L46.1,20.3L46.1,20.3z"/>
	<path class="st3" d="M52.4,10.3c0,0,0.5-0.1,0.8-0.3c0.3-0.1,1.9-0.6,2.4-0.8c0.6-0.1,2-0.5,2.8-0.6c0.9-0.1,2.5-0.3,4.1-0.3
		c1.4,0,2.7,0.1,3.3,0.1c0.6,0.1,2,0.4,2.5,0.5s1.5,0.4,2,0.5c0.5,0.1,1.3,0.5,1.7,0.6c0.3,0.1,0.5,0.1,0.5,0.3c0,0,0,0.1,0.3,0.3
		c0.3-0.1,0.5-0.1,0.5-0.1s-0.1,0.1-0.3,0.1s-0.3,0.1-0.4,0.1c-0.1,0-0.3,0.1-0.3,0.1s0-0.1-0.1-0.3c-0.1,0-0.5-0.3-0.9-0.4
		c-0.4-0.1-1-0.4-1.5-0.5c-0.5-0.1-1.5-0.5-2.3-0.6c-0.6-0.1-1.4-0.3-2-0.4c-0.6,0.1-2.2,0-3,0c-0.8,0-2.3,0.1-3,0.1
		c-0.8,0.1-2,0.3-2.7,0.5c-0.8,0.1-1.7,0.4-2,0.5c-0.4,0.1-0.9,0.4-1,0.4c-0.1,0-0.5,0-0.5,0c-0.1,0-0.3,0-0.3,0l-0.3,0.1
		C52.5,10.3,52.4,10.3,52.4,10.3"/>
	<path class="st3" d="M76,20.1c0,0-0.1-0.1-0.3-0.3c-0.1-0.1-0.1-0.6-0.3-0.9s-0.5-0.8-0.8-1s-0.6-0.8-1.7-1.3
		c-0.9-0.5-1.8-1-2.7-1.4s-1.7-0.6-2.7-0.9c-1.1-0.3-2.5-0.5-4.2-0.5c-1.7,0-2.9,0.1-3.9,0.3c-0.9,0.1-2.3,0.4-3.4,0.8
		c-1.1,0.4-1.5,0.5-1.9,0.8c-0.4,0.1-1.3,0.6-1.7,0.9c-0.4,0.3-0.9,0.6-1.1,0.8c-0.4,0.3-0.4,0.4-0.6,0.4c-0.3-0.1-0.4-0.4-0.4-0.4
		s0.3-0.3,0.5-0.5c0.3-0.3,0.8-0.6,1.1-1c0.4-0.3,1-0.9,1.1-1c0.1-0.1,0.4-0.5,0.4-0.5s0.1,0.3,0.3,0.1c0.1,0,0.5-0.3,0.6-0.5
		s0.5-0.9,0.4-1.4s-0.1-0.9-0.3-1c-0.1,0.1-0.4-0.1-0.5-0.1s-0.3,0-0.4,0c-0.1,0-0.3-0.1-0.3-0.1s0.4-0.1,0.6-0.3
		c0.1-0.1,1-0.4,1.5-0.5c0.5-0.1,1.1-0.3,1.8-0.4c0.6-0.1,1.7-0.3,2.5-0.4c0.8-0.1,1.9-0.1,2.4-0.1c0.6,0,2,0.1,2.7,0.1
		s1.8,0.1,2.4,0.4c0.6,0.1,1.9,0.5,2.5,0.6c0.5,0.3,1.3,0.4,1.3,0.5c0.1,0,0.1,0.1,0.3,0.1s0.3,0.1,0.3,0.1s-0.3,0.3-0.5,0.6
		c-0.5,0.9,0.1,2.2,1,2.8c1.1,0.9,3.2,2.2,3.6,4.1C76,19.3,76,20.1,76,20.1"/>
	<path class="st3" d="M76.8,19.1c-0.1-0.6-0.5-1.4-0.8-1.8s-0.5-0.9-0.9-1.5c-0.4-0.6-1.3-1.1-1.9-1.5c-0.5-0.4-1-1-1-1.7
		c0-0.3-0.1-0.6-0.5-0.5c0-0.1,0.1-0.3,0.4-0.4c0.4-0.3,0.9-0.6,1.4-0.8c0.5-0.3,1.8-0.5,2.4-0.6c0.5-0.1,2-0.4,2.7-0.4
		s1.7-0.1,2.2-0.1c0.5,0,1.7,0,2.4,0.1c0.8,0,2,0.1,2.7,0.1c0.8,0,2,0.1,2.7,0c0.5,0,1.7,0,2.2-0.1c0.5,0,2.7-0.1,3.3-0.1
		c0.6,0,2.5-0.1,3.3-0.1c0.6,0,2.8-0.1,3.4-0.1c0.6,0,3.3,0.1,3.9,0.1s2.3,0.1,2.9,0.1s1.5,0.1,2,0.1s2,0,2.3,0c0.4,0,1.5,0,2.2,0
		c0.6,0,2.3-0.1,2.9-0.3c0.6,0,2.2-0.3,2.7-0.3c0.5,0,1-0.1,1.3-0.1s0.5,0.3,0.5,0.3c0.1,0.1,0.4,0.4,0.6,0.6s0.4,0.5,0.5,0.6
		c0,0.1,0.1,0.3,0.1,0.4c0,0.1,0,0.3-0.1,0.3s-0.4,0.3-0.4,0.3s0-0.1-0.1-0.3c-0.1,0-0.4-0.1-0.5-0.1s-0.6,0.3-0.9,0.4
		s-0.8,0.4-1,0.4c-0.3,0-1.1,0-1.7,0.1c-0.6,0-2.3,0-3,0c-0.8,0-3.3,0-3.8,0c-0.5,0-2.8,0-3.6,0c-0.8,0-2.8,0-3.4,0s-3.6,0-4.2,0
		s-2.4,0-2.9,0s-1.1,0-1.8,0.1c-0.6,0-1.5,0.1-1.8,0.1c-0.3,0-0.6,0-0.8-0.1c-0.1,0-0.1,0-0.3-0.1c-0.1,0-0.3,0-0.3,0v-0.1
		c0,0,0.3,0,0.5-0.1c0.3,0,0.4-0.1,0.9-0.3c0.4-0.1,1.4-0.3,2-0.4c0.5-0.1,2.8-0.5,3.6-0.6c0.6-0.1,2.4-0.3,3-0.4
		c0.6,0,2.3-0.1,2.9-0.3c0.6,0,2-0.1,2.3-0.1c0.4,0,1.5,0,2,0s0.8,0,0.8,0l0.1-0.3c0,0-0.5,0-0.9,0c-0.4,0-1.5,0-1.8,0
		c-0.4,0-1.7,0-2.2,0c-0.5,0-1.1,0-1.8-0.1c-0.6,0-2.3,0-2.9,0c-0.6,0-2.4,0.3-3,0.3c-0.5,0.1-2.5,0.4-3.4,0.5
		c-0.9,0.1-2.3,0.4-2.9,0.5s-1.5,0.3-2.3,0.4c-0.8,0.1-2.3,0.1-2.8,0.1c-0.5,0-2.2,0-3,0c-0.8,0-2.2,0-3,0.1c-1.1,0.9-1.9,1-2.3,1.1
		c-0.4,0.1-0.9,0.3-1.1,0.5c-0.3,0.3-0.4,0.4-0.4,0.5s0,0.1,0,0.1l0.3,0.1c0,0-0.3,0.1-0.4,0.3c-0.1,0.1-0.3,0.4-0.3,0.5
		c0,0.3-0.1,0.8-0.1,0.9c0,0.3,0,0.3,0,0.5c0.1,0.1,0.4,0.8,0.5,1c0.3,0.1,0.6,0.8,0.6,0.9c0.1,0.1,0.3,0.4,0.4,0.6
		c0.1,0.3,0.4,0.6,0.4,0.8s0,0.4,0,0.6v1.1c0,0.1,0,0.4,0,0.4s-0.1,0.1-0.1,0.3c0,0.1-0.1,0.3-0.1,0.4c0,0.1-0.1,0.4-0.1,0.4
		l-0.1-0.3c0,0,0-0.3,0-0.6C77.3,21.2,76.8,20.2,76.8,19.1"/>
	<path class="st3" d="M76.4,14.5c0,0,0.1-0.3,0.5-0.5c0.3-0.3,0.8-0.4,1.1-0.5c0.3-0.1,1.4-0.4,1.9-0.4c0.5,0,1.9,0,2.4,0
		c0.5,0,1.3,0,1.7,0c0.3,0,0.8,0,1,0c0.3,0,0.9,0,1.1,0s0.5,0,0.6,0s0.3,0,0.4,0.1c0,0.1,0,0.1,0,0.3s0,0.3,0,0.3v0.1
		c0,0,0,0-0.1,0.1l-0.4,0.3c0,0,0,0,0-0.1s-0.3-0.3-0.4-0.3c-0.1,0-0.5,0-0.8,0c-0.1,0-0.6,0-0.8,0s-0.3,0-0.4,0c-0.1,0-0.1,0-0.3,0
		S84,14,84,14h-0.1c0,0-0.1,0,0,0.1s0.4,0.1,0.6,0.3c0.3,0,0.5,0.1,0.8,0.1s0.5,0.1,0.8,0.1s0.4,0,0.5,0s0.1,0,0.1,0.1s0,0.1,0,0.1
		s0,0.1,0,0.3v0.1c-0.4-0.1-0.6-0.1-0.8-0.1h-0.1V15c0,0-0.1-0.1-0.3-0.1s-0.6-0.1-0.8-0.3c-0.3,0-0.5-0.1-0.8-0.1s-0.4-0.1-0.5,0
		c-0.1,0-0.1,0.1-0.1,0.1h-0.1c0,0-0.1,0.1,0,0.1c0,0,0.3,0.1,0.4,0.3c0.1,0,0.6,0.3,0.9,0.3c0.3,0.1,0.6,0.3,0.8,0.3
		c0.3,0,0.4,0.1,0.5,0.3c0,0.1,0,0.3,0,0.3c-0.1,0.1-0.1,0.1-0.1,0.3v0.1l-0.4,0l-0.1,0.1c0,0,0.1-0.1,0-0.3c0-0.1-0.3-0.3-0.5-0.4
		c-0.3-0.1-0.6-0.3-0.9-0.4c-0.1,0-0.8-0.3-0.9-0.4c-0.1,0-0.3-0.1-0.4-0.1c-0.1,0-0.1,0.1-0.1,0.1l0.1,0.1c0,0.1,0,0.1,0,0.1l0,0
		c0,0,0.3,0.3,0.5,0.3c0.1,0.5,0.6,0.8,0.8,0.8c0.1,0.1,0.5,0.3,0.6,0.4c0,0,0.3,0.1,0.3,0.3s-0.1,0.3-0.1,0.3s0,0.1-0.1,0.1
		S84,17.5,84,17.5v-0.1c0,0-0.1-0.1-0.3-0.3s-0.8-0.5-0.9-0.5c-0.1-0.1-0.5-0.3-0.6-0.4C82.1,16.1,82,16,81.9,16
		c-0.1,0-0.3-0.1-0.4,0c-0.1,0.1-0.1,0.3-0.1,0.3l0.1,0.1l-0.1,0.1c0,0,0.3,0.3,0.5,0.4c0.3,0.1,0.8,0.5,0.9,0.6
		c0.3,0.1,0.6,0.4,0.6,0.4c0.1,0.1,0.1,0.1,0,0.3c0,0.1,0,0.1,0,0.1v0.1v0.1c0,0,0,0-0.1,0s-0.3,0-0.3,0s0,0,0-0.1s-0.1-0.1-0.1-0.3
		c-0.1-0.1-0.5-0.4-0.8-0.5c-0.3-0.1-0.6-0.4-0.8-0.5c-0.1-0.1-0.3-0.4-0.4-0.4c-0.1-0.1-0.3-0.1-0.4-0.1c-0.1,0-0.3,0.1-0.3,0.3
		c0,0.1,0,0.1,0,0.3c0.1,0,0.1,0.1,0.1,0.1s-0.1,0-0.1,0.1c0,0,0.4,0.4,0.5,0.5c0.1,0.1,0.8,0.6,0.9,0.6c0.1,0.1,0.4,0.4,0.4,0.5
		s0,0.3,0,0.4c0,0-0.1,0.1-0.3,0.1s-0.3,0-0.3,0v-0.1c0,0-0.3-0.3-0.5-0.4c-0.1-0.1-0.8-0.6-0.9-0.8c-0.3-0.1-0.4-0.4-0.5-0.5
		s-0.1-0.4-0.4-0.4c-0.1,0-0.4,0-0.5,0.1c-0.1,0.1-0.1,0.3,0,0.4c0.1,0,0.3,0.1,0.1,0.1l-0.1,0.1c0,0,0.1,0.1,0.4,0.3
		c0.3,0.3,0.6,0.5,0.8,0.6c0.1,0.1,0.5,0.5,0.5,0.5s0.1,0.3,0.1,0.4c0,0.1,0,0.3,0,0.4c0,0,0,0.1-0.1,0.1s-0.3,0-0.3,0h-0.1l0.1-0.1
		c0,0-0.1-0.3-0.3-0.4c-0.1-0.1-0.8-0.6-0.9-0.8c-0.3-0.3-0.5-0.5-0.6-0.6c-0.1-0.1-0.1-0.4-0.1-0.6c-0.1-0.1-0.4-0.4-0.5-0.5
		c-0.1-0.1-0.5-0.8-0.6-1.1c-0.1-0.4-0.4-0.6-0.4-0.9s0-0.5,0-0.6s-0.1-0.3-0.3-0.3C76.7,14.5,76.4,14.5,76.4,14.5"/>
	<path class="st3" d="M77.8,18.8c0,0,0.5,0.5,0.6,0.6c0.1,0.1,0.4,0.3,0.5,0.3s0.4,0.4,0.5,0.4c0.1,0.1,0.3,0.3,0.3,0.4
		c0,0.1-0.1,0.4-0.1,0.5c-0.1,0.1-0.1,0.1-0.3,0.1s-0.3,0-0.3,0s0.1,0,0.1-0.1s0-0.1-0.1-0.3s-0.1-0.1-0.4-0.4
		c-0.3-0.1-0.4-0.4-0.4-0.4h-0.1h-0.1c0,0,0-0.4-0.1-0.5c0-0.1-0.1-0.4-0.1-0.4C77.8,18.9,77.8,18.8,77.8,18.8"/>
	<path class="st3" d="M77.8,22.6c0,0,0.1-0.3,0.1-0.4s0.1-0.3,0.1-0.4v-0.1c0,0,0.3,0.3,0.3,0.4c0.1,0.1,0.3,0.3,0.4,0.4
		c0.1,0.1,0.5,0.6,0.6,0.9c0.1,0.3,0.6,0.9,0.8,1c0.1,0.1,0.4,0.5,0.4,0.6c0,0.1,0,0.3-0.1,0.4c0,0.1-0.1,0.3-0.1,0.3H80l0.1-0.1
		c0,0-0.1-0.3-0.3-0.4s-0.5-0.3-0.5-0.4c-0.1-0.1-0.3-0.6-0.4-0.9c-0.1-0.3-0.4-0.6-0.5-0.8s-0.3-0.4-0.3-0.4s0,0-0.1,0
		C77.8,22.7,77.8,22.6,77.8,22.6"/>
	<path class="st3" d="M78.2,21.3c0,0,0.3,0.1,0.5,0.1c0.1,0,0.4,0,0.4,0s0.1-0.1,0.3-0.3c0.1,0,0.4,0,0.5,0.1s1,1,1.1,1.1
		c0.1,0.1,0.6,0.6,0.9,0.8c0.1,0.1,0.5,0.4,0.5,0.5c0,0.1,0.1,0.3,0,0.3l-0.1,0.1c0,0.1,0,0.3-0.1,0.3c0,0-0.1,0.1-0.3,0.1
		s-0.3,0-0.3,0l0.1-0.1c0-0.1,0-0.3-0.1-0.3c-0.1-0.1-0.3-0.1-0.4-0.3c-0.1-0.1-0.4-0.3-0.5-0.4c-0.1-0.1-0.4-0.5-0.6-0.8
		c-0.1-0.1-0.5-0.6-0.6-0.8c-0.1-0.1-0.4-0.3-0.5-0.4c-0.3,0-0.3,0-0.3,0l-0.1,0.1c0,0-0.1,0-0.1-0.1C78.3,21.7,78.2,21.3,78.2,21.3
		"/>
	<path class="st3" d="M79.8,21c0,0,0,0,0-0.1c0-0.1,0-0.3,0.1-0.1c0,0,0.3,0.1,0.4,0.1c0.1,0,0.1,0,0.1,0s0.1-0.1,0.3-0.1
		s0.3,0,0.3,0s0.1,0,0.4,0c0.1,0.1,0.8,0.5,0.9,0.6c0.3,0.1,1,0.8,1.3,1c0.3,0.1,0.5,0.4,0.5,0.4c0.1,0.1,0.3,0.3,0.3,0.4
		c0,0.1-0.1,0.3-0.1,0.3c0,0.1,0,0.3,0,0.3s-0.1,0.1-0.3,0.1h-0.3l0.1-0.1c0-0.1,0-0.1-0.1-0.3s-0.3-0.1-0.4-0.3
		c-0.1-0.1-0.5-0.4-0.6-0.5c-0.3-0.1-0.8-0.8-0.9-0.9s-0.5-0.5-0.6-0.5s-0.4-0.1-0.5-0.1s-0.3,0-0.3,0l-0.1,0.1c-0.1,0,0,0,0,0
		S80,21.2,79.8,21C79.8,21.1,79.8,21,79.8,21"/>
	<path class="st3" d="M81.2,20.1v-0.1c0,0,0.1,0,0.3,0s0.3,0,0.5,0c0.1,0,0.1,0,0.3-0.1s0.1-0.1,0.3-0.1c0.1-0.1,0.1-0.1,0.1-0.1
		c0.1,0,0.3,0,0.4,0c0,0,0.5,0.4,0.8,0.5s1,0.6,1.3,0.8c0.3,0.1,0.8,0.4,0.9,0.5s0.3,0.3,0.3,0.4S86.1,22,86.1,22
		c0,0.1,0,0.1-0.1,0.3c0,0.1,0,0.1,0,0.1l-0.4,0.1l0.1-0.1c0-0.1-0.1-0.1-0.3-0.3S85,22,84.9,22s-0.5-0.3-0.6-0.4s-0.6-0.5-0.9-0.6
		s-0.5-0.4-0.6-0.5s-0.4-0.1-0.6-0.1c-0.1,0-0.4,0-0.4,0l-0.1,0.1C81.4,20.2,81.4,20.2,81.2,20.1C81.2,20.2,81.2,20.1,81.2,20.1"/>
	<path class="st3" d="M83.4,18.9c0,0,0.3,0,0.3-0.1c0-0.1,0-0.4,0-0.4c0-0.1,0-0.1,0-0.1s0.1,0.1,0.3,0.1s0.3,0,0.4,0.1
		c0.1,0.1,1,0.5,1.4,0.6c0.4,0.1,1.3,0.6,1.5,0.6c0.3,0.1,0.6,0.3,0.8,0.4c0,0.1,0.1,0.3,0,0.4c-0.1,0.1-0.1,0.1-0.1,0.3
		s0.1,0.1,0,0.3c0,0-0.3,0-0.3,0.1c-0.1,0-0.3,0-0.3,0s0.1,0,0.1-0.1c0-0.1-0.1-0.3-0.3-0.3s-0.4,0-0.5-0.1c-0.1,0-0.3-0.1-0.5-0.3
		c-0.3-0.1-0.8-0.5-1-0.6c-0.3-0.1-0.8-0.4-0.9-0.5c-0.1-0.1-0.3-0.1-0.4-0.1c-0.1,0-0.3,0-0.3,0C83.5,18.9,83.4,18.9,83.4,18.9"/>
	<path class="st3" d="M84.8,17.5c0,0,0-0.1,0.1-0.3c0-0.1,0-0.3,0-0.3s0.1,0,0.3,0s0.3,0,0.3,0c0.1,0,0.5,0.1,0.6,0.3
		s1.1,0.4,1.5,0.5c0.4,0.1,0.9,0.4,1.1,0.4c0.3,0.1,0.4,0.1,0.5,0.3c0.1,0.1,0.1,0.3,0.1,0.4c0,0.1,0,0.3,0,0.3
		c-0.1,0.1-0.1,0.1-0.1,0.1s0,0.1,0,0.3c0,0-0.1,0-0.3,0.1c-0.1,0-0.3,0-0.3,0s0.1-0.1,0-0.3c-0.1-0.1-0.1-0.1-0.4-0.3
		c-0.3-0.1-0.8-0.3-0.9-0.4c-0.3-0.1-1-0.5-1.3-0.5c-0.3-0.1-0.8-0.3-0.9-0.4c-0.1,0-0.3-0.1-0.3-0.1C85,17.5,84.8,17.5,84.8,17.5"
		/>
	<path class="st3" d="M85.9,16.1v-0.4h0.3c0.1,0,0.3,0,0.5,0c0.3,0,1.3,0.4,1.8,0.4c0.4,0.1,1,0.3,1.4,0.3c0.4,0,0.6,0,0.6,0.1
		c0.1,0.1,0.1,0.4,0,0.5c0,0.1,0,0.5,0,0.5s-0.3,0.1-0.4,0.1c-0.1,0-0.1,0.1-0.1,0.1s0-0.1,0-0.3c-0.1-0.1-0.4-0.3-0.6-0.3
		s-0.9-0.3-1.3-0.4c-0.4-0.1-0.9-0.3-1.1-0.4c-0.3,0-0.4-0.1-0.5-0.3c-0.1-0.1-0.3-0.3-0.4-0.3C86.1,16.1,85.9,16.1,85.9,16.1"/>
	<path class="st3" d="M86.7,14.6v-0.1l0.3-0.1c0,0,0.1,0,0.4,0c0.3,0,1.1,0.1,1.5,0.1c0.4,0,1.3,0.1,1.7,0.3c0.3,0,0.6,0,0.9,0
		s0.3,0.3,0.3,0.4s0,0.4,0,0.4s-0.1,0.1-0.3,0.3S91.1,15.9,91,16c-0.1,0,0-0.1,0-0.3c0,0-0.1-0.1-0.4-0.1c-0.3,0-0.5-0.1-0.8-0.1
		s-1-0.3-1.3-0.3S88,15.1,87.7,15s-0.4-0.3-0.5-0.4C86.8,14.6,86.7,14.6,86.7,14.6"/>
	<path class="st3" d="M87.3,13.5c0,0,0-0.1,0-0.3v-0.1c0,0,0.4,0,0.6,0s1-0.1,1.4-0.3c0.5-0.1,1.3-0.3,1.7-0.3c0.3,0,0.6-0.1,0.8,0
		c0.1,0,0.3,0.1,0.3,0.3s0.1,0.4,0.1,0.5s0.1,0.3,0.1,0.4c0,0-0.1,0.3-0.3,0.4c-0.1,0.1-0.4,0.4-0.4,0.4s0-0.3,0-0.4
		c-0.3-0.3-0.5-0.4-0.6-0.4c-0.3,0-1-0.1-1.3-0.1s-1,0-1.3,0c-0.4,0-0.6-0.1-0.8-0.1s-0.1,0-0.1,0C87.3,13.3,87.3,13.5,87.3,13.5"/>
	<path class="st3" d="M91.9,14.4c0,0,0.4-0.4,0.4-0.5c0.1-0.1,0.1-0.3,0.3-0.3c0,0,0.3,0,0.4,0c0.1,0,1.4,0,1.7,0c0.3,0,2.4,0,2.9,0
		s3.4,0,3.9,0c0.5,0,2.7,0,3.3,0c0.5,0,3.3,0,3.9,0s4.1,0,4.6,0c0.5,0,3.2,0,3.7-0.1c0.5,0,1.4,0,1.7,0c0.3,0,0.5,0,0.6,0
		s0.1,0.1,0.1,0.3s0.3,0.6,0.3,0.8c0.1,0.3,0.1,0.5,0.1,0.6s0,0.4,0,0.4l-0.4,0.3h-0.1v-0.1c0-0.1-0.3-0.3-0.4-0.3
		c-0.1,0-0.3,0-0.5,0.1c-0.3,0.1-0.9,0.3-1.3,0.4c-0.4,0.1-0.5,0.1-1.1,0.1s-2,0-2.7,0s-2.4-0.1-3.3-0.1s-3-0.1-3.8-0.1
		c-0.8,0-3-0.1-3.6-0.3c-0.5,0-3.3-0.3-3.8-0.3S95.3,15,94.9,15c-0.5,0-1.4-0.1-1.8-0.1c-0.3,0-0.8,0-0.9-0.1
		c-0.1,0-0.1-0.1-0.3-0.1C92.2,14.4,91.9,14.4,91.9,14.4"/>
	<path class="st3" d="M90.8,16.5c0,0,0.4-0.3,0.5-0.4s0.4-0.3,0.4-0.4c0-0.1,0-0.1,0-0.1s1.3,0,1.5,0s1.7,0.1,1.9,0.1
		c0.4,0,2.5,0.1,3.2,0.3c0.6,0,3.7,0.3,4.3,0.3s3,0.1,3.6,0.3c0.6,0,2.9,0.1,3.7,0.1c0.8,0,3.3,0.1,3.8,0.1s1.9,0,2.2,0s0.6,0,0.8,0
		s0.4,0,0.4,0.3c0,0.1,0,0.9-0.1,1.1c-0.1,0.3-0.3,0.6-0.4,0.8c-0.1,0.1-0.4,0.3-0.4,0.3s0.1-0.1,0-0.3c0-0.1-0.3-0.3-0.4-0.3
		c-0.1,0-0.9,0.3-1.3,0.3s-1,0.1-1.5,0.1c-0.5,0-1.5,0-2.2-0.1c-0.5,0-2-0.1-2.8-0.3s-2.8-0.3-3.7-0.4s-2.8-0.4-3.6-0.4
		c-0.6-0.1-2.8-0.4-3.4-0.5s-2.2-0.3-2.5-0.4s-1.8-0.3-2.2-0.4c-0.4,0-0.6-0.1-0.8-0.1s-0.3,0-0.5,0c-0.3,0-0.1,0-0.3,0
		S90.9,16.5,90.8,16.5C90.9,16.5,90.8,16.5,90.8,16.5"/>
	<path class="st3" d="M89.7,18.4c0,0,0.4-0.1,0.5-0.1c0.1-0.1,0.5-0.1,0.5-0.3c0.1-0.1,0.1-0.1,0.1-0.3s0-0.1,0-0.1s0.5,0,0.8,0
		s1.3,0.1,1.7,0.3c0.4,0,2,0.3,2.4,0.4c0.5,0,3.4,0.5,4.1,0.5c0.6,0.1,3.2,0.4,3.7,0.5c0.5,0,3.4,0.4,3.8,0.4c0.5,0,2.2,0.3,2.7,0.3
		c0.5,0,1.8,0.1,2.3,0.1c0.5,0,0.9,0,1,0c0.1,0,0.3,0.1,0.3,0.3c0,0.1-0.1,0.9-0.1,1.1c0,0.1-0.1,0.5-0.3,0.6s-0.1,0.3-0.3,0.3
		c-0.1,0.1-0.1,0.1-0.1,0.1s0.1-0.1,0-0.3c0-0.1-0.3-0.3-0.4-0.3c-0.1,0-0.5,0.1-0.8,0.1s-0.8,0.1-1.1,0.1s-0.8,0-1,0
		c-0.3,0-0.6,0-1-0.1c-0.4,0-1.8-0.3-2.2-0.4c-0.5-0.1-2-0.4-2.7-0.5c-0.6-0.1-3-0.6-3.4-0.6c-0.5-0.1-2.2-0.5-2.7-0.6
		c-0.4-0.1-2.3-0.5-2.8-0.6c-0.4-0.1-1.7-0.4-2-0.5c-0.4-0.1-1-0.3-1.1-0.3s-0.4-0.1-0.5,0c-0.1,0-0.5,0.1-0.6,0.1s-0.1,0-0.3,0
		C89.9,18.5,89.7,18.4,89.7,18.4"/>
	<path class="st3" d="M88.3,20.1c0,0,0.4,0,0.5,0s0.5-0.1,0.6-0.1s0.3-0.1,0.3-0.1c0-0.1,0-0.4,0-0.4c0-0.1,0.1-0.3,0.1-0.3
		s0.4,0.1,0.5,0.1s0.6,0.1,0.9,0.1s2.5,0.6,2.9,0.8c0.4,0.1,3,0.8,3.6,0.9c0.5,0.1,2.7,0.6,3.2,0.6c0.5,0.1,3.8,0.8,4.3,0.8
		c0.5,0.1,2.4,0.4,2.8,0.4c0.4,0,1,0.1,1.1,0.1s0.3,0.1,0.3,0.3c0,0.3-0.3,0.6-0.4,0.9c-0.1,0.3-0.3,0.6-0.5,0.8
		c-0.1,0.3-0.3,0.4-0.4,0.5c-0.1,0.1-0.1,0.1-0.1,0.1s0.1-0.1,0.1-0.3c0-0.1-0.1-0.3-0.4-0.3c-0.1,0-0.5,0-0.8,0
		c-0.4,0-1.3,0-2.2-0.1c-0.9-0.1-2.2-0.4-3-0.5c-0.9-0.3-2.2-0.5-3-0.8c-0.9-0.3-2.4-0.6-3.3-1s-2.2-0.8-2.7-0.9s-2-0.8-2.3-0.8
		c-0.3-0.1-0.4-0.1-0.6-0.1c-0.1,0-0.4,0-0.6,0c-0.1,0-0.4-0.1-0.5-0.1s-0.1,0-0.3-0.1C88.2,20.2,88.3,20.1,88.3,20.1"/>
	<path class="st3" d="M86.4,21.6c0,0,0.6-0.1,0.9-0.3c0.3-0.1,0.5-0.3,0.9-0.3c0.3,0,0.9,0.3,1.1,0.4c0.4,0.1,1.5,0.5,1.9,0.6
		c0.4,0.1,3,1,3.4,1.1c0.4,0.1,2.8,0.9,3.3,1c0.5,0.1,2.8,0.8,3.3,0.9c0.5,0.1,1.4,0.3,1.7,0.4c0.3,0,0.5,0.1,0.5,0.3
		c0,0.1,0,0.4,0,0.4c0,0.1-0.1,0.4-0.3,0.6c-0.1,0.3-0.1,0.5-0.3,0.6c-0.1,0.1-0.4,0.1-0.4,0.1s0.1-0.1,0.1-0.3s0-0.1-0.1-0.3
		c-0.1-0.1-0.1-0.1-0.3-0.1s-0.5,0-0.8,0s-1.3,0-1.7,0c-0.4,0-0.8,0-1.1,0c-0.3,0-0.6-0.1-1.1-0.3c-0.5-0.1-1.5-0.5-2-0.8
		s-2-0.9-2.4-1c-0.4-0.1-1.9-0.9-2.4-1.1s-1.1-0.6-1.5-0.8c-0.4-0.3-1.1-0.6-1.4-0.8c-0.3-0.1-0.5-0.1-0.6-0.3
		c-0.1,0-0.4-0.1-0.5-0.1s-0.3-0.1-0.3-0.1V21.6L86.4,21.6z"/>
	<path class="st3" d="M84.7,22.9c0,0,0.6-0.1,0.8-0.3c0.1,0,0.5-0.1,0.6-0.1s0.6,0.3,0.9,0.4c0.3,0.1,1.4,0.8,1.8,1
		c0.4,0.3,1.9,1,2.3,1.1c0.4,0.1,1.5,0.8,1.9,0.9s1.8,0.8,2.3,1c0.4,0.1,1,0.4,1.3,0.5c0.4,0.1,0.8,0.3,1,0.3c0.3,0,0.5,0.1,0.6,0.3
		c0,0.1,0,0.3,0,0.4c-0.1,0.1-0.3,0.6-0.3,0.8c-0.1,0.1-0.3,0.4-0.3,0.5c-0.1,0.1-0.1,0.1-0.3,0.1s-0.1,0-0.1,0s0.1-0.1,0.1-0.3
		c0,0-0.1-0.3-0.1-0.4C97.1,29,97,29,96.8,29c-0.1,0-0.5,0-0.8,0c-0.4,0-0.9-0.1-1.3-0.1c-0.4-0.1-0.6-0.1-1-0.3
		c-0.4-0.1-1-0.5-1.5-0.8c-0.4-0.3-1.7-1-2-1.3c-0.4-0.3-2.2-1.5-2.4-1.7c-0.3-0.1-0.9-0.6-1.1-0.9c-0.3-0.3-0.6-0.5-0.8-0.5
		c-0.1-0.1-0.6-0.3-0.8-0.3s-0.3-0.1-0.4-0.3C84.5,23,84.7,22.9,84.7,22.9"/>
	<path class="st3" d="M82.8,24c0,0,0.4,0,0.5,0s0.5-0.1,0.5-0.1c0.1,0,0.3,0,0.5,0c0.1,0.1,0.6,0.4,0.9,0.5s1.1,0.9,1.4,1.1
		s1.7,1.3,2,1.4c0.3,0.3,1.5,1,1.9,1.3c0.4,0.3,1,0.6,1.3,0.8c0.3,0.1,0.6,0.4,0.8,0.5s0.3,0.1,0.1,0.4s-0.4,0.6-0.4,0.8
		c-0.1,0.1-0.3,0.3-0.4,0.4c-0.1,0.1-0.1,0.1-0.1,0.1s0.1-0.1,0.1-0.3s-0.1-0.3-0.3-0.4c-0.1-0.1-0.5-0.1-0.8-0.1s-1.3-0.3-1.5-0.4
		c-0.4-0.1-0.6-0.1-0.9-0.4c-0.3-0.1-0.9-0.8-1.1-1c-0.3-0.3-0.9-0.9-1.3-1.1c-0.4-0.4-1-1-1.3-1.3c-0.3-0.3-1-0.9-1.1-1
		c-0.1-0.1-0.4-0.4-0.5-0.5c-0.1-0.1-0.1-0.1-0.3-0.1C82.6,24.3,82.6,24.1,82.8,24C82.8,24.1,82.8,24,82.8,24"/>
	<path class="st3" d="M80.6,25.5l0.1-0.3c0-0.1,0-0.1,0-0.1s0.3,0,0.5,0c0.3,0,0.4-0.1,0.6-0.1s0.3,0,0.4,0.3
		c0.1,0.3,0.4,0.5,0.6,0.8c0.3,0.3,1.3,1.1,1.5,1.5c0.3,0.3,1.3,1.3,1.7,1.5c0.4,0.4,0.9,0.8,1,0.9c0.1,0.1,0.4,0.4,0.5,0.5
		c0.1,0.1,0,0.3,0,0.4c-0.1,0.1-0.3,0.4-0.4,0.5c-0.1,0.1-0.4,0.3-0.4,0.3s0.1-0.1,0.1-0.3s-0.3-0.3-0.4-0.3c-0.1,0-0.8-0.3-1-0.3
		c-0.3-0.1-0.9-0.3-1-0.4c-0.1-0.1-0.9-0.9-1-1.1c-0.1-0.1-0.8-1-1-1.3c-0.3-0.3-0.6-0.9-0.9-1.3s-0.6-0.9-0.8-0.9
		c-0.1-0.1-0.1-0.1-0.3-0.3C80.6,25.5,80.6,25.5,80.6,25.5"/>
	<path class="st3" d="M78.4,25.8c0,0,0.4,0,0.6,0s0.4,0,0.5,0s0.3,0,0.3,0.1C80,26,80,26.2,80,26.3s0.8,1.1,0.9,1.3
		c0.1,0.1,0.6,0.8,0.8,1.1c0.3,0.3,0.8,1,1,1.3c0.1,0.3,0.5,0.6,0.6,0.8s0.3,0.5,0.4,0.5c0,0.1,0,0.1-0.1,0.3c0,0.1-0.1,0.1-0.3,0.3
		C83.1,31.9,83,32,83,32s0-0.1,0-0.3c0-0.1,0-0.1-0.1-0.3s-0.4-0.3-0.6-0.4c-0.3-0.1-0.6-0.3-0.9-0.4c-0.3-0.1-0.4-0.1-0.5-0.3
		c-0.1-0.1-0.4-0.6-0.6-1c-0.1-0.3-0.6-1.1-0.8-1.4c-0.1-0.3-0.1-0.4-0.3-0.5c0-0.1,0-0.6-0.1-0.8c0-0.1-0.3-0.4-0.3-0.5
		c-0.1-0.1-0.1-0.1-0.1-0.1L78.6,26C78.6,26,78.4,25.9,78.4,25.8L78.4,25.8"/>
	<path class="st3" d="M78.3,28.6c0,0,0.3,0.4,0.4,0.5c0.1,0.1,0.3,0.4,0.4,0.6c0.1,0.3,0.5,0.8,0.5,1c0.1,0.1,0.3,0.4,0.3,0.5
		c0,0.3-0.1,0.4-0.3,0.5c0,0.1,0,0.3-0.1,0.3c-0.1,0.1-0.3,0.1-0.3,0.1s0.1-0.1,0.1-0.3c0-0.1-0.1-0.3-0.1-0.4
		c0-0.1-0.3-0.3-0.4-0.3c-0.1-0.1-0.5-0.3-0.5-0.4c0-0.1,0-0.3,0-0.4c0.1-0.3,0.1-0.5,0-0.6c0-0.3-0.1-0.3-0.1-0.4
		c0-0.1-0.1-0.1-0.1-0.1s0.1-0.4,0.1-0.5L78.3,28.6L78.3,28.6z"/>
	<path class="st3" d="M69.2,37.7c0,0,0.6-0.3,0.9-0.4s0.8-0.4,1.1-0.5c0.4-0.1,1.3-0.6,1.7-0.9s0.9-0.6,1.3-0.9c0.4-0.4,1-1,1.4-1.3
		c0.3-0.3,0.9-1,1.1-1.3c0.1-0.3,0.5-0.8,0.5-0.8l0.8,0.4c0.3,0.1,0.6,0.3,0.9,0.4c0.3,0,0.4,0,0.6,0s0.3,0,0.4-0.3
		c0.1-0.1,0.3-0.4,0.3-0.5s0.1-0.3,0.1-0.3s0.3,0.1,0.5,0.1l0.9,0.3c0.3,0.1,0.5,0.1,0.6,0.3c0.1,0.1,0.1,0.1,0.1,0.3
		c0,0.1-0.1,0.4-0.1,0.5c-0.1,0.1-0.4,0.9-0.5,1.1s-0.6,1.1-0.9,1.5c-0.3,0.4-1.1,1.4-1.4,1.8c-0.3,0.3-0.8,0.6-0.9,0.8
		c-0.3,0.1-0.6,0.1-0.9,0.4l-1.3,0.8c-0.4,0.3-0.9,0.5-1.1,0.6c-0.4,0.1-1.3,0.6-1.5,0.8c-0.3,0.1-0.6,0.3-0.8,0.4s-0.3,0.1-0.5,0.1
		c-0.1,0-0.3-0.1-0.3-0.3c0-0.1-0.5-0.9-0.6-1.1s-0.8-1.3-0.9-1.5c-0.1-0.1-0.1-0.3-0.4-0.4c-0.1-0.1-0.3-0.1-0.3-0.1
		c-0.1,0-0.1,0-0.3,0C69.3,37.8,69.2,37.7,69.2,37.7"/>
	<path class="st3" d="M67.3,38.2c0,0,0.5-0.1,0.8-0.3c0.3-0.1,0.5-0.1,0.6-0.3c0.1,0,0.3,0,0.4,0c0.1,0.1,0.1,0.3,0.3,0.4
		c0,0.1,0.5,1,0.6,1.3c0.1,0.3,0.6,1,0.8,1.3c0.1,0.3,0.6,1,0.8,1.3c0.1,0.1,0.3,0.4,0.3,0.5c0.1,0.1,0.3,0.5,0.3,0.6
		s0.1,0.3,0.1,0.4c0,0.1-0.4,0.6-0.4,0.8c0,0.1-0.4,0.6-0.4,0.6s0-0.4-0.1-0.6c-0.1-0.1-0.1-0.3-0.3-0.4c-0.1-0.1-0.4-0.1-0.5-0.3
		c-0.1-0.1-0.3-0.1-0.4-0.4c-0.1-0.1-0.5-1.1-0.6-1.4c-0.1-0.4-0.5-1.4-0.8-1.8c-0.1-0.4-0.4-1-0.5-1.1c-0.1-0.1-0.4-0.4-0.5-0.4
		s-0.3,0-0.3,0h-0.1V38.2L67.3,38.2z"/>
	<path class="st3" d="M82.6,32.4h0.3c0.1,0,0.4-0.3,0.5-0.4c0.1-0.1,0.4-0.4,0.4-0.5c0-0.1,0.1-0.1,0.1-0.1s0.1,0,0.1,0.1
		c0,0-0.1,0.6-0.3,0.8c0,0.1-0.3,0.6-0.4,0.9c-0.1,0.3-0.5,1-0.6,1.3s-0.8,1.3-1,1.7c-0.3,0.4-1,1.3-1.3,1.5s-1.1,1.1-1.4,1.4
		s-1.9,1.3-2.3,1.5s-1.4,0.8-1.7,1c-0.3,0.1-1,0.5-1.3,0.6s-0.9,0.5-1.1,0.5c-0.1,0-0.4,0-0.5,0s-0.3,0-0.3,0h-0.3l-0.1-0.1
		c0,0,0.6-0.3,0.9-0.4c0.4-0.1,1.7-0.8,2-1c0.4-0.3,1.1-0.6,1.7-1c0.4-0.3,1.4-1,1.8-1.3c0.4-0.4,1.4-1.3,1.5-1.5
		c0.1-0.3,1-1,1.1-1.1c0.1-0.3,0.5-0.5,0.8-0.9c0.3-0.4,0.8-1.3,0.9-1.5c0.1-0.3,0.3-0.5,0.3-0.6s0-0.3-0.1-0.3l-0.3-0.1l0.1-0.3
		C82.6,32.4,82.6,32.4,82.6,32.4"/>
	<path class="st3" d="M65.4,38.6c0,0,0.3,0,0.4,0c0.1,0,0.6-0.3,0.8-0.3s0.4,0,0.5,0c0,0.1,0.1,0.3,0.1,0.5c0.1,0.3,0.6,1.5,0.8,1.9
		s0.6,1.7,0.8,2c0.1,0.3,0.4,0.9,0.4,1c0,0.1,0.1,0.5,0.1,0.6c0,0.1-0.3,0.4-0.4,0.6c-0.1,0.1-0.5,0.8-0.5,0.8v-0.3
		c0-0.1,0.1-0.3,0-0.3c0-0.1-0.1-0.4-0.3-0.4c-0.1-0.1-0.4-0.1-0.5-0.3s-0.1-0.1-0.3-0.5s-0.4-1.4-0.4-1.7c-0.1-0.3-0.4-1.8-0.5-2
		s-0.1-0.6-0.3-0.8s-0.4-0.4-0.4-0.4c-0.1,0-0.3,0-0.3,0h-0.1V38.6L65.4,38.6z"/>
	<path class="st3" d="M63.6,38.7c0,0,0.4,0,0.5-0.1c0.1,0,0.5-0.1,0.6-0.1c0.3,0,0.4,0,0.4,0.1c0,0.1,0.1,0.5,0.1,0.6
		c0,0.1,0.4,1.8,0.4,2s0.5,1.9,0.5,2.2c0,0.3,0.1,0.9,0.1,1c0,0.1,0,0.3,0,0.3s-0.3,0.4-0.4,0.5c-0.1,0.1-0.6,0.8-0.6,0.8
		s0-0.1,0-0.3s0.1-0.1,0.1-0.4c0-0.1-0.1-0.4-0.3-0.5s-0.4-0.3-0.5-0.4c-0.1-0.1-0.1-0.3-0.3-0.5c0-0.3-0.1-1.8-0.1-2.3
		s-0.1-1.9-0.1-2c0-0.3-0.1-0.4-0.3-0.5c-0.1-0.1-0.3-0.3-0.4-0.3c-0.1,0-0.1,0-0.1,0L63.6,38.7L63.6,38.7z"/>
	<path class="st3" d="M61.7,38.9h0.4c0.1,0,0.4-0.1,0.6,0c0.3,0,0.5,0.1,0.5,0.3c0,0.1,0,0.5,0,0.8s0.1,1.7,0.1,1.8
		c0,0.3,0.1,1.7,0.1,2c0,0.4,0.1,1,0.1,1.1s0,0.3,0,0.3s-0.4,0.4-0.5,0.5s-0.6,0.5-0.6,0.5l0.1-0.3c0.1-0.1,0.1-0.3,0.1-0.3
		c0-0.1-0.4-0.5-0.5-0.5c-0.1-0.1-0.3-0.3-0.3-0.5c0-0.1,0.1-1.4,0.1-1.9s0.1-1.7,0.1-2c0-0.4,0.1-0.9,0-1c-0.1-0.1-0.3-0.4-0.3-0.4
		c-0.1,0-0.3-0.1-0.3-0.1V38.9L61.7,38.9z"/>
	<path class="st3" d="M59.9,38.7c0,0,0.3,0,0.4,0c0.1,0,0.3,0,0.4,0c0.3,0,0.4,0,0.5,0c0.1,0,0.3,0.1,0.3,0.4c0,0.3-0.1,1.1-0.1,1.3
		c0,0.3-0.1,2-0.1,2.2c0,0.1,0,0.9-0.1,1.1c0,0.3-0.1,0.6-0.1,0.9c0,0.1-0.1,0.5-0.1,0.5v0.1l-0.4,0.3c-0.1,0-0.1,0-0.1-0.1
		c-0.1-0.1-0.1-0.1-0.4-0.1c-0.1-0.1-0.4-0.4-0.5-0.5c-0.1-0.1-0.1-0.4-0.1-0.6c0.1-0.3,0.3-1.3,0.4-1.7c0.1-0.4,0.3-1.3,0.4-1.7
		c0.1-0.4,0.3-0.9,0.3-1s0-0.4-0.1-0.5C60,39.1,60,39.1,60,39.1c-0.1,0-0.1,0-0.1,0L59.9,38.7L59.9,38.7z"/>
	<path class="st3" d="M58,38.4c0,0,0.3,0,0.4,0c0.1,0,0.4,0,0.5,0c0.3,0,0.5,0.1,0.5,0.3c0,0.1,0.1,0.3,0,0.4c0,0.3-0.5,1.9-0.5,2.2
		c-0.1,0.3-0.4,1.7-0.4,1.8c0,0.3-0.3,1-0.3,1.1c0,0.1-0.1,0.5-0.1,0.5s-0.3,0.1-0.4,0.1l-0.1,0.1c0,0,0.1-0.1,0-0.3
		c0-0.1-0.1-0.1-0.3-0.1s-0.3,0.1-0.4,0.1c-0.1,0-0.3-0.1-0.4-0.4c-0.1-0.3-0.1-0.4-0.1-0.5c0-0.3,0.6-1.5,0.6-1.8
		c0.1-0.3,0.6-1.5,0.8-1.9c0.1-0.3,0.3-0.6,0.3-0.8c0-0.1-0.1-0.4-0.1-0.4l-0.1-0.1h-0.1L58,38.4L58,38.4z"/>
	<path class="st3" d="M56.2,37.8c0,0,0.1,0,0.4,0c0.1,0,0.4,0,0.6,0s0.5,0.3,0.5,0.4c0,0.1,0,0.4-0.1,0.6s-0.6,1.8-0.8,2
		s-0.6,1.8-0.8,1.9c-0.1,0.3-0.4,0.8-0.4,1c-0.1,0.1-0.1,0.3-0.1,0.3l-0.5,0.3c0,0,0.1-0.1,0-0.3c0-0.1-0.3-0.3-0.3-0.3
		c-0.1,0-0.3,0-0.4,0c-0.1,0-0.3,0-0.4,0c0-0.1-0.3-0.4-0.3-0.5c0-0.1-0.1-0.1,0-0.4c0.1-0.1,0.6-1.1,0.8-1.4
		c0.1-0.1,0.8-1.3,0.9-1.5s0.5-0.9,0.6-1s0.1-0.3,0-0.4c0-0.1,0-0.1-0.1-0.1h-0.1L56.2,37.8L56.2,37.8z"/>
	<path class="st0" d="M62.8,34.2h-0.1c-1.9,0-4.1-0.5-4.1-3.6s2-3.7,4.1-3.7c1.9,0,3.9,0.8,3.9,3.7C66.6,33.3,64.7,34.2,62.8,34.2"
		/>
	<path class="st3" d="M62.4,38.5c-9,0-15.7-5.6-15.7-11.8s6.7-11.8,15.7-11.8s15.7,5.6,15.7,11.8S71.5,38.5,62.4,38.5"/>
	<path class="st0" d="M62.4,19.1c2.2,0,3.7,0.9,3.7,3.3c0,2.5-1.5,3.3-3.7,3.3c-2,0-3.7-0.8-3.7-3.3C58.8,20.1,60.4,19.1,62.4,19.1"
		/>
	<path class="st0" d="M68.5,26c2.2-1.3,2.7-2.4,2.4-3.9c-0.3-2.5-3.8-4.4-8.6-4.4c-5.7,0.1-9.1,2.9-9.1,3.7c0,0.8,1.1,0.9,1.1,1.4
		v7.9c0,0.5-1,1-1,1.5c0,0.5,3.7,3.3,9.8,3.3c5.3,0,8.5-2.3,8.5-5C71.5,29,70.7,27.1,68.5,26L68.5,26L68.5,26z"/>
	<path class="st0" d="M62.4,15.4c9,0,15.2,5.7,15.2,11.3S71.5,38,62.4,38s-15.2-5.7-15.2-11.3S53.4,15.4,62.4,15.4"/>
	<path class="st3" d="M62.8,34.2h-0.1c-1.9,0-4.1-0.5-4.1-3.6s2-3.7,4.1-3.7c1.9,0,3.9,0.8,3.9,3.7C66.6,33.3,64.7,34.2,62.8,34.2
		 M68.5,26c2.2-1.3,2.7-2.4,2.4-3.9c-0.3-2.5-3.8-4.4-8.6-4.4c-5.7,0.1-9.1,2.9-9.1,3.7c0,0.8,1.1,0.9,1.1,1.4v7.9c0,0.5-1,1-1,1.5
		c0,0.5,3.7,3.3,9.8,3.3c5.3,0,8.5-2.3,8.5-5C71.5,29.1,70.7,27.1,68.5,26L68.5,26L68.5,26z M62.4,19.1c2.2,0,3.7,0.9,3.7,3.3
		c0,2.5-1.5,3.3-3.7,3.3c-2,0-3.7-0.8-3.7-3.3C58.8,20.1,60.4,19.1,62.4,19.1"/>
</g>
</svg>
