<?xml version="1.0" encoding="utf-8"?>
<!-- Generator: Adobe Illustrator 22.1.0, SVG Export Plug-In . SVG Version: 6.00 Build 0)  -->
<svg version="1.1" id="Layer_1" xmlns="http://www.w3.org/2000/svg" xmlns:xlink="http://www.w3.org/1999/xlink" x="0px" y="0px"
	 viewBox="0 0 100 100" style="enable-background:new 0 0 100 100;" xml:space="preserve">
<style type="text/css">
	.st0{fill:#FFFFFF;stroke:#707070;stroke-width:0.5;stroke-miterlimit:10;}
	.st1{fill:#EC4D3D;stroke:#707070;stroke-width:0.5;stroke-miterlimit:10;}
	.st2{fill:#FFFFFF;}
	.st3{fill:#646464;}
</style>
<g>
	<path class="st0" d="M87.3,95.5H12.9c-3.9,0-7-3.2-7-7V14.1c0-3.9,3.1-7,7-7h74.4c3.8,0,7,3.1,7,7v74.4
		C94.3,92.3,91.2,95.5,87.3,95.5z"/>
	<path class="st1" d="M94.3,36.9H5.9V13c0-3.9,3.1-7,7-7h74.4c3.8,0,7,3.1,7,7V36.9z"/>
</g>
<g>
	<path class="st2" d="M39,22.4c0,2.6-0.7,4.6-2.2,6s-3.6,2.1-6.4,2.1h-4.5V14.7h5c2.6,0,4.6,0.7,6,2S39,20,39,22.4z M35.6,22.5
		c0-3.4-1.5-5.1-4.5-5.1h-1.8v10.3h1.4C34,27.7,35.6,26,35.6,22.5z"/>
	<path class="st2" d="M49.7,30.4l-0.6-1.6H49c-0.6,0.7-1.1,1.2-1.7,1.5c-0.6,0.3-1.4,0.4-2.3,0.4c-1.2,0-2.1-0.3-2.7-1
		c-0.7-0.7-1-1.6-1-2.8c0-1.3,0.4-2.2,1.3-2.8c0.9-0.6,2.2-0.9,4.1-1l2.1-0.1v-0.5c0-1.2-0.6-1.8-1.9-1.8c-1,0-2.1,0.3-3.4,0.9
		l-1.1-2.2c1.4-0.7,2.9-1.1,4.6-1.1c1.6,0,2.9,0.4,3.7,1.1c0.9,0.7,1.3,1.8,1.3,3.2v8h-2.3V30.4z M48.7,24.9h-1.3
		c-1,0-1.7,0.2-2.1,0.5c-0.5,0.3-0.7,0.8-0.7,1.4c0,0.9,0.5,1.4,1.6,1.4c0.8,0,1.4-0.2,1.8-0.7c0.5-0.4,0.7-1,0.7-1.7V24.9z"/>
	<path class="st2" d="M60.5,28c0.6,0,1.3-0.1,2.1-0.4V30c-0.8,0.4-1.8,0.6-3,0.6c-1.3,0-2.3-0.3-2.9-1c-0.6-0.7-0.9-1.7-0.9-3v-5.8
		h-1.6v-1.4l1.8-1.1l0.9-2.5H59v2.6h3.4v2.5H59v5.8c0,0.5,0.1,0.8,0.4,1C59.7,27.9,60,28,60.5,28z"/>
	<path class="st2" d="M70.4,30.7c-1.9,0-3.5-0.5-4.6-1.6s-1.6-2.6-1.6-4.6s0.5-3.6,1.5-4.7s2.4-1.7,4.2-1.7c1.7,0,3,0.5,4,1.5
		c0.9,1,1.4,2.3,1.4,4v1.6h-7.8c0,0.9,0.3,1.7,0.8,2.2s1.2,0.8,2.2,0.8c0.7,0,1.4-0.1,2.1-0.2s1.3-0.4,2-0.7v2.5
		c-0.6,0.3-1.2,0.5-1.8,0.6S71.4,30.7,70.4,30.7z M70,20.5c-0.7,0-1.2,0.2-1.6,0.7c-0.4,0.4-0.6,1.1-0.7,1.9h4.6
		c0-0.8-0.2-1.4-0.6-1.9C71.2,20.7,70.7,20.5,70,20.5z"/>
</g>
<g>
	<path class="st3" d="M50.1,46.5c3.5,0,6.3,0.8,8.4,2.4c2.1,1.6,3.2,3.7,3.2,6.4c0,1.9-0.5,3.5-1.5,5c-1,1.4-2.7,2.7-5,3.9
		c2.7,1.5,4.7,3,5.8,4.6c1.2,1.6,1.8,3.3,1.8,5.2c0,3-1.2,5.4-3.5,7.2C57,83,54,83.9,50.2,83.9c-4,0-7.1-0.8-9.4-2.5
		c-2.3-1.7-3.4-4.1-3.4-7.2c0-2.1,0.6-3.9,1.7-5.5c1.1-1.6,2.9-3,5.3-4.2c-2.1-1.3-3.6-2.7-4.5-4.2s-1.4-3.1-1.4-4.9
		c0-2.6,1.1-4.7,3.2-6.3C43.9,47.3,46.7,46.5,50.1,46.5z M44.5,73.6c0,1.4,0.5,2.5,1.5,3.3s2.4,1.2,4.1,1.2c1.9,0,3.3-0.4,4.3-1.2
		c0.9-0.8,1.4-1.9,1.4-3.2c0-1.1-0.5-2.1-1.4-3.1s-2.5-2-4.6-3.1C46.2,69,44.5,71.1,44.5,73.6z M50,52.1c-1.3,0-2.4,0.3-3.2,1
		s-1.2,1.6-1.2,2.7c0,1,0.3,1.9,1,2.7c0.6,0.8,1.8,1.6,3.5,2.4c1.6-0.8,2.8-1.5,3.4-2.3s1-1.7,1-2.8s-0.4-2-1.2-2.7
		S51.4,52.1,50,52.1z"/>
</g>
</svg>
