<?xml version="1.0" encoding="utf-8"?>
<!-- Generator: Adobe Illustrator 22.1.0, SVG Export Plug-In . SVG Version: 6.00 Build 0)  -->
<svg version="1.1" id="Layer_1" xmlns="http://www.w3.org/2000/svg" xmlns:xlink="http://www.w3.org/1999/xlink" x="0px" y="0px"
	 viewBox="0 0 100 100" style="enable-background:new 0 0 100 100;" xml:space="preserve">
<style type="text/css">
	.st0{fill:#1A3E6F;}
</style>
<g>
	<path class="st0" d="M50.5,25.3c3.6,3.6,7.1,7.1,10.5,10.6c8.1,8.1,16.1,16.2,24.2,24.2c1,1,1.4,2,1.4,3.3c0,9.5,0,19,0,28.5
		c0,2.7-0.1,2.8-2.8,2.8c-22.3,0-44.6,0-66.9,0c-2.3,0-2.6-0.2-2.6-2.6c0-9.6,0-19.2,0-28.9c0-1.1,0.3-2,1.1-2.8
		C26.5,49.2,37.6,38.1,48.7,27C49.2,26.4,49.8,26,50.5,25.3z M63.8,67.3c1.1-1.1,2-2,1.4-3.6c-0.5-1.3-1.4-2-2.8-2.2
		c-0.6-0.1-1.2-0.1-1.8-0.1c-1.8,0-3.6,0-5.4,0c-0.7,0-1.4-0.1-2.3-0.2c0.4-1.3,0.7-2.3,1-3.3c0.5-1.9,1-3.8,1.2-5.8
		c0.2-1.7-0.5-3.1-2.1-4c-1.2-0.7-2-0.4-2.4,1c-0.3,1-0.4,2-0.7,2.9c-0.4,1.2-0.6,2.7-1.4,3.6c-2.2,2.6-4.2,5.3-5.5,8.5
		c-0.5,1.1-1.4,1.7-2.7,1.7c-0.9,0-1.9,0-2.8,0c-2,0-2.2,0.2-2.2,2.1c0,3.7,0,7.4,0,11.1c0,0.6,0.1,1.2,0.1,1.9
		c1,0.1,1.9,0.1,2.8,0.2c3.9,0.4,7.8,1,11.6,1.3c3.4,0.2,6.9,0.2,10.3,0.2c2.1,0,2.9-1.3,2.1-3.3c-0.1-0.2-0.1-0.4-0.2-0.7
		c1.3-0.5,2.7-0.9,2.8-2.3c0-1.2-0.5-2.4-0.9-3.8C66,70.9,66,69.7,63.8,67.3z"/>
	<path class="st0" d="M50.3,20.4c-2.6,2.7-5.1,5.3-7.6,7.8C33.4,37.5,24.1,46.8,14.8,56c-0.9,0.9-2.1,1.7-3.2,2.2
		c-2.4,0.9-4.9,0-6.4-2c-1.6-2-1.7-4.7-0.3-6.9c0.4-0.7,1-1.2,1.6-1.8c14-14,28-28,41.9-42c0.3-0.3,0.6-0.7,1-1
		c0.7-0.6,1.4-0.6,2.1,0c0.3,0.3,0.6,0.5,0.9,0.8c14.2,14.2,28.3,28.4,42.5,42.5c2.3,2.3,2.8,5.4,1.2,7.8c-2.1,3.3-6.4,3.8-9.3,1.1
		c-2.5-2.4-5-5-7.5-7.5C70.1,40,60.8,30.7,51.5,21.5C51.2,21.2,50.9,20.9,50.3,20.4z"/>
</g>
</svg>
