<?xml version="1.0" encoding="utf-8"?>
<!-- Generator: Adobe Illustrator 22.1.0, SVG Export Plug-In . SVG Version: 6.00 Build 0)  -->
<svg version="1.1" id="Layer_1" xmlns="http://www.w3.org/2000/svg" xmlns:xlink="http://www.w3.org/1999/xlink" x="0px" y="0px"
	 viewBox="0 0 100 65" style="enable-background:new 0 0 100 65;" xml:space="preserve">
<style type="text/css">
	.st0{fill:#FFFFFF;}
</style>
<g>
	<g>
		<path class="st0" d="M8.6,8.9v18.3H12V8.9h5v30.6c0,0,0.4,1.6,1.4,1.6c1.1-0.1,2.1-0.3,2.1-1.2c0,0,0.1-19.1,0-19.1
			c0-1.3,0.9-3,2-3.1c0,0,6,0.1,6,0c1.2,0,2.3,1.7,2.3,3V28c0,0,2.2,1.1,3.2,0.4c0,0,0-10.4,0-15.3c0-1.9,1.3-4.4,2.4-4.5
			c0,0,1.1-0.3,2.1,0c3.1,1.8,4.2,6,4.3,8.6c0.1,2-0.3,4.5-0.3,4.5c-0.7,3.8-3.3,7.9-4.7,9.3c0,0,0,4.8,0,6.9c0,1.3,0.8,2.7,2.4,2.7
			c0,0,1.1,0.1,1.1,0c1.3,0,3-0.9,3-3.5V17.6h4.1c0,0,0,1.2,0,1.2c0-0.1,1.3-1.3,2.8-1.3c0,0,0.8,0,1.6,0c2.1,0,2.7,1.2,2.7,1.2
			s0.2-1.1,2.2-1.1h2.1c1.3,0,2.7,1.4,2.7,4.1v17.8c0,0,0.5,1.1,1.5,1.1c1.1,0,2-0.6,2-1.8c0,0,0-16.5,0-19c0-1.9,1.6-2.7,2.3-2.7
			c0,0,0.4,0,1.5,0c2.7,0,3.8,1.6,3.8,1.6v-1.1h4.2c0,0,0,18.5,0,21.8c0,0.6,0.5,1.3,0.9,1.3c0.7,0,2-0.2,1.9-2.3l0-20.8l4.2,0
			l0,1.5c0,0,1.4-1.5,2.9-1.5c0,0,0.6,0,1.5,0c2.1,0,3.2,1.9,3.2,3.8c0,0,0,15.9,0,18c0,1.1,0.2,1.8,1.4,1.8l3.3,0v2.5h-5
			c-0.1,0-1.5,0-1.6,0c-1.3,0-2.3-0.8-2.3-2.3c0,0,0-19.8,0-19.9c0-2-3.3-2.2-3.3-0.3v22.5h-4.2c0,0,0-2.3,0-2.3
			c0,0.1-1.6,2.3-2.9,2.3c0,0-0.5,0-0.8,0c-1.4,0-3-1.4-3.1-2.3c0,0-1.7,2.3-3.8,2.3c0,0-1.3,0-1.4,0c-1.1,0-2.1-1.2-2.1-2.1
			c0,0-1.8,2.1-3.2,2.1c0,0-1.7,0-2.7,0c-1.4,0-2-1.2-2-2.3l0-20.8c0,0-0.2-1.2-0.9-1.2c0,0-0.6,0-1,0c-0.7,0-1.2,0.6-1.2,1v23.2
			h-4.1c0,0,0-23,0-23c0-0.8-0.6-1.2-0.9-1.2c0,0-0.9,0-0.9,0c-0.8,0-1.2,0.6-1.2,1.1v23.1h-4.1V42c0,0-3.2,2.1-6.3,2.1
			c-2.2,0-3.9-1.5-3.9-3.4c0,0,0-7.9,0-9.5c-1.3,0.6-3.2-0.4-3.2-0.4v10.7c0,0.9-1.4,2.2-2.8,2.2c0,0-5.1,0-5.2,0
			c-0.9,0-2-1.6-2-1.6s-1.3,1.5-2.5,1.5c0,0-3.4,0-4.8,0c-0.7,0-1.5-0.6-1.5-1.6c0,0,0-12,0-12c0,0-3.6,0-3.6,0v13.6H3.4V8.9H8.6z
			 M24.4,20.4c0,2.2,0,19.9,0,19.9c0,1.9,1.3,1.5,1.3,1.5s1.5,0.3,1.5-1.4c0-1.9,0-19.9,0-19.9c0-1.5-1.4-1.1-1.4-1.1
			S24.4,19,24.4,20.4z M37.9,26.6c0,0,3.3-3.4,3.3-8c0-3.5-1.6-5.2-1.7-5.3c-1-1.7-1.4-1.5-1.6,0.7c0,0,0,9.3,0,10.8
			C37.9,25.3,37.9,26.6,37.9,26.6z M70.2,20.7v19.1c0,1.9,3.4,1.6,3.3-0.7c0-1.7,0-18.4,0-18.4C73.5,19.1,70.2,18.9,70.2,20.7z"/>
	</g>
	<g>
		<path class="st0" d="M8.6,51.3h4.7v1H9.8V54h3.2v1H9.8v1.7h3.6v1H8.6V51.3z"/>
		<path class="st0" d="M16.7,51.3h1l3.4,4.4v-4.4h1.1v6.3h-0.9l-3.5-4.5v4.5h-1.1V51.3z"/>
		<path class="st0" d="M27.4,52.3h-2v-1h5.1v1h-2v5.3h-1.1V52.3z"/>
		<path class="st0" d="M33.8,51.3h4.7v1h-3.6V54H38v1h-3.2v1.7h3.6v1h-4.7V51.3z"/>
		<path class="st0" d="M41.8,51.3h2.8c0.8,0,1.4,0.2,1.8,0.6c0.3,0.3,0.5,0.8,0.5,1.4v0c0,1-0.6,1.7-1.5,1.9l1.7,2.4h-1.3l-1.6-2.2
			H43v2.2h-1.1V51.3z M44.6,54.5c0.8,0,1.3-0.4,1.3-1.1v0c0-0.7-0.5-1-1.3-1H43v2.1H44.6z"/>
		<path class="st0" d="M50.4,51.3h2.5c1.5,0,2.4,0.8,2.4,2.1v0c0,1.4-1.1,2.2-2.5,2.2h-1.3v2h-1.1V51.3z M52.8,54.6
			c0.8,0,1.4-0.5,1.4-1.1v0c0-0.7-0.5-1.1-1.4-1.1h-1.3v2.3H52.8z"/>
		<path class="st0" d="M58.5,51.3h2.8c0.8,0,1.4,0.2,1.8,0.6c0.3,0.3,0.5,0.8,0.5,1.4v0c0,1-0.6,1.7-1.5,1.9l1.7,2.4h-1.3L61,55.4
			h-1.4v2.2h-1.1V51.3z M61.2,54.5c0.8,0,1.3-0.4,1.3-1.1v0c0-0.7-0.5-1-1.3-1h-1.6v2.1H61.2z"/>
		<path class="st0" d="M67.1,51.3h1.1v6.3h-1.1V51.3z"/>
		<path class="st0" d="M71.5,56.7l0.7-0.8c0.6,0.5,1.2,0.8,2,0.8c0.7,0,1.1-0.3,1.1-0.8v0c0-0.5-0.3-0.7-1.4-1
			c-1.3-0.3-2.1-0.7-2.1-1.9v0c0-1.1,0.9-1.8,2.2-1.8c0.9,0,1.7,0.3,2.3,0.8l-0.6,0.8c-0.6-0.4-1.1-0.7-1.7-0.7c-0.7,0-1,0.3-1,0.8
			v0c0,0.5,0.3,0.7,1.5,1c1.3,0.3,2,0.8,2,1.9v0c0,1.2-0.9,1.9-2.3,1.9C73.2,57.7,72.2,57.4,71.5,56.7z"/>
		<path class="st0" d="M79.7,51.3h4.7v1h-3.6V54H84v1h-3.2v1.7h3.6v1h-4.7V51.3z"/>
		<path class="st0" d="M87.4,56.7l0.7-0.8c0.6,0.5,1.2,0.8,2,0.8c0.7,0,1.1-0.3,1.1-0.8v0c0-0.5-0.3-0.7-1.4-1
			c-1.3-0.3-2.1-0.7-2.1-1.9v0c0-1.1,0.9-1.8,2.2-1.8c0.9,0,1.7,0.3,2.3,0.8l-0.6,0.8c-0.6-0.4-1.1-0.7-1.7-0.7c-0.7,0-1,0.3-1,0.8
			v0c0,0.5,0.3,0.7,1.5,1c1.3,0.3,2,0.8,2,1.9v0c0,1.2-0.9,1.9-2.3,1.9C89.1,57.7,88.1,57.4,87.4,56.7z"/>
	</g>
</g>
</svg>
