<?xml version="1.0" encoding="utf-8"?>
<!-- Generator: Adobe Illustrator 22.1.0, SVG Export Plug-In . SVG Version: 6.00 Build 0)  -->
<svg version="1.1" id="Layer_1" xmlns="http://www.w3.org/2000/svg" xmlns:xlink="http://www.w3.org/1999/xlink" x="0px" y="0px"
	 viewBox="0 0 100 65" style="enable-background:new 0 0 100 65;" xml:space="preserve">
<style type="text/css">
	.st0{fill:#FFFFFF;}
</style>
<g>
	<g>
		<path class="st0" d="M8.4,9.9v18.3h3.5V9.9h5.1v30.7c0,0,0.4,1.6,1.4,1.6c1.1-0.1,2.1-0.3,2.1-1.2c0,0,0.1-19.2,0-19.2
			c0-1.3,0.9-3,2-3.1c0,0,6,0.1,6,0c1.2,0,2.3,1.7,2.3,3v7.4c0,0,2.2,1.1,3.2,0.4c0,0,0-10.4,0-15.3c0-1.9,1.3-4.4,2.4-4.5
			c0,0,1.1-0.3,2.1,0c3.1,1.8,4.2,6,4.3,8.6c0.1,2-0.3,4.5-0.3,4.5c-0.7,3.8-3.4,7.9-4.7,9.3c0,0,0,4.8,0,7c0,1.3,0.8,2.8,2.4,2.8
			c0,0,1.1,0.1,1.1,0c1.3,0,3-0.9,3-3.5V18.7h4.1c0,0,0,1.2,0,1.2c0-0.1,1.3-1.3,2.8-1.3c0,0,0.8,0,1.6,0c2.2,0,2.8,1.2,2.8,1.2
			s0.2-1.1,2.2-1.1h2.2c1.3,0,2.7,1.4,2.7,4.1v17.8c0,0,0.5,1.1,1.5,1.1c1.1,0,2-0.6,2-1.8c0,0,0-16.5,0-19c0-1.9,1.6-2.8,2.3-2.8
			c0,0,0.4,0,1.5,0c2.7,0,3.9,1.6,3.9,1.6v-1.1h4.2c0,0,0,18.5,0,21.8c0,0.6,0.5,1.3,0.9,1.3c0.7,0,2-0.2,2-2.3l0-20.8l4.2,0l0,1.5
			c0,0,1.4-1.5,2.9-1.5c0,0,0.6,0,1.5,0c2.2,0,3.2,1.9,3.2,3.8c0,0,0,16,0,18.1c0,1.1,0.2,1.8,1.4,1.8l3.3,0v2.5h-5
			c-0.1,0-1.5,0-1.6,0c-1.3,0-2.3-0.8-2.3-2.3c0,0,0-19.9,0-19.9c0-2-3.3-2.2-3.3-0.3v22.6h-4.2c0,0,0-2.3,0-2.3
			c0,0.1-1.6,2.3-2.9,2.3c0,0-0.5,0-0.8,0c-1.4,0-3-1.4-3.1-2.3c0,0-1.7,2.3-3.8,2.3c0,0-1.3,0-1.4,0c-1.1,0-2.1-1.2-2.1-2.1
			c0,0-1.8,2.1-3.2,2.1c0,0-1.7,0-2.7,0c-1.4,0-2-1.2-2-2.3l0-20.8c0,0-0.2-1.2-0.9-1.2c0,0-0.6,0-1,0c-0.7,0-1.2,0.6-1.2,1v23.3
			h-4.1c0,0,0-23.1,0-23.1c0-0.8-0.6-1.2-0.9-1.2c0,0-0.9,0-0.9,0c-0.8,0-1.2,0.6-1.2,1.1v23.2h-4.1v-1.7c0,0-3.2,2.1-6.3,2.1
			c-2.2,0-3.9-1.5-3.9-3.4c0,0,0-7.9,0-9.5C32.7,33,30.7,32,30.7,32v10.8c0,0.9-1.4,2.2-2.8,2.2c0,0-5.1,0-5.2,0c-0.9,0-2-1.6-2-1.6
			s-1.3,1.5-2.5,1.5c0,0-3.4,0-4.8,0c-0.7,0-1.5-0.6-1.5-1.6c0,0,0-12,0-12c0,0-3.6,0-3.6,0v13.6H3.2V9.9H8.4z M24.3,21.6
			c0,2.2,0,19.9,0,19.9c0,1.9,1.3,1.5,1.3,1.5s1.5,0.3,1.5-1.4c0-1.9,0-20,0-20c0-1.5-1.4-1.1-1.4-1.1S24.3,20.1,24.3,21.6z
			 M37.7,27.7c0,0,3.3-3.4,3.3-8c0-3.5-1.6-5.2-1.7-5.3c-1-1.7-1.4-1.5-1.6,0.7c0,0,0,9.4,0,10.8C37.7,26.4,37.7,27.7,37.7,27.7z
			 M70.1,21.8v19.1c0,1.9,3.4,1.6,3.3-0.7c0-1.7,0-18.4,0-18.4C73.5,20.2,70.1,20,70.1,21.8z"/>
	</g>
	<g>
		<path class="st0" d="M14.4,52.4h1l2.8,6.4h-1.2l-0.6-1.5h-3l-0.7,1.5h-1.1L14.4,52.4z M16,56.3l-1.1-2.5l-1.1,2.5H16z"/>
		<path class="st0" d="M19.9,56.1v-3.6H21v3.6c0,1.2,0.6,1.8,1.6,1.8c1,0,1.6-0.6,1.6-1.8v-3.6h1.1v3.6c0,1.9-1.1,2.8-2.7,2.8
			C21,58.9,19.9,58,19.9,56.1z"/>
		<path class="st0" d="M29.3,53.5h-2v-1h5.1v1h-2v5.3h-1.1V53.5z"/>
		<path class="st0" d="M33.9,55.7L33.9,55.7c0-1.8,1.4-3.3,3.3-3.3s3.3,1.5,3.3,3.3v0c0,1.8-1.4,3.3-3.3,3.3S33.9,57.5,33.9,55.7z
			 M39.4,55.7L39.4,55.7c0-1.2-0.9-2.3-2.2-2.3s-2.1,1-2.1,2.2v0c0,1.2,0.9,2.3,2.2,2.3S39.4,56.9,39.4,55.7z"/>
		<path class="st0" d="M42.8,52.5H44l1.9,3l1.9-3H49v6.3h-1.1v-4.5l-2,3h0l-2-3v4.5h-1.1V52.5z"/>
		<path class="st0" d="M51.3,55.7L51.3,55.7c0-1.8,1.4-3.3,3.3-3.3c1.9,0,3.3,1.5,3.3,3.3v0c0,1.8-1.4,3.3-3.3,3.3
			C52.6,58.9,51.3,57.5,51.3,55.7z M56.8,55.7L56.8,55.7c0-1.2-0.9-2.3-2.2-2.3c-1.3,0-2.1,1-2.1,2.2v0c0,1.2,0.9,2.3,2.2,2.3
			C55.9,57.9,56.8,56.9,56.8,55.7z"/>
		<path class="st0" d="M61.4,53.5h-2v-1h5.1v1h-2v5.3h-1.1V53.5z"/>
		<path class="st0" d="M66.7,52.5h1.1v6.3h-1.1V52.5z"/>
		<path class="st0" d="M69.8,52.5h1.2l1.9,4.9l1.9-4.9h1.2l-2.6,6.4h-1L69.8,52.5z"/>
		<path class="st0" d="M78.1,52.5h4.7v1h-3.6v1.6h3.2v1h-3.2v1.7h3.6v1h-4.7V52.5z"/>
	</g>
</g>
</svg>
