<?xml version="1.0" encoding="utf-8"?>
<!-- Generator: Adobe Illustrator 22.1.0, SVG Export Plug-In . SVG Version: 6.00 Build 0)  -->
<svg version="1.1" id="Layer_1" xmlns="http://www.w3.org/2000/svg" xmlns:xlink="http://www.w3.org/1999/xlink" x="0px" y="0px"
	 viewBox="0 0 125 75" style="enable-background:new 0 0 125 75;" xml:space="preserve">
<style type="text/css">
	.st0{fill:#007CC3;}
</style>
<g>
	<path class="st0" d="M19.7,61.9l1.7,0.2c0.7,0,0.9,0.7,0.9,1v2.1h-7.7v-2.1c0-0.3,0-1,0.9-1l1.7-0.2v-1.7H7.2v1.7l1.7,0.2
		c0.7,0,0.9,0.7,0.9,1v6.5c0,0.3,0,1-0.9,1.2L7.2,71v1.7h9.9V71l-1.7-0.2c-0.7,0-0.9-0.7-0.9-1.2v-2.1h7.7v2.1c0,0.3,0,1-0.9,1.2
		L19.7,71v1.7h9.9V71l-1.7-0.2c-0.7,0-0.9-0.7-0.9-1.2v-6.5c0-0.3,0-1,0.9-1l1.7-0.2v-1.7h-9.9V61.9L19.7,61.9z"/>
	<path class="st0" d="M86.4,60.2H74.1v1.7l1.5,0.2c0.5,0,0.9,0.3,0.9,1v6.7c0,0.3,0,1-0.9,1.2l-1.7,0.2v1.7h12.5
		c4.4,0,8.2-1.9,8.2-6.2C94.6,61.9,90.8,60.2,86.4,60.2L86.4,60.2z M85.5,70.3h-4.3v-7.7h4.3c2.4,0,3.2,1.2,3.2,3.8
		C88.8,69.1,87.9,70.3,85.5,70.3L85.5,70.3z"/>
	<path class="st0" d="M115.6,70.8c-0.9-0.2-1-0.7-1.4-1c-5.8-8.7-5.8-8.7-5.8-8.7c-0.3-0.7-0.7-0.9-1.4-0.9h-9.4v1.7l2.2,0.3
		c0.3,0,0.7,0.5,0.3,1L96,70.1c-0.2,0.3-0.3,0.7-0.9,0.7L93.4,71v1.7h8V71l-1.4-0.2c-0.5,0-0.9-0.5-0.7-1l0.7-1h7.7l0.5,0.9
		c0.5,0.7-0.2,1-0.7,1.2l-1.4,0.2v1.7H117V71L115.6,70.8L115.6,70.8z M101.6,66.6l2.4-3.8l2.6,3.8H101.6L101.6,66.6z"/>
	<path class="st0" d="M65.2,61.9l1.7,0.2c0.7,0,0.9,0.7,0.9,1v6.3l-6.7-8.7c-0.3-0.3-0.5-0.5-1.2-0.5c-0.5,0-8.6,0-8.6,0v1.7
		l1.7,0.2c0.7,0,0.9,0.7,0.9,1v6.5c0,0.3,0,1-0.9,1.2L51.3,71v1.7h8V71l-1.7-0.2c-0.7,0-0.9-0.7-0.9-1.2v-6.2l6.7,8.7
		c0.3,0.3,0.5,0.5,1.2,0.5l0,0c0.3,0,1.5,0,6,0v-9.4c0-0.3,0-1,0.9-1l1.7-0.2v-1.7h-8V61.9L65.2,61.9z"/>
	<path class="st0" d="M40.4,59.7c-8,0-10.3,3.6-10.3,6.7s2.1,6.7,10.3,6.7s10.3-3.6,10.3-6.7C50.6,63.3,48.6,59.7,40.4,59.7
		L40.4,59.7z M40.4,70.7c-3.1,0-4.4-1.4-4.4-4.3c0-2.9,1.4-4.3,4.4-4.3s4.4,1.4,4.4,4.3C44.8,69.5,43.6,70.7,40.4,70.7L40.4,70.7z"
		/>
	<path class="st0" d="M76,7.6c-1.4,6.2-1.9,8.9-3.1,13.3c-1,4.3-1.9,8.2-3.4,10.1s-3.4,2.4-4.8,2.6c-0.7,0-1.2,0.2-2.7,0.2
		s-2.1,0-2.7-0.2c-1.4-0.2-3.2-0.5-4.8-2.6c-1.4-1.9-2.2-5.8-3.4-10.1c-1.2-4.4-1.7-7.2-3.1-13.3c0,0-1.4,0-2.1,0.2
		c-0.9,0-1.5,0.2-2.2,0.2c0,0,0.9,12.7,1.2,18c0.3,5.6,1,15.1,1.7,22.2c0,0,1.2,0.2,3.1,0.3c2.1,0.2,2.9,0.2,2.9,0.2
		c0.9-3.1,1.9-7.5,3.1-9.4c1-1.5,2.4-1.7,3.2-1.7c1.4-0.2,2.4-0.2,2.9-0.2l0,0l0,0l0,0l0,0c0.5,0,1.5,0,2.9,0.2
		c0.9,0.2,2.2,0.3,3.2,1.7c1.2,1.9,2.2,6.2,3.1,9.4c0,0,0.9,0,2.9-0.2c2.2-0.2,3.4-0.3,3.4-0.3c0.7-7.2,1.2-16.6,1.7-22.2
		c0.3-5.3,1.2-18,1.2-18c-0.7-0.2-1.4-0.2-2.2-0.2C77.3,7.6,76,7.6,76,7.6L76,7.6z"/>
	<path class="st0" d="M91.9,14.9c-0.9-8-6.2-9.6-10.8-10.4c-2.4-0.3-6.5-0.7-9.2-0.9c-2.4-0.2-7.9-0.2-9.6-0.2s-7.2,0-9.6,0.2
		c-2.7,0.2-6.8,0.5-9.2,0.9C38.8,5.3,33.4,7,32.7,14.9c-0.2,2.2-0.3,5-0.2,8c0,5.1,0.5,8.6,0.7,10.9c0.2,1.7,0.9,6.5,1.7,9.1
		c1.2,3.4,2.2,4.4,3.6,5.5c2.4,1.9,6.2,2.4,7,2.6c4.3,0.9,13,0.9,16.9,0.9s12.7-0.2,16.9-0.9c0.9-0.2,4.6-0.7,7-2.6
		c1.2-1,2.4-2.1,3.6-5.5c0.9-2.6,1.5-7.4,1.7-9.1c0.2-2.4,0.7-5.8,0.7-10.9C92.2,20,92,17.1,91.9,14.9L91.9,14.9z M89,28.4
		c-0.5,6.3-1,10.3-1.9,13c-0.7,2.4-1.5,4.1-2.9,5.3c-2.2,1.9-5.1,2.4-6.8,2.6C73.6,49.8,67.2,50,62.3,50S51,49.8,47.2,49.3
		c-1.7-0.3-4.8-0.7-6.8-2.6c-1.4-1.2-2.2-2.7-2.9-5.3c-0.9-2.7-1.4-6.7-1.9-13c-0.3-3.9-0.2-10.1,0.2-13.5c0.7-5,3.1-7.5,8.4-8.6
		C46.5,6,50,5.7,53,5.5c2.6-0.2,6.8-0.2,9.1-0.2c2.4,0,6.5,0,9.1,0.2c3.2,0.2,6.5,0.5,9.1,0.9c5.3,1,7.9,3.4,8.4,8.6
		C89.1,18.3,89.3,24.5,89,28.4L89,28.4z"/>
</g>
</svg>
