<?xml version="1.0" encoding="utf-8"?>
<!-- Generator: Adobe Illustrator 22.1.0, SVG Export Plug-In . SVG Version: 6.00 Build 0)  -->
<svg version="1.1" id="Layer_1" xmlns="http://www.w3.org/2000/svg" xmlns:xlink="http://www.w3.org/1999/xlink" x="0px" y="0px"
	 viewBox="0 0 150 35" style="enable-background:new 0 0 150 35;" xml:space="preserve">
<style type="text/css">
	.st0{fill:#1A3E6F;}
	.st1{fill:#5B5C5E;}
	.st2{opacity:0.5;fill:#5B5C5E;}
</style>
<g>
	<g>
		<path class="st0" d="M7.6,5.1v12.3h2.3V5.1h3.4v20.6c0,0,0.3,1.1,1,1c0.8,0,1.4-0.2,1.4-0.8c0,0,0.1-12.9,0-12.9
			c0-0.9,0.6-2,1.3-2.1h4.1c0.8,0,1.6,1.2,1.6,2v5c0,0,1.5,0.7,2.2,0.2c0,0,0-7,0-10.3c0-1.3,0.9-3,1.6-3c0,0,0.7-0.2,1.4,0
			c2.1,1.2,2.8,4.1,2.9,5.8c0.1,1.3-0.2,3-0.2,3c-0.5,2.6-2.3,5.3-3.2,6.2c0,0,0,3.2,0,4.7c0,0.9,0.5,1.9,1.6,1.9c0,0,0.8,0.1,0.7,0
			c0.9,0,2-0.6,2-2.3V11h2.8v0.8c0-0.1,0.9-0.9,1.9-0.9c0,0,0.6,0,1.1,0c1.4,0,1.9,0.8,1.9,0.8s0.1-0.8,1.5-0.8h1.4
			c0.9,0,1.8,0.9,1.8,2.8v12c0,0,0.3,0.8,1,0.8c0.8,0,1.3-0.4,1.3-1.2c0,0,0-11.1,0-12.8c0-1.3,1.1-1.9,1.6-1.9c0,0,0.3,0,1,0
			c1.8,0,2.6,1.1,2.6,1.1V11h2.8c0,0,0,12.4,0,14.7c0,0.4,0.3,0.9,0.6,0.9c0.5,0,1.4-0.1,1.3-1.5v-14h2.8v1c0,0,0.9-1,2-1
			c0,0,0.4,0,1,0c1.4,0,2.1,1.3,2.1,2.5c0,0,0,10.7,0,12.2c0,0.7,0.1,1.2,0.9,1.2h2.2v1.7h-3.4c0,0-1,0-1.1,0
			c-0.9,0-1.5-0.5-1.5-1.6V13.7c0-1.3-2.3-1.5-2.3-0.2v15.2h-2.8v-1.5c0,0-1.1,1.6-1.9,1.6c0,0-0.3,0-0.5,0c-1,0-2.1-0.9-2.1-1.6
			c0,0-1.2,1.5-2.6,1.6c0,0-0.9,0-1,0c-0.8,0-1.4-0.8-1.4-1.4c0,0-1.2,1.4-2.2,1.4c0,0-1.1,0-1.8,0c-0.9,0-1.3-0.8-1.3-1.6v-14
			c0,0-0.1-0.8-0.6-0.8c0,0-0.4,0-0.7,0c-0.5,0-0.8,0.4-0.8,0.7v15.6h-2.7V13.2c0-0.5-0.4-0.8-0.6-0.8h-0.6c-0.5,0-0.8,0.4-0.8,0.7
			v15.6h-2.8v-1.2c0,0-2.1,1.4-4.2,1.4c-1.5,0-2.6-1-2.6-2.3c0,0,0-5.3,0-6.4c-0.9,0.4-2.1-0.2-2.1-0.2v7.2c0,0.6-0.9,1.5-1.9,1.5
			c0,0-3.4,0-3.5,0c-0.6,0-1.3-1.1-1.3-1.1s-0.9,1-1.7,1c0,0-2.3,0-3.2,0c-0.4,0-1-0.4-1-1.1v-8.1H7.9v9.2H4.1V5.1H7.6z M18.3,12.9
			c0,1.5,0,13.4,0,13.4c0,1.3,0.9,1,0.9,1s1,0.2,1-1c0-1.3,0-13.4,0-13.4c0-1-1-0.8-1-0.8S18.3,12,18.3,12.9z M27.3,17.1
			c0,0,2.2-2.3,2.2-5.4c0-2.3-1.1-3.5-1.2-3.6c-0.7-1.1-0.9-1-1.1,0.5c0,0,0,6.3,0,7.3C27.3,16.2,27.3,17.1,27.3,17.1z M49.1,13.1
			v12.8c0,1.3,2.3,1.1,2.2-0.5c0-1.2,0-12.4,0-12.4C51.4,12.1,49.1,11.9,49.1,13.1z"/>
	</g>
	<g>
		<path class="st1" d="M77.9,11h1.6v5.9h3.7v1.5h-5.3C77.9,18.4,77.9,11,77.9,11z"/>
		<path class="st1" d="M86.5,11H88l3.2,7.4h-1.7l-0.7-1.7h-3.1L85,18.4h-1.7L86.5,11z M88.2,15.3l-1-2.4l-1,2.4
			C86.2,15.3,88.2,15.3,88.2,15.3z"/>
		<path class="st1" d="M91.4,15.2V11H93v4.2c0,1.2,0.6,1.8,1.6,1.8s1.6-0.6,1.6-1.8V11h1.6v4.2c0,2.2-1.3,3.3-3.2,3.3
			C92.6,18.5,91.4,17.4,91.4,15.2z"/>
		<path class="st1" d="M98.9,11h2.9c2.3,0,3.9,1.6,3.9,3.7l0,0c0,2.1-1.6,3.7-3.9,3.7h-2.9V11z M101.8,16.9c1.3,0,2.2-0.9,2.2-2.2
			l0,0c0-1.3-0.9-2.2-2.2-2.2h-1.3V17h1.3V16.9z"/>
		<path class="st1" d="M106.7,11h5.6v1.4h-4V14h3.5v1.4h-3.5V17h4v1.4h-5.6V11z"/>
		<path class="st1" d="M113.2,11h3.4c0.9,0,1.7,0.3,2.2,0.7c0.4,0.4,0.6,1,0.6,1.7l0,0c0,1.2-0.6,1.9-1.6,2.3l1.8,2.6h-1.9l-1.6-2.4
			l0,0h-1.3v2.4h-1.6V11z M116.5,14.6c0.8,0,1.2-0.4,1.2-1l0,0c0-0.7-0.5-1.1-1.3-1.1h-1.6v2.1H116.5z"/>
		<path class="st1" d="M120.3,11h2.9c2.3,0,3.9,1.6,3.9,3.7l0,0c0,2.1-1.6,3.7-3.9,3.7h-2.9V11z M123.2,16.9c1.3,0,2.2-0.9,2.2-2.2
			l0,0c0-1.3-0.9-2.2-2.2-2.2H122V17h1.2V16.9z"/>
		<path class="st1" d="M130.1,11h1.5l3.2,7.4H133l-0.7-1.7h-3.1l-0.7,1.7h-1.7L130.1,11z M131.8,15.3l-1-2.4l-1,2.4
			C129.8,15.3,131.8,15.3,131.8,15.3z"/>
		<path class="st1" d="M135.4,11h1.6v5.9h3.7v1.5h-5.3V11z"/>
		<path class="st1" d="M141.4,11h5.6v1.4h-4V14h3.5v1.4H143V17h4v1.4h-5.6V11z"/>
		<path class="st1" d="M77.7,24.2L77.7,24.2c0-2.5,1.8-4.5,4.5-4.5c1.6,0,2.6,0.5,3.4,1.3l-1.2,1.4c-0.7-0.6-1.3-1-2.2-1
			c-1.5,0-2.5,1.2-2.5,2.7l0,0c0,1.5,1,2.7,2.5,2.7c1,0,1.6-0.4,2.3-1l1.2,1.2c-0.9,0.9-1.9,1.5-3.5,1.5
			C79.6,28.6,77.7,26.7,77.7,24.2z"/>
		<path class="st1" d="M86.5,24.2L86.5,24.2c0-2.5,1.9-4.5,4.6-4.5s4.6,2,4.6,4.4l0,0c0,2.5-1.9,4.5-4.6,4.5S86.5,26.6,86.5,24.2z
			 M93.7,24.2L93.7,24.2c0-1.5-1.1-2.7-2.6-2.7s-2.6,1.2-2.6,2.7l0,0c0,1.5,1.1,2.7,2.6,2.7S93.7,25.7,93.7,24.2z"/>
		<path class="st1" d="M97.4,19.8h1.9v6.9h4.3v1.7h-6.2C97.4,28.4,97.4,19.8,97.4,19.8z"/>
		<path class="st1" d="M105,19.8h1.9v6.9h4.3v1.7H105V19.8z"/>
		<path class="st1" d="M112.7,19.8h1.9v8.6h-1.9V19.8z"/>
		<path class="st1" d="M116.2,27.2l1.1-1.3c0.8,0.6,1.6,1,2.6,1c0.8,0,1.2-0.3,1.2-0.8l0,0c0-0.5-0.3-0.7-1.7-1.1
			c-1.7-0.4-2.9-0.9-2.9-2.6l0,0c0-1.6,1.3-2.6,3-2.6c1.3,0,2.3,0.4,3.2,1.1l-1,1.4c-0.8-0.5-1.5-0.9-2.2-0.9s-1.1,0.3-1.1,0.8l0,0
			c0,0.6,0.4,0.8,1.9,1.1c1.8,0.5,2.7,1.1,2.7,2.6l0,0c0,1.7-1.3,2.7-3.2,2.7C118.6,28.6,117.2,28.1,116.2,27.2z"/>
		<path class="st1" d="M124.8,19.8h1.9v8.6h-1.9V19.8z"/>
		<path class="st1" d="M128.4,24.2L128.4,24.2c0-2.5,1.9-4.5,4.6-4.5s4.6,2,4.6,4.4l0,0c0,2.5-1.9,4.5-4.6,4.5
			S128.4,26.6,128.4,24.2z M135.6,24.2L135.6,24.2c0-1.5-1.1-2.7-2.6-2.7s-2.6,1.2-2.6,2.7l0,0c0,1.5,1.1,2.7,2.6,2.7
			C134.6,26.9,135.6,25.7,135.6,24.2z"/>
		<path class="st1" d="M139.3,19.8h1.8l4,5.3v-5.3h1.9v8.6h-1.6l-4.2-5.5v5.5h-1.9V19.8z"/>
	</g>
</g>
<rect x="71.9" y="10.7" class="st2" width="0.9" height="17.9"/>
</svg>
